<?xml version="1.0" encoding="utf-8"?>
<!-- Generator: Adobe Illustrator 27.2.0, SVG Export Plug-In . SVG Version: 6.00 Build 0)  -->
<svg version="1.1" id="visual" xmlns="http://www.w3.org/2000/svg" xmlns:xlink="http://www.w3.org/1999/xlink" x="0px" y="0px"
	 viewBox="0 0 960 400" style="enable-background:new 0 0 960 400;" xml:space="preserve">
<style type="text/css">
	.st0{fill:#8FE5FF;}
	.st1{fill:#6DB7D3;}
	.st2{fill:#4C8BA7;}
	.st3{fill:#2D627D;}
</style>
<path class="st0" d="M0,77l120,159l120,15L360,11l120,42l120-32l120,46l120,134l84-43l36,53.4V402H840H720H600H480H360H240H120H0V77
	z"/>
<path class="st1" d="M0,294l120-159l120-43l120,132l120-118l120,19l120,140l120-134l120,142v129H840H720H600H480H360H240H120H0V294z
	"/>
<path class="st2" d="M0,167l120,65l120-36l120,45l120,96l120-171l120,75l120,61l120,28v72H840H720H600H480H360H240H120H0V167z"/>
<path class="st3" d="M0,245l120,55l120,30l120-92l120,43l120,13l120-58l120,153l120-125v138H840H720H600H480H360H240H120H0V245z"/>
</svg>
