<?xml version="1.0" encoding="UTF-8"?><svg id="Calque_1" xmlns="http://www.w3.org/2000/svg" viewBox="0 0 1920 1080"><defs><style>.cls-1{fill:#d1d1d1;}.cls-2{fill:#bfbfbf;}</style></defs><path class="cls-2" d="m1920,528.8v551.2H0v-551.2c97,19.88,488.28,87.46,956.23,87.46s881.38-66.73,963.77-87.46Z"/><polygon class="cls-1" points="522.04 752.17 402.56 763.24 406.96 705.7 525.75 696.11 522.04 752.17"/><polygon class="cls-1" points="185.65 709.39 70.57 709.39 63.93 662.91 179.01 649.08 185.65 709.39"/><polygon class="cls-1" points="829.29 729.68 711.24 717.69 723.07 671.21 826.32 671.21 829.29 729.68"/><polygon class="cls-1" points="681.77 865.22 566.69 865.22 566.69 818.75 673.68 824.1 681.77 865.22"/><polygon class="cls-1" points="334.68 809.71 214.46 818.01 219.6 763.24 313.31 763.24 334.68 809.71"/><polygon class="cls-1" points="1006.35 792.56 901.57 795.51 891.27 746.09 1006.35 746.09 1006.35 792.56"/><polygon class="cls-1" points="444.22 943.7 377.12 943.7 338.02 901.83 444.22 897.22 444.22 943.7"/><polygon class="cls-1" points="147.66 917.52 41.38 924.69 53.18 876.93 159.46 869.75 147.66 917.52"/><polygon class="cls-1" points="835.56 924.33 749.26 933 730.08 886.53 864.33 886.53 835.56 924.33"/><polygon class="cls-1" points="654.48 1010.92 549.72 1021.24 549.72 974.77 664.8 974.77 654.48 1010.92"/><polygon class="cls-1" points="295.96 1024.93 189 1024.93 180.88 978.46 286.37 978.46 295.96 1024.93"/><polygon class="cls-1" points="1006.35 1021.24 891.27 1021.24 903.08 979.38 1006.35 974.77 1006.35 1021.24"/><polygon class="cls-1" points="1553.69 764.86 1434.21 775.93 1438.61 718.39 1557.41 708.8 1553.69 764.86"/><polygon class="cls-1" points="1217.31 722.08 1102.23 722.08 1095.59 675.6 1210.67 661.77 1217.31 722.08"/><polygon class="cls-1" points="1860.95 742.36 1742.89 730.37 1754.72 683.9 1857.97 683.9 1860.95 742.36"/><polygon class="cls-1" points="1713.43 877.91 1598.35 877.91 1598.35 831.44 1705.34 836.79 1713.43 877.91"/><polygon class="cls-1" points="1366.33 822.4 1246.12 830.7 1251.25 775.93 1344.97 775.93 1366.33 822.4"/><polygon class="cls-1" points="1475.88 956.38 1408.77 956.38 1369.68 914.52 1475.88 909.91 1475.88 956.38"/><polygon class="cls-1" points="1179.32 930.2 1073.04 937.38 1084.84 889.61 1191.12 882.44 1179.32 930.2"/><polygon class="cls-1" points="1867.22 937.02 1780.91 945.69 1761.73 899.21 1895.99 899.21 1867.22 937.02"/><polygon class="cls-1" points="1686.13 1023.6 1581.38 1033.93 1581.38 987.46 1696.46 987.46 1686.13 1023.6"/><polygon class="cls-1" points="1327.62 1037.62 1220.65 1037.62 1212.54 991.15 1318.03 991.15 1327.62 1037.62"/></svg>