<svg id="visual" viewBox="0 0 1920 1080" width="1920" height="1080" xmlns="http://www.w3.org/2000/svg" xmlns:xlink="http://www.w3.org/1999/xlink" version="1.1"><rect x="0" y="0" width="1920" height="1080" fill="#602519"></rect><path d="M0 546L320 548L640 617L960 515L1280 512L1600 663L1920 547L1920 0L1600 0L1280 0L960 0L640 0L320 0L0 0Z" fill="#110d0c"></path><path d="M0 322L320 451L640 400L960 337L1280 384L1600 272L1920 427L1920 0L1600 0L1280 0L960 0L640 0L320 0L0 0Z" fill="#413533"></path><path d="M0 113L320 252L640 287L960 152L1280 94L1600 130L1920 131L1920 0L1600 0L1280 0L960 0L640 0L320 0L0 0Z" fill="#775f5d"></path></svg>