<svg id="visual" viewBox="0 0 1920 384" width="1920" height="384" xmlns="http://www.w3.org/2000/svg" xmlns:xlink="http://www.w3.org/1999/xlink" version="1.1"><rect x="0" y="0" width="1920" height="384" fill="#602519"></rect><path d="M0 102L320 101L640 105L960 103L1280 110L1600 131L1920 124L1920 0L1600 0L1280 0L960 0L640 0L320 0L0 0Z" fill="#110d0c"></path><path d="M0 66L320 81L640 71L960 62L1280 84L1600 62L1920 82L1920 0L1600 0L1280 0L960 0L640 0L320 0L0 0Z" fill="#413533"></path><path d="M0 43L320 23L640 60L960 18L1280 36L1600 41L1920 29L1920 0L1600 0L1280 0L960 0L640 0L320 0L0 0Z" fill="#775f5d"></path></svg>