<?xml version="1.0" encoding="UTF-8"?><svg id="Calque_1" xmlns="http://www.w3.org/2000/svg" viewBox="0 0 238.35 164.16"><defs><style>.cls-1{fill:#c22b29;}.cls-2{fill:#cfd0d2;}.cls-3{fill:#ececed;}.cls-4{fill:#171d49;}.cls-5{fill:#e64434;}.cls-6{fill:#fdc103;}.cls-7{fill:#e3023a;}.cls-8{fill:#81d2e9;}.cls-9{fill:#ef7963;}.cls-10{fill:#069076;}.cls-11{fill:#f6f8f9;}.cls-12{fill:#00473f;}.cls-13{fill:#9c9d9f;}.cls-14{fill:#0d5999;}.cls-15{fill:#02915a;}.cls-16{fill:#e95a0d;}</style></defs><path class="cls-15" d="m238.35,164.16H78.5c-5.09-5.32-8.07-11.76-8.07-18.7,0-18.27,20.66-33.08,46.15-33.08,20.48,0,37.85,9.57,43.87,22.81,5.38-4.05,12.58-6.52,20.49-6.52,11.07,0,20.75,4.83,25.98,12.03,2.19-.65,4.52-1,6.92-1,13.53,0,24.49,10.95,24.51,24.46Z"/><path class="cls-12" d="m102.2,151.6c0,4.52-1.37,8.78-3.82,12.56H.78c.03-14.12,10.21-25.57,22.75-25.57,3.16,0,6.16.72,8.89,2.04,5.52-10.08,18.43-17.15,33.46-17.15,20.06,0,36.32,12.59,36.32,28.12Z"/><polygon class="cls-13" points="226.59 146.69 226.59 164.16 140.59 164.16 140.59 141.04 151.12 134.66 154.66 146.76 154.77 147.12 155.37 146.76 175.37 134.66 178.9 146.76 179.01 147.13 179.62 146.76 199.31 134.84 202.8 146.76 202.94 147.23 203.71 146.76 223.16 134.99 226.59 146.69"/><path class="cls-13" d="m138.41,105.68h-51.07c0-5.3,11.43-9.6,25.53-9.6s25.54,4.3,25.54,9.6Z"/><rect class="cls-2" x="51.96" y="136.73" width="88.51" height="27.43"/><rect class="cls-10" x="51.96" y="136.73" width="4.24" height="4.24"/><rect class="cls-10" x="136.18" y="136.73" width="4.24" height="4.24"/><rect class="cls-10" x="130.45" y="136.73" width="4.24" height="4.24"/><rect class="cls-10" x="57.49" y="136.73" width="4.24" height="4.24"/><rect class="cls-10" x="63.02" y="136.73" width="4.24" height="4.24"/><rect class="cls-10" x="68.61" y="136.73" width="4.24" height="4.24"/><rect class="cls-10" x="74.5" y="136.73" width="4.24" height="4.24"/><rect class="cls-10" x="79.93" y="136.73" width="4.24" height="4.24"/><rect class="cls-10" x="85.51" y="136.73" width="4.24" height="4.24"/><rect class="cls-10" x="91.24" y="136.73" width="4.24" height="4.24"/><rect class="cls-10" x="96.74" y="136.73" width="4.24" height="4.24"/><rect class="cls-10" x="102.4" y="136.73" width="4.24" height="4.24"/><rect class="cls-10" x="108.05" y="136.73" width="4.24" height="4.24"/><rect class="cls-10" x="113.71" y="136.73" width="4.24" height="4.24"/><rect class="cls-10" x="124.91" y="136.73" width="4.24" height="4.24"/><rect class="cls-10" x="119.37" y="136.73" width="4.24" height="4.24"/><rect class="cls-13" x="51.98" y="131.39" width="88.46" height="5.34"/><path class="cls-11" d="m138.44,105.68v25.65h-51.13v-25.65h.03c0,5.3,11.43,9.6,25.53,9.6s25.54-4.3,25.54-9.6h.03Z"/><rect class="cls-3" x="87.31" y="107.12" width="51.13" height="24"/><rect class="cls-2" x="87.31" y="113.4" width="51.13" height="17.99"/><rect class="cls-8" x="96.74" y="108.54" width="12.44" height="18.2" rx="1.28" ry="1.28"/><rect class="cls-6" x="99.87" y="111.09" width="1.75" height="13.1" rx=".88" ry=".88"/><rect class="cls-6" x="103.91" y="111.09" width="1.75" height="13.1" rx=".88" ry=".88"/><path class="cls-16" d="m117.78,107.12v24.34h-11.12c-.19-3.25,1.02-6.21,3.06-8.35v-7.47c0-.46.32-.83.76-.96,1.23-.36,2.09-1.87,2.11-3.22v-.06c.07-.59.95-1.98.95-1.98.91-1.36,2.46-2.26,4.21-2.3h.03Z"/><path class="cls-16" d="m128.87,131.46h-11.12v-24.34h.03c1.75.04,3.3.94,4.21,2.3,0,0,.88,1.39.95,1.98v.06c.02,1.35.88,2.86,2.11,3.22.44.13.76.5.76.96v7.47c2.04,2.14,3.25,5.1,3.06,8.35Z"/><rect class="cls-6" x="112.89" y="116.84" width="1.75" height="13.1" rx=".88" ry=".88"/><rect class="cls-6" x="116.87" y="116.84" width="1.75" height="13.1" rx=".88" ry=".88"/><rect class="cls-6" x="120.85" y="116.84" width="1.75" height="13.1" rx=".88" ry=".88"/><path class="cls-3" d="m201.37,163.97h-46.4c.59-.6,1.16-1.29,1.72-2.05.53-.72,1.05-1.52,1.56-2.38,4.2-7.16,7.41-18.96,8.34-32.46.49-7.17.28-13.96-.5-19.89-.13-.96-.27-1.9-.43-2.82,0-.04-.01-.08-.02-.11h25.07s-.01.06-.02.09c-.16.92-.3,1.87-.43,2.84-.79,5.94-1,12.72-.51,19.89.91,13.2,4,24.77,8.06,31.97.5.89,1.02,1.72,1.56,2.48.65.93,1.32,1.74,2.01,2.44Z"/><rect class="cls-9" x="167.21" y="104.25" width="1.48" height="2.93"/><rect class="cls-9" x="170.1" y="104.25" width="1.83" height="2.93"/><rect class="cls-9" x="174.14" y="104.25" width="2.77" height="2.93"/><rect class="cls-5" x="179.42" y="104.25" width="2.77" height="2.93"/><rect class="cls-1" x="184.37" y="104.25" width="1.71" height="2.93"/><rect class="cls-1" x="187.75" y="104.25" width="1.27" height="2.93"/><path class="cls-1" d="m190.68,104.25v.09c-.16.92-.3,1.87-.43,2.84h-.2v-2.93h.64Z"/><path class="cls-9" d="m166.38,104.25v2.93h-.31c-.13-.96-.27-1.9-.43-2.82v-.11h.74Z"/><rect class="cls-14" x="169.65" y="158.21" width="3.91" height="5.76"/><rect class="cls-4" x="175.47" y="158.21" width="5.1" height="5.76"/><rect class="cls-4" x="182.48" y="158.21" width="3.91" height="5.76"/><rect class="cls-4" x="188.3" y="158.21" width="3.13" height="5.76"/><rect class="cls-14" x="164.61" y="158.21" width="3.13" height="5.76"/><rect class="cls-4" x="193.34" y="158.21" width="2.55" height="5.76"/><rect class="cls-14" x="160.15" y="158.21" width="2.55" height="5.76"/><path class="cls-4" d="m199.36,161.53v2.44h-1.56v-4.92c.5.89,1.02,1.72,1.56,2.48Z"/><path class="cls-14" d="m158.24,159.54v4.43h-1.56v-2.05c.53-.72,1.05-1.52,1.56-2.38Z"/><polygon class="cls-3" points="82.1 131.39 74.69 131.39 75.88 65.54 75.97 60.61 76.04 56.34 76.13 51.41 76.21 46.99 76.3 42.06 81.23 42.06 81.28 46.99 81.32 51.41 81.37 56.34 81.41 60.61 81.46 65.54 82.1 131.39"/><polygon class="cls-7" points="81.28 46.99 76.21 46.99 76.3 42.06 81.23 42.06 81.28 46.99"/><polygon class="cls-7" points="81.37 56.34 76.04 56.34 76.13 51.41 81.32 51.41 81.37 56.34"/><polygon class="cls-7" points="81.46 65.54 75.88 65.54 75.97 60.61 81.41 60.61 81.46 65.54"/></svg>