<?xml version="1.0" encoding="utf-8"?>
<!-- Generator: Adobe Illustrator 27.3.1, SVG Export Plug-In . SVG Version: 6.00 Build 0)  -->
<svg version="1.1" id="Calque_1" xmlns="http://www.w3.org/2000/svg" xmlns:xlink="http://www.w3.org/1999/xlink" x="0px" y="0px"
	 viewBox="0 0 238.4 164.2" style="enable-background:new 0 0 238.4 164.2;" xml:space="preserve">
<style type="text/css">
	.st0{fill:#02915A;}
	.st1{fill:#00473F;}
	.st2{fill:#9C9D9F;}
	.st3{fill:#CFD0D2;}
	.st4{fill:#069076;}
	.st5{fill:#ECECED;}
	.st6{fill:#81D2E9;}
	.st7{fill:#FDC103;}
	.st8{fill:#E95A0D;}
	.st9{fill:#EF7963;}
	.st10{fill:#E64434;}
	.st11{fill:#C22B29;}
	.st12{fill:#0D5999;}
	.st13{fill:#171D49;}
	.st14{fill:#E3023A;}
	.st15{fill:#FFFFFF;}
</style>
<path class="st0" d="M238.4,164.2H78.5c-5.1-5.3-8.1-11.8-8.1-18.7c0-18.3,20.7-33.1,46.2-33.1c20.5,0,37.8,9.6,43.9,22.8
	c5.4-4.1,12.6-6.5,20.5-6.5c11.1,0,20.8,4.8,26,12c2.2-0.6,4.5-1,6.9-1C227.4,139.7,238.3,150.6,238.4,164.2L238.4,164.2z"/>
<path class="st1" d="M102.2,151.6c0,4.5-1.4,8.8-3.8,12.6H0.8c0-14.1,10.2-25.6,22.8-25.6c3.2,0,6.2,0.7,8.9,2
	c5.5-10.1,18.4-17.2,33.5-17.2C85.9,123.5,102.2,136.1,102.2,151.6L102.2,151.6z"/>
<polygon class="st2" points="226.4,146.7 226.4,164.2 140.4,164.2 140.4,141 151,134.7 154.5,146.8 154.6,147.1 155.2,146.8 
	175.2,134.7 178.7,146.8 178.8,147.1 179.5,146.8 199.1,134.8 202.6,146.8 202.8,147.2 203.5,146.8 223,135 "/>
<path class="st2" d="M138.4,105.7H87.3c0-5.3,11.4-9.6,25.5-9.6S138.4,100.4,138.4,105.7z"/>
<rect x="52" y="136.7" class="st3" width="88.5" height="27.4"/>
<rect x="52" y="136.7" class="st4" width="4.2" height="4.2"/>
<rect x="136.2" y="136.7" class="st4" width="4.2" height="4.2"/>
<rect x="130.4" y="136.7" class="st4" width="4.2" height="4.2"/>
<rect x="57.5" y="136.7" class="st4" width="4.2" height="4.2"/>
<rect x="63" y="136.7" class="st4" width="4.2" height="4.2"/>
<rect x="68.6" y="136.7" class="st4" width="4.2" height="4.2"/>
<rect x="74.5" y="136.7" class="st4" width="4.2" height="4.2"/>
<rect x="79.9" y="136.7" class="st4" width="4.2" height="4.2"/>
<rect x="85.5" y="136.7" class="st4" width="4.2" height="4.2"/>
<rect x="91.2" y="136.7" class="st4" width="4.2" height="4.2"/>
<rect x="96.7" y="136.7" class="st4" width="4.2" height="4.2"/>
<rect x="102.4" y="136.7" class="st4" width="4.2" height="4.2"/>
<rect x="108.1" y="136.7" class="st4" width="4.2" height="4.2"/>
<rect x="113.7" y="136.7" class="st4" width="4.2" height="4.2"/>
<rect x="124.9" y="136.7" class="st4" width="4.2" height="4.2"/>
<rect x="119.4" y="136.7" class="st4" width="4.2" height="4.2"/>
<rect x="52" y="131.4" class="st2" width="88.5" height="5.3"/>
<rect x="87.3" y="107.1" class="st5" width="51.1" height="6.3"/>
<rect x="87.3" y="113.4" class="st3" width="51.1" height="18"/>
<path class="st6" d="M98,108.5h9.9c0.7,0,1.3,0.6,1.3,1.3v15.6c0,0.7-0.6,1.3-1.3,1.3H98c-0.7,0-1.3-0.6-1.3-1.3v-15.6
	C96.7,109.1,97.3,108.5,98,108.5z"/>
<path class="st7" d="M100.7,111.1L100.7,111.1c0.5,0,0.9,0.4,0.9,0.9v11.3c0,0.5-0.4,0.9-0.9,0.9l0,0c-0.5,0-0.9-0.4-0.9-0.9V112
	C99.9,111.5,100.3,111.1,100.7,111.1z"/>
<path class="st7" d="M104.8,111.1L104.8,111.1c0.5,0,0.9,0.4,0.9,0.9v11.3c0,0.5-0.4,0.9-0.9,0.9l0,0c-0.5,0-0.9-0.4-0.9-0.9V112
	C103.9,111.5,104.3,111.1,104.8,111.1z"/>
<path class="st8" d="M128.9,131.4h-22.2c-0.2-3.2,1-6.2,3.1-8.3v-7.5c0-0.5,0.3-0.8,0.8-1c1.2-0.4,2.1-1.9,2.1-3.2v-0.1
	c0.1-0.6,0.9-2,0.9-2c0.9-1.4,2.5-2.3,4.2-2.3h0.1c1.8,0,3.3,0.9,4.2,2.3c0,0,0.9,1.4,0.9,2v0.1c0,1.4,0.9,2.9,2.1,3.2
	c0.4,0.1,0.8,0.5,0.8,1v7.5C127.9,125.2,129.1,128.1,128.9,131.4z"/>
<path class="st7" d="M113.8,116.8L113.8,116.8c0.5,0,0.9,0.4,0.9,0.9v11.3c0,0.5-0.4,0.9-0.9,0.9l0,0c-0.5,0-0.9-0.4-0.9-0.9v-11.3
	C112.9,117.2,113.3,116.8,113.8,116.8z"/>
<path class="st7" d="M117.7,116.8L117.7,116.8c0.5,0,0.9,0.4,0.9,0.9v11.3c0,0.5-0.4,0.9-0.9,0.9l0,0c-0.5,0-0.9-0.4-0.9-0.9v-11.3
	C116.9,117.2,117.3,116.8,117.7,116.8z"/>
<path class="st7" d="M121.7,116.8L121.7,116.8c0.5,0,0.9,0.4,0.9,0.9v11.3c0,0.5-0.4,0.9-0.9,0.9l0,0c-0.5,0-0.9-0.4-0.9-0.9v-11.3
	C120.8,117.2,121.2,116.8,121.7,116.8z"/>
<path class="st5" d="M201.4,164.2H155c0.6-0.6,1.2-1.3,1.7-2.1c0.5-0.7,1.1-1.5,1.6-2.4c4.2-7.2,7.4-19,8.3-32.5
	c0.5-7.2,0.3-14-0.5-19.9c-0.1-1-0.3-1.9-0.4-2.8c0,0,0-0.1,0-0.1h25.1c0,0,0,0.1,0,0.1c-0.2,0.9-0.3,1.9-0.4,2.8
	c-0.8,5.9-1,12.7-0.5,19.9c0.9,13.2,4,24.8,8.1,32c0.5,0.9,1,1.7,1.6,2.5C200.1,162.7,200.7,163.5,201.4,164.2L201.4,164.2z"/>
<rect x="167.2" y="104.2" class="st9" width="1.5" height="2.9"/>
<rect x="170.1" y="104.2" class="st9" width="1.8" height="2.9"/>
<rect x="174.1" y="104.2" class="st9" width="2.8" height="2.9"/>
<rect x="179.4" y="104.2" class="st10" width="2.8" height="2.9"/>
<rect x="184.4" y="104.2" class="st11" width="1.7" height="2.9"/>
<rect x="187.8" y="104.2" class="st11" width="1.3" height="2.9"/>
<path class="st11" d="M190.7,104.2L190.7,104.2c-0.2,1-0.3,2-0.4,2.9h-0.2v-2.9L190.7,104.2L190.7,104.2z"/>
<path class="st9" d="M166.4,104.2v2.9h-0.3c-0.1-1-0.3-1.9-0.4-2.8v-0.1H166.4L166.4,104.2z"/>
<rect x="169.7" y="158.4" class="st12" width="3.9" height="5.8"/>
<rect x="175.5" y="158.4" class="st13" width="5.1" height="5.8"/>
<rect x="182.5" y="158.4" class="st13" width="3.9" height="5.8"/>
<rect x="188.3" y="158.4" class="st13" width="3.1" height="5.8"/>
<rect x="164.6" y="158.4" class="st12" width="3.1" height="5.8"/>
<rect x="193.4" y="158.4" class="st13" width="2.6" height="5.8"/>
<rect x="160.2" y="158.4" class="st12" width="2.6" height="5.8"/>
<path class="st13" d="M199.4,161.5v2.4h-1.6v-4.9C198.3,159.9,198.8,160.8,199.4,161.5z"/>
<path class="st12" d="M158.3,159.7v4.4h-1.6v-2.1C157.2,161.4,157.8,160.6,158.3,159.7L158.3,159.7z"/>
<polygon class="st5" points="82.1,131.4 74.7,131.4 75.9,65.5 76,60.6 76,56.3 76.1,51.4 76.2,47 76.3,42.1 81.2,42.1 81.3,47 
	81.3,51.4 81.4,56.3 81.4,60.6 81.5,65.5 "/>
<polygon class="st14" points="81.3,47 76.2,47 76.3,42.1 81.2,42.1 "/>
<polygon class="st14" points="81.4,56.3 76,56.3 76.1,51.4 81.3,51.4 "/>
<polygon class="st14" points="81.5,65.5 75.9,65.5 76,60.6 81.4,60.6 "/>
<rect x="87.3" y="105.7" class="st15" width="51" height="1.4"/>
</svg>
