<?xml version="1.0" encoding="utf-8"?>
<!-- Generator: Adobe Illustrator 27.4.1, SVG Export Plug-In . SVG Version: 6.00 Build 0)  -->
<svg version="1.1" id="nuclear-station" xmlns="http://www.w3.org/2000/svg" xmlns:xlink="http://www.w3.org/1999/xlink" x="0px"
	 y="0px" viewBox="0 0 1920 1080" style="enable-background:new 0 0 1920 1080;" xml:space="preserve">
<style type="text/css">
	.st0{fill:#946EB5;}
	.st1{fill:#BF7AB3;}
	.st2{fill:#02915A;}
	.st3{fill:#00473F;}
	.st4{fill:#9C9D9F;}
	.st5{fill:#CFD0D2;}
	.st6{fill:#069076;}
	.st7{fill:#ECECED;}
	.st8{fill:#81D2E9;}
	.st9{fill:#FDC103;}
	.st10{fill:#E95A0D;}
	.st11{fill:#EF7963;}
	.st12{fill:#E64434;}
	.st13{fill:#C22B29;}
	.st14{fill:#0D5999;}
	.st15{fill:#171D49;}
	.st16{fill:#E3023A;}
	.st17{fill:#FFFFFF;}
</style>
<g id="bubbleGroup">
	<g id="bubble-1">
		<circle class="st0" fill="#946EB5" cx="1431.1" cy="706.5" r="62.2"/>
		<path class="st1" fill="#BF7AB3" d="M1377,734.8c-1.6-3.2-3.2-7.3-4.8-10.5c-0.8-1.6-0.8-4-1.6-5.7s-0.8-4-0.8-5.7c0-0.8,0-0.8,0-1.6v-1.6v-3.2
			v-3.2c0-0.8,0-1.6,0-3.2c0.8-4,0.8-8.1,2.4-12.1c0.8-4,2.4-7.3,4.8-11.3c2.4-4,4-7.3,7.3-10.5c4.8-6.5,11.3-11.3,19.4-15.4
			l1.6-0.8c0.8,0,0.8-0.8,1.6-0.8l1.6-0.8h0.8l0,0l0,0l1.6-0.8h0.8h0.8c0.8,0,1.6-0.8,3.2-0.8c4-1.6,8.1-1.6,12.1-2.4h0.8h0.8h1.6
			h3.2c1.6,0,4,0,6.5,0h1.6h1.6h0.8h0.8c0.8,0,0.8,0,1.6,0c1.6,0.8,4,0.8,5.7,1.6c8.1,2.4,15.4,6.5,21,11.3c1.6,1.6,3.2,2.4,4.8,4
			c1.6,1.6,2.4,3.2,4,4.8c1.6,1.6,2.4,3.2,3.2,4.8s1.6,3.2,2.4,4.8c-0.8-1.6-2.4-3.2-4-4.8l-4-4c-1.6-1.6-3.2-2.4-4.8-3.2
			c-1.6-1.6-3.2-2.4-4.8-3.2c-6.5-4-12.9-7.3-20.2-8.9c-1.6-0.8-3.2-0.8-5.7-0.8c-0.8,0-0.8,0-1.6,0h-0.8h-1.6h-1.6h-1.6
			c-1.6,0-3.2,0-5.7,0h-2.4h-1.6h-0.8h-0.8h-1.6h-0.8h0.8h-1.6h-0.8h-0.8l-2.4,0.8l-3.2,0.8l-2.4,0.8h-0.8h-0.8l-0.8,0.8l0,0l0,0
			h-0.8l-0.8,0.8c-0.8,0-0.8,0.8-0.8,0.8l-0.8,0.8c-6.5,3.2-12.1,8.1-17,13.7c-4.8,5.7-8.9,11.3-11.3,18.6
			c-1.6,3.2-2.4,7.3-3.2,10.5v1.6v0.8v0.8c0,0.8,0,1.6,0,2.4v2.4c0,0.8,0,1.6,0,2.4c0,4,0,7.3,0.8,11.3
			C1374.5,727.5,1375.4,731.6,1377,734.8L1377,734.8z"/>
	</g>
	<g id="bubble-2">
		<circle class="st0" fill="#946EB5" cx="1431.1" cy="706.5" r="62.2"/>
		<path class="st1" fill="#BF7AB3" d="M1377,734.8c-1.6-3.2-3.2-7.3-4.8-10.5c-0.8-1.6-0.8-4-1.6-5.7s-0.8-4-0.8-5.7c0-0.8,0-0.8,0-1.6v-1.6v-3.2
			v-3.2c0-0.8,0-1.6,0-3.2c0.8-4,0.8-8.1,2.4-12.1c0.8-4,2.4-7.3,4.8-11.3c2.4-4,4-7.3,7.3-10.5c4.8-6.5,11.3-11.3,19.4-15.4
			l1.6-0.8c0.8,0,0.8-0.8,1.6-0.8l1.6-0.8h0.8l0,0l0,0l1.6-0.8h0.8h0.8c0.8,0,1.6-0.8,3.2-0.8c4-1.6,8.1-1.6,12.1-2.4h0.8h0.8h1.6
			h3.2c1.6,0,4,0,6.5,0h1.6h1.6h0.8h0.8c0.8,0,0.8,0,1.6,0c1.6,0.8,4,0.8,5.7,1.6c8.1,2.4,15.4,6.5,21,11.3c1.6,1.6,3.2,2.4,4.8,4
			c1.6,1.6,2.4,3.2,4,4.8c1.6,1.6,2.4,3.2,3.2,4.8s1.6,3.2,2.4,4.8c-0.8-1.6-2.4-3.2-4-4.8l-4-4c-1.6-1.6-3.2-2.4-4.8-3.2
			c-1.6-1.6-3.2-2.4-4.8-3.2c-6.5-4-12.9-7.3-20.2-8.9c-1.6-0.8-3.2-0.8-5.7-0.8c-0.8,0-0.8,0-1.6,0h-0.8h-1.6h-1.6h-1.6
			c-1.6,0-3.2,0-5.7,0h-2.4h-1.6h-0.8h-0.8h-1.6h-0.8h0.8h-1.6h-0.8h-0.8l-2.4,0.8l-3.2,0.8l-2.4,0.8h-0.8h-0.8l-0.8,0.8l0,0l0,0
			h-0.8l-0.8,0.8c-0.8,0-0.8,0.8-0.8,0.8l-0.8,0.8c-6.5,3.2-12.1,8.1-17,13.7c-4.8,5.7-8.9,11.3-11.3,18.6
			c-1.6,3.2-2.4,7.3-3.2,10.5v1.6v0.8v0.8c0,0.8,0,1.6,0,2.4v2.4c0,0.8,0,1.6,0,2.4c0,4,0,7.3,0.8,11.3
			C1374.5,727.5,1375.4,731.6,1377,734.8L1377,734.8z"/>
	</g>
	<g id="bubble-3">
		<circle class="st0" fill="#946EB5" cx="1431.1" cy="706.5" r="62.2"/>
		<path class="st1" fill="#BF7AB3" d="M1377,734.8c-1.6-3.2-3.2-7.3-4.8-10.5c-0.8-1.6-0.8-4-1.6-5.7s-0.8-4-0.8-5.7c0-0.8,0-0.8,0-1.6v-1.6v-3.2
			v-3.2c0-0.8,0-1.6,0-3.2c0.8-4,0.8-8.1,2.4-12.1c0.8-4,2.4-7.3,4.8-11.3c2.4-4,4-7.3,7.3-10.5c4.8-6.5,11.3-11.3,19.4-15.4
			l1.6-0.8c0.8,0,0.8-0.8,1.6-0.8l1.6-0.8h0.8l0,0l0,0l1.6-0.8h0.8h0.8c0.8,0,1.6-0.8,3.2-0.8c4-1.6,8.1-1.6,12.1-2.4h0.8h0.8h1.6
			h3.2c1.6,0,4,0,6.5,0h1.6h1.6h0.8h0.8c0.8,0,0.8,0,1.6,0c1.6,0.8,4,0.8,5.7,1.6c8.1,2.4,15.4,6.5,21,11.3c1.6,1.6,3.2,2.4,4.8,4
			c1.6,1.6,2.4,3.2,4,4.8c1.6,1.6,2.4,3.2,3.2,4.8s1.6,3.2,2.4,4.8c-0.8-1.6-2.4-3.2-4-4.8l-4-4c-1.6-1.6-3.2-2.4-4.8-3.2
			c-1.6-1.6-3.2-2.4-4.8-3.2c-6.5-4-12.9-7.3-20.2-8.9c-1.6-0.8-3.2-0.8-5.7-0.8c-0.8,0-0.8,0-1.6,0h-0.8h-1.6h-1.6h-1.6
			c-1.6,0-3.2,0-5.7,0h-2.4h-1.6h-0.8h-0.8h-1.6h-0.8h0.8h-1.6h-0.8h-0.8l-2.4,0.8l-3.2,0.8l-2.4,0.8h-0.8h-0.8l-0.8,0.8l0,0l0,0
			h-0.8l-0.8,0.8c-0.8,0-0.8,0.8-0.8,0.8l-0.8,0.8c-6.5,3.2-12.1,8.1-17,13.7c-4.8,5.7-8.9,11.3-11.3,18.6
			c-1.6,3.2-2.4,7.3-3.2,10.5v1.6v0.8v0.8c0,0.8,0,1.6,0,2.4v2.4c0,0.8,0,1.6,0,2.4c0,4,0,7.3,0.8,11.3
			C1374.5,727.5,1375.4,731.6,1377,734.8L1377,734.8z"/>
	</g>
	<g id="bubble-4">
		<circle class="st0" fill="#946EB5" cx="1431.1" cy="706.5" r="62.2"/>
		<path class="st1" fill="#BF7AB3" d="M1377,734.8c-1.6-3.2-3.2-7.3-4.8-10.5c-0.8-1.6-0.8-4-1.6-5.7s-0.8-4-0.8-5.7c0-0.8,0-0.8,0-1.6v-1.6v-3.2
			v-3.2c0-0.8,0-1.6,0-3.2c0.8-4,0.8-8.1,2.4-12.1c0.8-4,2.4-7.3,4.8-11.3c2.4-4,4-7.3,7.3-10.5c4.8-6.5,11.3-11.3,19.4-15.4
			l1.6-0.8c0.8,0,0.8-0.8,1.6-0.8l1.6-0.8h0.8l0,0l0,0l1.6-0.8h0.8h0.8c0.8,0,1.6-0.8,3.2-0.8c4-1.6,8.1-1.6,12.1-2.4h0.8h0.8h1.6
			h3.2c1.6,0,4,0,6.5,0h1.6h1.6h0.8h0.8c0.8,0,0.8,0,1.6,0c1.6,0.8,4,0.8,5.7,1.6c8.1,2.4,15.4,6.5,21,11.3c1.6,1.6,3.2,2.4,4.8,4
			c1.6,1.6,2.4,3.2,4,4.8c1.6,1.6,2.4,3.2,3.2,4.8s1.6,3.2,2.4,4.8c-0.8-1.6-2.4-3.2-4-4.8l-4-4c-1.6-1.6-3.2-2.4-4.8-3.2
			c-1.6-1.6-3.2-2.4-4.8-3.2c-6.5-4-12.9-7.3-20.2-8.9c-1.6-0.8-3.2-0.8-5.7-0.8c-0.8,0-0.8,0-1.6,0h-0.8h-1.6h-1.6h-1.6
			c-1.6,0-3.2,0-5.7,0h-2.4h-1.6h-0.8h-0.8h-1.6h-0.8h0.8h-1.6h-0.8h-0.8l-2.4,0.8l-3.2,0.8l-2.4,0.8h-0.8h-0.8l-0.8,0.8l0,0l0,0
			h-0.8l-0.8,0.8c-0.8,0-0.8,0.8-0.8,0.8l-0.8,0.8c-6.5,3.2-12.1,8.1-17,13.7c-4.8,5.7-8.9,11.3-11.3,18.6
			c-1.6,3.2-2.4,7.3-3.2,10.5v1.6v0.8v0.8c0,0.8,0,1.6,0,2.4v2.4c0,0.8,0,1.6,0,2.4c0,4,0,7.3,0.8,11.3
			C1374.5,727.5,1375.4,731.6,1377,734.8L1377,734.8z"/>
	</g>
	<g id="bubble-5">
		<circle class="st0" fill="#946EB5" cx="1431.1" cy="706.5" r="62.2"/>
		<path class="st1" fill="#BF7AB3" d="M1377,734.8c-1.6-3.2-3.2-7.3-4.8-10.5c-0.8-1.6-0.8-4-1.6-5.7s-0.8-4-0.8-5.7c0-0.8,0-0.8,0-1.6v-1.6v-3.2
			v-3.2c0-0.8,0-1.6,0-3.2c0.8-4,0.8-8.1,2.4-12.1c0.8-4,2.4-7.3,4.8-11.3c2.4-4,4-7.3,7.3-10.5c4.8-6.5,11.3-11.3,19.4-15.4
			l1.6-0.8c0.8,0,0.8-0.8,1.6-0.8l1.6-0.8h0.8l0,0l0,0l1.6-0.8h0.8h0.8c0.8,0,1.6-0.8,3.2-0.8c4-1.6,8.1-1.6,12.1-2.4h0.8h0.8h1.6
			h3.2c1.6,0,4,0,6.5,0h1.6h1.6h0.8h0.8c0.8,0,0.8,0,1.6,0c1.6,0.8,4,0.8,5.7,1.6c8.1,2.4,15.4,6.5,21,11.3c1.6,1.6,3.2,2.4,4.8,4
			c1.6,1.6,2.4,3.2,4,4.8c1.6,1.6,2.4,3.2,3.2,4.8s1.6,3.2,2.4,4.8c-0.8-1.6-2.4-3.2-4-4.8l-4-4c-1.6-1.6-3.2-2.4-4.8-3.2
			c-1.6-1.6-3.2-2.4-4.8-3.2c-6.5-4-12.9-7.3-20.2-8.9c-1.6-0.8-3.2-0.8-5.7-0.8c-0.8,0-0.8,0-1.6,0h-0.8h-1.6h-1.6h-1.6
			c-1.6,0-3.2,0-5.7,0h-2.4h-1.6h-0.8h-0.8h-1.6h-0.8h0.8h-1.6h-0.8h-0.8l-2.4,0.8l-3.2,0.8l-2.4,0.8h-0.8h-0.8l-0.8,0.8l0,0l0,0
			h-0.8l-0.8,0.8c-0.8,0-0.8,0.8-0.8,0.8l-0.8,0.8c-6.5,3.2-12.1,8.1-17,13.7c-4.8,5.7-8.9,11.3-11.3,18.6
			c-1.6,3.2-2.4,7.3-3.2,10.5v1.6v0.8v0.8c0,0.8,0,1.6,0,2.4v2.4c0,0.8,0,1.6,0,2.4c0,4,0,7.3,0.8,11.3
			C1374.5,727.5,1375.4,731.6,1377,734.8L1377,734.8z"/>
	</g>
	<g id="bubble-6">
		<circle class="st0" fill="#946EB5" cx="1431.1" cy="706.5" r="62.2"/>
		<path class="st1" fill="#BF7AB3" d="M1377,734.8c-1.6-3.2-3.2-7.3-4.8-10.5c-0.8-1.6-0.8-4-1.6-5.7s-0.8-4-0.8-5.7c0-0.8,0-0.8,0-1.6v-1.6v-3.2
			v-3.2c0-0.8,0-1.6,0-3.2c0.8-4,0.8-8.1,2.4-12.1c0.8-4,2.4-7.3,4.8-11.3c2.4-4,4-7.3,7.3-10.5c4.8-6.5,11.3-11.3,19.4-15.4
			l1.6-0.8c0.8,0,0.8-0.8,1.6-0.8l1.6-0.8h0.8l0,0l0,0l1.6-0.8h0.8h0.8c0.8,0,1.6-0.8,3.2-0.8c4-1.6,8.1-1.6,12.1-2.4h0.8h0.8h1.6
			h3.2c1.6,0,4,0,6.5,0h1.6h1.6h0.8h0.8c0.8,0,0.8,0,1.6,0c1.6,0.8,4,0.8,5.7,1.6c8.1,2.4,15.4,6.5,21,11.3c1.6,1.6,3.2,2.4,4.8,4
			c1.6,1.6,2.4,3.2,4,4.8c1.6,1.6,2.4,3.2,3.2,4.8s1.6,3.2,2.4,4.8c-0.8-1.6-2.4-3.2-4-4.8l-4-4c-1.6-1.6-3.2-2.4-4.8-3.2
			c-1.6-1.6-3.2-2.4-4.8-3.2c-6.5-4-12.9-7.3-20.2-8.9c-1.6-0.8-3.2-0.8-5.7-0.8c-0.8,0-0.8,0-1.6,0h-0.8h-1.6h-1.6h-1.6
			c-1.6,0-3.2,0-5.7,0h-2.4h-1.6h-0.8h-0.8h-1.6h-0.8h0.8h-1.6h-0.8h-0.8l-2.4,0.8l-3.2,0.8l-2.4,0.8h-0.8h-0.8l-0.8,0.8l0,0l0,0
			h-0.8l-0.8,0.8c-0.8,0-0.8,0.8-0.8,0.8l-0.8,0.8c-6.5,3.2-12.1,8.1-17,13.7c-4.8,5.7-8.9,11.3-11.3,18.6
			c-1.6,3.2-2.4,7.3-3.2,10.5v1.6v0.8v0.8c0,0.8,0,1.6,0,2.4v2.4c0,0.8,0,1.6,0,2.4c0,4,0,7.3,0.8,11.3
			C1374.5,727.5,1375.4,731.6,1377,734.8L1377,734.8z"/>
	</g>
	<g id="bubble-7">
		<circle class="st0" fill="#946EB5" cx="1431.1" cy="706.5" r="62.2"/>
		<path class="st1" fill="#BF7AB3" d="M1377,734.8c-1.6-3.2-3.2-7.3-4.8-10.5c-0.8-1.6-0.8-4-1.6-5.7s-0.8-4-0.8-5.7c0-0.8,0-0.8,0-1.6v-1.6v-3.2
			v-3.2c0-0.8,0-1.6,0-3.2c0.8-4,0.8-8.1,2.4-12.1c0.8-4,2.4-7.3,4.8-11.3c2.4-4,4-7.3,7.3-10.5c4.8-6.5,11.3-11.3,19.4-15.4
			l1.6-0.8c0.8,0,0.8-0.8,1.6-0.8l1.6-0.8h0.8l0,0l0,0l1.6-0.8h0.8h0.8c0.8,0,1.6-0.8,3.2-0.8c4-1.6,8.1-1.6,12.1-2.4h0.8h0.8h1.6
			h3.2c1.6,0,4,0,6.5,0h1.6h1.6h0.8h0.8c0.8,0,0.8,0,1.6,0c1.6,0.8,4,0.8,5.7,1.6c8.1,2.4,15.4,6.5,21,11.3c1.6,1.6,3.2,2.4,4.8,4
			c1.6,1.6,2.4,3.2,4,4.8c1.6,1.6,2.4,3.2,3.2,4.8s1.6,3.2,2.4,4.8c-0.8-1.6-2.4-3.2-4-4.8l-4-4c-1.6-1.6-3.2-2.4-4.8-3.2
			c-1.6-1.6-3.2-2.4-4.8-3.2c-6.5-4-12.9-7.3-20.2-8.9c-1.6-0.8-3.2-0.8-5.7-0.8c-0.8,0-0.8,0-1.6,0h-0.8h-1.6h-1.6h-1.6
			c-1.6,0-3.2,0-5.7,0h-2.4h-1.6h-0.8h-0.8h-1.6h-0.8h0.8h-1.6h-0.8h-0.8l-2.4,0.8l-3.2,0.8l-2.4,0.8h-0.8h-0.8l-0.8,0.8l0,0l0,0
			h-0.8l-0.8,0.8c-0.8,0-0.8,0.8-0.8,0.8l-0.8,0.8c-6.5,3.2-12.1,8.1-17,13.7c-4.8,5.7-8.9,11.3-11.3,18.6
			c-1.6,3.2-2.4,7.3-3.2,10.5v1.6v0.8v0.8c0,0.8,0,1.6,0,2.4v2.4c0,0.8,0,1.6,0,2.4c0,4,0,7.3,0.8,11.3
			C1374.5,727.5,1375.4,731.6,1377,734.8L1377,734.8z"/>
	</g>
	<g id="bubble-8">
		<circle class="st0" fill="#946EB5" cx="1431.1" cy="706.5" r="62.2"/>
		<path class="st1" fill="#BF7AB3" d="M1377,734.8c-1.6-3.2-3.2-7.3-4.8-10.5c-0.8-1.6-0.8-4-1.6-5.7s-0.8-4-0.8-5.7c0-0.8,0-0.8,0-1.6v-1.6v-3.2
			v-3.2c0-0.8,0-1.6,0-3.2c0.8-4,0.8-8.1,2.4-12.1c0.8-4,2.4-7.3,4.8-11.3c2.4-4,4-7.3,7.3-10.5c4.8-6.5,11.3-11.3,19.4-15.4
			l1.6-0.8c0.8,0,0.8-0.8,1.6-0.8l1.6-0.8h0.8l0,0l0,0l1.6-0.8h0.8h0.8c0.8,0,1.6-0.8,3.2-0.8c4-1.6,8.1-1.6,12.1-2.4h0.8h0.8h1.6
			h3.2c1.6,0,4,0,6.5,0h1.6h1.6h0.8h0.8c0.8,0,0.8,0,1.6,0c1.6,0.8,4,0.8,5.7,1.6c8.1,2.4,15.4,6.5,21,11.3c1.6,1.6,3.2,2.4,4.8,4
			c1.6,1.6,2.4,3.2,4,4.8c1.6,1.6,2.4,3.2,3.2,4.8s1.6,3.2,2.4,4.8c-0.8-1.6-2.4-3.2-4-4.8l-4-4c-1.6-1.6-3.2-2.4-4.8-3.2
			c-1.6-1.6-3.2-2.4-4.8-3.2c-6.5-4-12.9-7.3-20.2-8.9c-1.6-0.8-3.2-0.8-5.7-0.8c-0.8,0-0.8,0-1.6,0h-0.8h-1.6h-1.6h-1.6
			c-1.6,0-3.2,0-5.7,0h-2.4h-1.6h-0.8h-0.8h-1.6h-0.8h0.8h-1.6h-0.8h-0.8l-2.4,0.8l-3.2,0.8l-2.4,0.8h-0.8h-0.8l-0.8,0.8l0,0l0,0
			h-0.8l-0.8,0.8c-0.8,0-0.8,0.8-0.8,0.8l-0.8,0.8c-6.5,3.2-12.1,8.1-17,13.7c-4.8,5.7-8.9,11.3-11.3,18.6
			c-1.6,3.2-2.4,7.3-3.2,10.5v1.6v0.8v0.8c0,0.8,0,1.6,0,2.4v2.4c0,0.8,0,1.6,0,2.4c0,4,0,7.3,0.8,11.3
			C1374.5,727.5,1375.4,731.6,1377,734.8L1377,734.8z"/>
	</g>
	<g id="bubble-9">
		<circle class="st0" fill="#946EB5" cx="1431.1" cy="706.5" r="62.2"/>
		<path class="st1" fill="#BF7AB3" d="M1377,734.8c-1.6-3.2-3.2-7.3-4.8-10.5c-0.8-1.6-0.8-4-1.6-5.7s-0.8-4-0.8-5.7c0-0.8,0-0.8,0-1.6v-1.6v-3.2
			v-3.2c0-0.8,0-1.6,0-3.2c0.8-4,0.8-8.1,2.4-12.1c0.8-4,2.4-7.3,4.8-11.3c2.4-4,4-7.3,7.3-10.5c4.8-6.5,11.3-11.3,19.4-15.4
			l1.6-0.8c0.8,0,0.8-0.8,1.6-0.8l1.6-0.8h0.8l0,0l0,0l1.6-0.8h0.8h0.8c0.8,0,1.6-0.8,3.2-0.8c4-1.6,8.1-1.6,12.1-2.4h0.8h0.8h1.6
			h3.2c1.6,0,4,0,6.5,0h1.6h1.6h0.8h0.8c0.8,0,0.8,0,1.6,0c1.6,0.8,4,0.8,5.7,1.6c8.1,2.4,15.4,6.5,21,11.3c1.6,1.6,3.2,2.4,4.8,4
			c1.6,1.6,2.4,3.2,4,4.8c1.6,1.6,2.4,3.2,3.2,4.8s1.6,3.2,2.4,4.8c-0.8-1.6-2.4-3.2-4-4.8l-4-4c-1.6-1.6-3.2-2.4-4.8-3.2
			c-1.6-1.6-3.2-2.4-4.8-3.2c-6.5-4-12.9-7.3-20.2-8.9c-1.6-0.8-3.2-0.8-5.7-0.8c-0.8,0-0.8,0-1.6,0h-0.8h-1.6h-1.6h-1.6
			c-1.6,0-3.2,0-5.7,0h-2.4h-1.6h-0.8h-0.8h-1.6h-0.8h0.8h-1.6h-0.8h-0.8l-2.4,0.8l-3.2,0.8l-2.4,0.8h-0.8h-0.8l-0.8,0.8l0,0l0,0
			h-0.8l-0.8,0.8c-0.8,0-0.8,0.8-0.8,0.8l-0.8,0.8c-6.5,3.2-12.1,8.1-17,13.7c-4.8,5.7-8.9,11.3-11.3,18.6
			c-1.6,3.2-2.4,7.3-3.2,10.5v1.6v0.8v0.8c0,0.8,0,1.6,0,2.4v2.4c0,0.8,0,1.6,0,2.4c0,4,0,7.3,0.8,11.3
			C1374.5,727.5,1375.4,731.6,1377,734.8L1377,734.8z"/>
	</g>
	<g id="bubble-10">
		<circle class="st0" fill="#946EB5" cx="1431.1" cy="706.5" r="62.2"/>
		<path class="st1" fill="#BF7AB3" d="M1377,734.8c-1.6-3.2-3.2-7.3-4.8-10.5c-0.8-1.6-0.8-4-1.6-5.7s-0.8-4-0.8-5.7c0-0.8,0-0.8,0-1.6v-1.6v-3.2
			v-3.2c0-0.8,0-1.6,0-3.2c0.8-4,0.8-8.1,2.4-12.1c0.8-4,2.4-7.3,4.8-11.3c2.4-4,4-7.3,7.3-10.5c4.8-6.5,11.3-11.3,19.4-15.4
			l1.6-0.8c0.8,0,0.8-0.8,1.6-0.8l1.6-0.8h0.8l0,0l0,0l1.6-0.8h0.8h0.8c0.8,0,1.6-0.8,3.2-0.8c4-1.6,8.1-1.6,12.1-2.4h0.8h0.8h1.6
			h3.2c1.6,0,4,0,6.5,0h1.6h1.6h0.8h0.8c0.8,0,0.8,0,1.6,0c1.6,0.8,4,0.8,5.7,1.6c8.1,2.4,15.4,6.5,21,11.3c1.6,1.6,3.2,2.4,4.8,4
			c1.6,1.6,2.4,3.2,4,4.8c1.6,1.6,2.4,3.2,3.2,4.8s1.6,3.2,2.4,4.8c-0.8-1.6-2.4-3.2-4-4.8l-4-4c-1.6-1.6-3.2-2.4-4.8-3.2
			c-1.6-1.6-3.2-2.4-4.8-3.2c-6.5-4-12.9-7.3-20.2-8.9c-1.6-0.8-3.2-0.8-5.7-0.8c-0.8,0-0.8,0-1.6,0h-0.8h-1.6h-1.6h-1.6
			c-1.6,0-3.2,0-5.7,0h-2.4h-1.6h-0.8h-0.8h-1.6h-0.8h0.8h-1.6h-0.8h-0.8l-2.4,0.8l-3.2,0.8l-2.4,0.8h-0.8h-0.8l-0.8,0.8l0,0l0,0
			h-0.8l-0.8,0.8c-0.8,0-0.8,0.8-0.8,0.8l-0.8,0.8c-6.5,3.2-12.1,8.1-17,13.7c-4.8,5.7-8.9,11.3-11.3,18.6
			c-1.6,3.2-2.4,7.3-3.2,10.5v1.6v0.8v0.8c0,0.8,0,1.6,0,2.4v2.4c0,0.8,0,1.6,0,2.4c0,4,0,7.3,0.8,11.3
			C1374.5,727.5,1375.4,731.6,1377,734.8L1377,734.8z"/>
	</g>
	<g id="bubble-11">
		<circle class="st0" fill="#946EB5" cx="1431.1" cy="706.5" r="62.2"/>
		<path class="st1" fill="#BF7AB3" d="M1377,734.8c-1.6-3.2-3.2-7.3-4.8-10.5c-0.8-1.6-0.8-4-1.6-5.7s-0.8-4-0.8-5.7c0-0.8,0-0.8,0-1.6v-1.6v-3.2
			v-3.2c0-0.8,0-1.6,0-3.2c0.8-4,0.8-8.1,2.4-12.1c0.8-4,2.4-7.3,4.8-11.3c2.4-4,4-7.3,7.3-10.5c4.8-6.5,11.3-11.3,19.4-15.4
			l1.6-0.8c0.8,0,0.8-0.8,1.6-0.8l1.6-0.8h0.8l0,0l0,0l1.6-0.8h0.8h0.8c0.8,0,1.6-0.8,3.2-0.8c4-1.6,8.1-1.6,12.1-2.4h0.8h0.8h1.6
			h3.2c1.6,0,4,0,6.5,0h1.6h1.6h0.8h0.8c0.8,0,0.8,0,1.6,0c1.6,0.8,4,0.8,5.7,1.6c8.1,2.4,15.4,6.5,21,11.3c1.6,1.6,3.2,2.4,4.8,4
			c1.6,1.6,2.4,3.2,4,4.8c1.6,1.6,2.4,3.2,3.2,4.8s1.6,3.2,2.4,4.8c-0.8-1.6-2.4-3.2-4-4.8l-4-4c-1.6-1.6-3.2-2.4-4.8-3.2
			c-1.6-1.6-3.2-2.4-4.8-3.2c-6.5-4-12.9-7.3-20.2-8.9c-1.6-0.8-3.2-0.8-5.7-0.8c-0.8,0-0.8,0-1.6,0h-0.8h-1.6h-1.6h-1.6
			c-1.6,0-3.2,0-5.7,0h-2.4h-1.6h-0.8h-0.8h-1.6h-0.8h0.8h-1.6h-0.8h-0.8l-2.4,0.8l-3.2,0.8l-2.4,0.8h-0.8h-0.8l-0.8,0.8l0,0l0,0
			h-0.8l-0.8,0.8c-0.8,0-0.8,0.8-0.8,0.8l-0.8,0.8c-6.5,3.2-12.1,8.1-17,13.7c-4.8,5.7-8.9,11.3-11.3,18.6
			c-1.6,3.2-2.4,7.3-3.2,10.5v1.6v0.8v0.8c0,0.8,0,1.6,0,2.4v2.4c0,0.8,0,1.6,0,2.4c0,4,0,7.3,0.8,11.3
			C1374.5,727.5,1375.4,731.6,1377,734.8L1377,734.8z"/>
	</g>
	<g id="bubble-12">
		<circle class="st0" fill="#946EB5" cx="1431.1" cy="706.5" r="62.2"/>
		<path class="st1" fill="#BF7AB3" d="M1377,734.8c-1.6-3.2-3.2-7.3-4.8-10.5c-0.8-1.6-0.8-4-1.6-5.7s-0.8-4-0.8-5.7c0-0.8,0-0.8,0-1.6v-1.6v-3.2
			v-3.2c0-0.8,0-1.6,0-3.2c0.8-4,0.8-8.1,2.4-12.1c0.8-4,2.4-7.3,4.8-11.3c2.4-4,4-7.3,7.3-10.5c4.8-6.5,11.3-11.3,19.4-15.4
			l1.6-0.8c0.8,0,0.8-0.8,1.6-0.8l1.6-0.8h0.8l0,0l0,0l1.6-0.8h0.8h0.8c0.8,0,1.6-0.8,3.2-0.8c4-1.6,8.1-1.6,12.1-2.4h0.8h0.8h1.6
			h3.2c1.6,0,4,0,6.5,0h1.6h1.6h0.8h0.8c0.8,0,0.8,0,1.6,0c1.6,0.8,4,0.8,5.7,1.6c8.1,2.4,15.4,6.5,21,11.3c1.6,1.6,3.2,2.4,4.8,4
			c1.6,1.6,2.4,3.2,4,4.8c1.6,1.6,2.4,3.2,3.2,4.8s1.6,3.2,2.4,4.8c-0.8-1.6-2.4-3.2-4-4.8l-4-4c-1.6-1.6-3.2-2.4-4.8-3.2
			c-1.6-1.6-3.2-2.4-4.8-3.2c-6.5-4-12.9-7.3-20.2-8.9c-1.6-0.8-3.2-0.8-5.7-0.8c-0.8,0-0.8,0-1.6,0h-0.8h-1.6h-1.6h-1.6
			c-1.6,0-3.2,0-5.7,0h-2.4h-1.6h-0.8h-0.8h-1.6h-0.8h0.8h-1.6h-0.8h-0.8l-2.4,0.8l-3.2,0.8l-2.4,0.8h-0.8h-0.8l-0.8,0.8l0,0l0,0
			h-0.8l-0.8,0.8c-0.8,0-0.8,0.8-0.8,0.8l-0.8,0.8c-6.5,3.2-12.1,8.1-17,13.7c-4.8,5.7-8.9,11.3-11.3,18.6
			c-1.6,3.2-2.4,7.3-3.2,10.5v1.6v0.8v0.8c0,0.8,0,1.6,0,2.4v2.4c0,0.8,0,1.6,0,2.4c0,4,0,7.3,0.8,11.3
			C1374.5,727.5,1375.4,731.6,1377,734.8L1377,734.8z"/>
	</g>
	<g id="bubble-13">
		<circle class="st0" fill="#946EB5" cx="1431.1" cy="706.5" r="62.2"/>
		<path class="st1" fill="#BF7AB3" d="M1377,734.8c-1.6-3.2-3.2-7.3-4.8-10.5c-0.8-1.6-0.8-4-1.6-5.7s-0.8-4-0.8-5.7c0-0.8,0-0.8,0-1.6v-1.6v-3.2
			v-3.2c0-0.8,0-1.6,0-3.2c0.8-4,0.8-8.1,2.4-12.1c0.8-4,2.4-7.3,4.8-11.3c2.4-4,4-7.3,7.3-10.5c4.8-6.5,11.3-11.3,19.4-15.4
			l1.6-0.8c0.8,0,0.8-0.8,1.6-0.8l1.6-0.8h0.8l0,0l0,0l1.6-0.8h0.8h0.8c0.8,0,1.6-0.8,3.2-0.8c4-1.6,8.1-1.6,12.1-2.4h0.8h0.8h1.6
			h3.2c1.6,0,4,0,6.5,0h1.6h1.6h0.8h0.8c0.8,0,0.8,0,1.6,0c1.6,0.8,4,0.8,5.7,1.6c8.1,2.4,15.4,6.5,21,11.3c1.6,1.6,3.2,2.4,4.8,4
			c1.6,1.6,2.4,3.2,4,4.8c1.6,1.6,2.4,3.2,3.2,4.8s1.6,3.2,2.4,4.8c-0.8-1.6-2.4-3.2-4-4.8l-4-4c-1.6-1.6-3.2-2.4-4.8-3.2
			c-1.6-1.6-3.2-2.4-4.8-3.2c-6.5-4-12.9-7.3-20.2-8.9c-1.6-0.8-3.2-0.8-5.7-0.8c-0.8,0-0.8,0-1.6,0h-0.8h-1.6h-1.6h-1.6
			c-1.6,0-3.2,0-5.7,0h-2.4h-1.6h-0.8h-0.8h-1.6h-0.8h0.8h-1.6h-0.8h-0.8l-2.4,0.8l-3.2,0.8l-2.4,0.8h-0.8h-0.8l-0.8,0.8l0,0l0,0
			h-0.8l-0.8,0.8c-0.8,0-0.8,0.8-0.8,0.8l-0.8,0.8c-6.5,3.2-12.1,8.1-17,13.7c-4.8,5.7-8.9,11.3-11.3,18.6
			c-1.6,3.2-2.4,7.3-3.2,10.5v1.6v0.8v0.8c0,0.8,0,1.6,0,2.4v2.4c0,0.8,0,1.6,0,2.4c0,4,0,7.3,0.8,11.3
			C1374.5,727.5,1375.4,731.6,1377,734.8L1377,734.8z"/>
	</g>
	<g id="bubble-14">
		<circle class="st0" fill="#946EB5" cx="1431.1" cy="706.5" r="62.2"/>
		<path class="st1" fill="#BF7AB3" d="M1377,734.8c-1.6-3.2-3.2-7.3-4.8-10.5c-0.8-1.6-0.8-4-1.6-5.7s-0.8-4-0.8-5.7c0-0.8,0-0.8,0-1.6v-1.6v-3.2
			v-3.2c0-0.8,0-1.6,0-3.2c0.8-4,0.8-8.1,2.4-12.1c0.8-4,2.4-7.3,4.8-11.3c2.4-4,4-7.3,7.3-10.5c4.8-6.5,11.3-11.3,19.4-15.4
			l1.6-0.8c0.8,0,0.8-0.8,1.6-0.8l1.6-0.8h0.8l0,0l0,0l1.6-0.8h0.8h0.8c0.8,0,1.6-0.8,3.2-0.8c4-1.6,8.1-1.6,12.1-2.4h0.8h0.8h1.6
			h3.2c1.6,0,4,0,6.5,0h1.6h1.6h0.8h0.8c0.8,0,0.8,0,1.6,0c1.6,0.8,4,0.8,5.7,1.6c8.1,2.4,15.4,6.5,21,11.3c1.6,1.6,3.2,2.4,4.8,4
			c1.6,1.6,2.4,3.2,4,4.8c1.6,1.6,2.4,3.2,3.2,4.8s1.6,3.2,2.4,4.8c-0.8-1.6-2.4-3.2-4-4.8l-4-4c-1.6-1.6-3.2-2.4-4.8-3.2
			c-1.6-1.6-3.2-2.4-4.8-3.2c-6.5-4-12.9-7.3-20.2-8.9c-1.6-0.8-3.2-0.8-5.7-0.8c-0.8,0-0.8,0-1.6,0h-0.8h-1.6h-1.6h-1.6
			c-1.6,0-3.2,0-5.7,0h-2.4h-1.6h-0.8h-0.8h-1.6h-0.8h0.8h-1.6h-0.8h-0.8l-2.4,0.8l-3.2,0.8l-2.4,0.8h-0.8h-0.8l-0.8,0.8l0,0l0,0
			h-0.8l-0.8,0.8c-0.8,0-0.8,0.8-0.8,0.8l-0.8,0.8c-6.5,3.2-12.1,8.1-17,13.7c-4.8,5.7-8.9,11.3-11.3,18.6
			c-1.6,3.2-2.4,7.3-3.2,10.5v1.6v0.8v0.8c0,0.8,0,1.6,0,2.4v2.4c0,0.8,0,1.6,0,2.4c0,4,0,7.3,0.8,11.3
			C1374.5,727.5,1375.4,731.6,1377,734.8L1377,734.8z"/>
	</g>
	<g id="bubble-15">
		<circle class="st0" fill="#946EB5" cx="1431.1" cy="706.5" r="62.2"/>
		<path class="st1" fill="#BF7AB3" d="M1377,734.8c-1.6-3.2-3.2-7.3-4.8-10.5c-0.8-1.6-0.8-4-1.6-5.7s-0.8-4-0.8-5.7c0-0.8,0-0.8,0-1.6v-1.6v-3.2
			v-3.2c0-0.8,0-1.6,0-3.2c0.8-4,0.8-8.1,2.4-12.1c0.8-4,2.4-7.3,4.8-11.3c2.4-4,4-7.3,7.3-10.5c4.8-6.5,11.3-11.3,19.4-15.4
			l1.6-0.8c0.8,0,0.8-0.8,1.6-0.8l1.6-0.8h0.8l0,0l0,0l1.6-0.8h0.8h0.8c0.8,0,1.6-0.8,3.2-0.8c4-1.6,8.1-1.6,12.1-2.4h0.8h0.8h1.6
			h3.2c1.6,0,4,0,6.5,0h1.6h1.6h0.8h0.8c0.8,0,0.8,0,1.6,0c1.6,0.8,4,0.8,5.7,1.6c8.1,2.4,15.4,6.5,21,11.3c1.6,1.6,3.2,2.4,4.8,4
			c1.6,1.6,2.4,3.2,4,4.8c1.6,1.6,2.4,3.2,3.2,4.8s1.6,3.2,2.4,4.8c-0.8-1.6-2.4-3.2-4-4.8l-4-4c-1.6-1.6-3.2-2.4-4.8-3.2
			c-1.6-1.6-3.2-2.4-4.8-3.2c-6.5-4-12.9-7.3-20.2-8.9c-1.6-0.8-3.2-0.8-5.7-0.8c-0.8,0-0.8,0-1.6,0h-0.8h-1.6h-1.6h-1.6
			c-1.6,0-3.2,0-5.7,0h-2.4h-1.6h-0.8h-0.8h-1.6h-0.8h0.8h-1.6h-0.8h-0.8l-2.4,0.8l-3.2,0.8l-2.4,0.8h-0.8h-0.8l-0.8,0.8l0,0l0,0
			h-0.8l-0.8,0.8c-0.8,0-0.8,0.8-0.8,0.8l-0.8,0.8c-6.5,3.2-12.1,8.1-17,13.7c-4.8,5.7-8.9,11.3-11.3,18.6
			c-1.6,3.2-2.4,7.3-3.2,10.5v1.6v0.8v0.8c0,0.8,0,1.6,0,2.4v2.4c0,0.8,0,1.6,0,2.4c0,4,0,7.3,0.8,11.3
			C1374.5,727.5,1375.4,731.6,1377,734.8L1377,734.8z"/>
	</g>
	<g id="bubble-16">
		<circle class="st0" fill="#946EB5" cx="1431.1" cy="706.5" r="62.2"/>
		<path class="st1" fill="#BF7AB3" d="M1377,734.8c-1.6-3.2-3.2-7.3-4.8-10.5c-0.8-1.6-0.8-4-1.6-5.7s-0.8-4-0.8-5.7c0-0.8,0-0.8,0-1.6v-1.6v-3.2
			v-3.2c0-0.8,0-1.6,0-3.2c0.8-4,0.8-8.1,2.4-12.1c0.8-4,2.4-7.3,4.8-11.3c2.4-4,4-7.3,7.3-10.5c4.8-6.5,11.3-11.3,19.4-15.4
			l1.6-0.8c0.8,0,0.8-0.8,1.6-0.8l1.6-0.8h0.8l0,0l0,0l1.6-0.8h0.8h0.8c0.8,0,1.6-0.8,3.2-0.8c4-1.6,8.1-1.6,12.1-2.4h0.8h0.8h1.6
			h3.2c1.6,0,4,0,6.5,0h1.6h1.6h0.8h0.8c0.8,0,0.8,0,1.6,0c1.6,0.8,4,0.8,5.7,1.6c8.1,2.4,15.4,6.5,21,11.3c1.6,1.6,3.2,2.4,4.8,4
			c1.6,1.6,2.4,3.2,4,4.8c1.6,1.6,2.4,3.2,3.2,4.8s1.6,3.2,2.4,4.8c-0.8-1.6-2.4-3.2-4-4.8l-4-4c-1.6-1.6-3.2-2.4-4.8-3.2
			c-1.6-1.6-3.2-2.4-4.8-3.2c-6.5-4-12.9-7.3-20.2-8.9c-1.6-0.8-3.2-0.8-5.7-0.8c-0.8,0-0.8,0-1.6,0h-0.8h-1.6h-1.6h-1.6
			c-1.6,0-3.2,0-5.7,0h-2.4h-1.6h-0.8h-0.8h-1.6h-0.8h0.8h-1.6h-0.8h-0.8l-2.4,0.8l-3.2,0.8l-2.4,0.8h-0.8h-0.8l-0.8,0.8l0,0l0,0
			h-0.8l-0.8,0.8c-0.8,0-0.8,0.8-0.8,0.8l-0.8,0.8c-6.5,3.2-12.1,8.1-17,13.7c-4.8,5.7-8.9,11.3-11.3,18.6
			c-1.6,3.2-2.4,7.3-3.2,10.5v1.6v0.8v0.8c0,0.8,0,1.6,0,2.4v2.4c0,0.8,0,1.6,0,2.4c0,4,0,7.3,0.8,11.3
			C1374.5,727.5,1375.4,731.6,1377,734.8L1377,734.8z"/>
	</g>
	<g id="bubble-17">
		<circle class="st0" fill="#946EB5" cx="1431.1" cy="706.5" r="62.2"/>
		<path class="st1" fill="#BF7AB3" d="M1377,734.8c-1.6-3.2-3.2-7.3-4.8-10.5c-0.8-1.6-0.8-4-1.6-5.7s-0.8-4-0.8-5.7c0-0.8,0-0.8,0-1.6v-1.6v-3.2
			v-3.2c0-0.8,0-1.6,0-3.2c0.8-4,0.8-8.1,2.4-12.1c0.8-4,2.4-7.3,4.8-11.3c2.4-4,4-7.3,7.3-10.5c4.8-6.5,11.3-11.3,19.4-15.4
			l1.6-0.8c0.8,0,0.8-0.8,1.6-0.8l1.6-0.8h0.8l0,0l0,0l1.6-0.8h0.8h0.8c0.8,0,1.6-0.8,3.2-0.8c4-1.6,8.1-1.6,12.1-2.4h0.8h0.8h1.6
			h3.2c1.6,0,4,0,6.5,0h1.6h1.6h0.8h0.8c0.8,0,0.8,0,1.6,0c1.6,0.8,4,0.8,5.7,1.6c8.1,2.4,15.4,6.5,21,11.3c1.6,1.6,3.2,2.4,4.8,4
			c1.6,1.6,2.4,3.2,4,4.8c1.6,1.6,2.4,3.2,3.2,4.8s1.6,3.2,2.4,4.8c-0.8-1.6-2.4-3.2-4-4.8l-4-4c-1.6-1.6-3.2-2.4-4.8-3.2
			c-1.6-1.6-3.2-2.4-4.8-3.2c-6.5-4-12.9-7.3-20.2-8.9c-1.6-0.8-3.2-0.8-5.7-0.8c-0.8,0-0.8,0-1.6,0h-0.8h-1.6h-1.6h-1.6
			c-1.6,0-3.2,0-5.7,0h-2.4h-1.6h-0.8h-0.8h-1.6h-0.8h0.8h-1.6h-0.8h-0.8l-2.4,0.8l-3.2,0.8l-2.4,0.8h-0.8h-0.8l-0.8,0.8l0,0l0,0
			h-0.8l-0.8,0.8c-0.8,0-0.8,0.8-0.8,0.8l-0.8,0.8c-6.5,3.2-12.1,8.1-17,13.7c-4.8,5.7-8.9,11.3-11.3,18.6
			c-1.6,3.2-2.4,7.3-3.2,10.5v1.6v0.8v0.8c0,0.8,0,1.6,0,2.4v2.4c0,0.8,0,1.6,0,2.4c0,4,0,7.3,0.8,11.3
			C1374.5,727.5,1375.4,731.6,1377,734.8L1377,734.8z"/>
	</g>
	<g id="bubble-18">
		<circle class="st0" fill="#946EB5" cx="1431.1" cy="706.5" r="62.2"/>
		<path class="st1" fill="#BF7AB3" d="M1377,734.8c-1.6-3.2-3.2-7.3-4.8-10.5c-0.8-1.6-0.8-4-1.6-5.7s-0.8-4-0.8-5.7c0-0.8,0-0.8,0-1.6v-1.6v-3.2
			v-3.2c0-0.8,0-1.6,0-3.2c0.8-4,0.8-8.1,2.4-12.1c0.8-4,2.4-7.3,4.8-11.3c2.4-4,4-7.3,7.3-10.5c4.8-6.5,11.3-11.3,19.4-15.4
			l1.6-0.8c0.8,0,0.8-0.8,1.6-0.8l1.6-0.8h0.8l0,0l0,0l1.6-0.8h0.8h0.8c0.8,0,1.6-0.8,3.2-0.8c4-1.6,8.1-1.6,12.1-2.4h0.8h0.8h1.6
			h3.2c1.6,0,4,0,6.5,0h1.6h1.6h0.8h0.8c0.8,0,0.8,0,1.6,0c1.6,0.8,4,0.8,5.7,1.6c8.1,2.4,15.4,6.5,21,11.3c1.6,1.6,3.2,2.4,4.8,4
			c1.6,1.6,2.4,3.2,4,4.8c1.6,1.6,2.4,3.2,3.2,4.8s1.6,3.2,2.4,4.8c-0.8-1.6-2.4-3.2-4-4.8l-4-4c-1.6-1.6-3.2-2.4-4.8-3.2
			c-1.6-1.6-3.2-2.4-4.8-3.2c-6.5-4-12.9-7.3-20.2-8.9c-1.6-0.8-3.2-0.8-5.7-0.8c-0.8,0-0.8,0-1.6,0h-0.8h-1.6h-1.6h-1.6
			c-1.6,0-3.2,0-5.7,0h-2.4h-1.6h-0.8h-0.8h-1.6h-0.8h0.8h-1.6h-0.8h-0.8l-2.4,0.8l-3.2,0.8l-2.4,0.8h-0.8h-0.8l-0.8,0.8l0,0l0,0
			h-0.8l-0.8,0.8c-0.8,0-0.8,0.8-0.8,0.8l-0.8,0.8c-6.5,3.2-12.1,8.1-17,13.7c-4.8,5.7-8.9,11.3-11.3,18.6
			c-1.6,3.2-2.4,7.3-3.2,10.5v1.6v0.8v0.8c0,0.8,0,1.6,0,2.4v2.4c0,0.8,0,1.6,0,2.4c0,4,0,7.3,0.8,11.3
			C1374.5,727.5,1375.4,731.6,1377,734.8L1377,734.8z"/>
	</g>
	<g id="bubble-19">
		<circle class="st0" fill="#946EB5" cx="1431.1" cy="706.5" r="62.2"/>
		<path class="st1" fill="#BF7AB3" d="M1377,734.8c-1.6-3.2-3.2-7.3-4.8-10.5c-0.8-1.6-0.8-4-1.6-5.7s-0.8-4-0.8-5.7c0-0.8,0-0.8,0-1.6v-1.6v-3.2
			v-3.2c0-0.8,0-1.6,0-3.2c0.8-4,0.8-8.1,2.4-12.1c0.8-4,2.4-7.3,4.8-11.3c2.4-4,4-7.3,7.3-10.5c4.8-6.5,11.3-11.3,19.4-15.4
			l1.6-0.8c0.8,0,0.8-0.8,1.6-0.8l1.6-0.8h0.8l0,0l0,0l1.6-0.8h0.8h0.8c0.8,0,1.6-0.8,3.2-0.8c4-1.6,8.1-1.6,12.1-2.4h0.8h0.8h1.6
			h3.2c1.6,0,4,0,6.5,0h1.6h1.6h0.8h0.8c0.8,0,0.8,0,1.6,0c1.6,0.8,4,0.8,5.7,1.6c8.1,2.4,15.4,6.5,21,11.3c1.6,1.6,3.2,2.4,4.8,4
			c1.6,1.6,2.4,3.2,4,4.8c1.6,1.6,2.4,3.2,3.2,4.8s1.6,3.2,2.4,4.8c-0.8-1.6-2.4-3.2-4-4.8l-4-4c-1.6-1.6-3.2-2.4-4.8-3.2
			c-1.6-1.6-3.2-2.4-4.8-3.2c-6.5-4-12.9-7.3-20.2-8.9c-1.6-0.8-3.2-0.8-5.7-0.8c-0.8,0-0.8,0-1.6,0h-0.8h-1.6h-1.6h-1.6
			c-1.6,0-3.2,0-5.7,0h-2.4h-1.6h-0.8h-0.8h-1.6h-0.8h0.8h-1.6h-0.8h-0.8l-2.4,0.8l-3.2,0.8l-2.4,0.8h-0.8h-0.8l-0.8,0.8l0,0l0,0
			h-0.8l-0.8,0.8c-0.8,0-0.8,0.8-0.8,0.8l-0.8,0.8c-6.5,3.2-12.1,8.1-17,13.7c-4.8,5.7-8.9,11.3-11.3,18.6
			c-1.6,3.2-2.4,7.3-3.2,10.5v1.6v0.8v0.8c0,0.8,0,1.6,0,2.4v2.4c0,0.8,0,1.6,0,2.4c0,4,0,7.3,0.8,11.3
			C1374.5,727.5,1375.4,731.6,1377,734.8L1377,734.8z"/>
	</g>
	<g id="bubble-20">
		<circle class="st0" fill="#946EB5" cx="1431.1" cy="706.5" r="62.2"/>
		<path class="st1" fill="#BF7AB3" d="M1377,734.8c-1.6-3.2-3.2-7.3-4.8-10.5c-0.8-1.6-0.8-4-1.6-5.7s-0.8-4-0.8-5.7c0-0.8,0-0.8,0-1.6v-1.6v-3.2
			v-3.2c0-0.8,0-1.6,0-3.2c0.8-4,0.8-8.1,2.4-12.1c0.8-4,2.4-7.3,4.8-11.3c2.4-4,4-7.3,7.3-10.5c4.8-6.5,11.3-11.3,19.4-15.4
			l1.6-0.8c0.8,0,0.8-0.8,1.6-0.8l1.6-0.8h0.8l0,0l0,0l1.6-0.8h0.8h0.8c0.8,0,1.6-0.8,3.2-0.8c4-1.6,8.1-1.6,12.1-2.4h0.8h0.8h1.6
			h3.2c1.6,0,4,0,6.5,0h1.6h1.6h0.8h0.8c0.8,0,0.8,0,1.6,0c1.6,0.8,4,0.8,5.7,1.6c8.1,2.4,15.4,6.5,21,11.3c1.6,1.6,3.2,2.4,4.8,4
			c1.6,1.6,2.4,3.2,4,4.8c1.6,1.6,2.4,3.2,3.2,4.8s1.6,3.2,2.4,4.8c-0.8-1.6-2.4-3.2-4-4.8l-4-4c-1.6-1.6-3.2-2.4-4.8-3.2
			c-1.6-1.6-3.2-2.4-4.8-3.2c-6.5-4-12.9-7.3-20.2-8.9c-1.6-0.8-3.2-0.8-5.7-0.8c-0.8,0-0.8,0-1.6,0h-0.8h-1.6h-1.6h-1.6
			c-1.6,0-3.2,0-5.7,0h-2.4h-1.6h-0.8h-0.8h-1.6h-0.8h0.8h-1.6h-0.8h-0.8l-2.4,0.8l-3.2,0.8l-2.4,0.8h-0.8h-0.8l-0.8,0.8l0,0l0,0
			h-0.8l-0.8,0.8c-0.8,0-0.8,0.8-0.8,0.8l-0.8,0.8c-6.5,3.2-12.1,8.1-17,13.7c-4.8,5.7-8.9,11.3-11.3,18.6
			c-1.6,3.2-2.4,7.3-3.2,10.5v1.6v0.8v0.8c0,0.8,0,1.6,0,2.4v2.4c0,0.8,0,1.6,0,2.4c0,4,0,7.3,0.8,11.3
			C1374.5,727.5,1375.4,731.6,1377,734.8L1377,734.8z"/>
	</g>
	<g id="bubble-21">
		<circle class="st0" fill="#946EB5" cx="1431.1" cy="706.5" r="62.2"/>
		<path class="st1" fill="#BF7AB3" d="M1377,734.8c-1.6-3.2-3.2-7.3-4.8-10.5c-0.8-1.6-0.8-4-1.6-5.7s-0.8-4-0.8-5.7c0-0.8,0-0.8,0-1.6v-1.6v-3.2
			v-3.2c0-0.8,0-1.6,0-3.2c0.8-4,0.8-8.1,2.4-12.1c0.8-4,2.4-7.3,4.8-11.3c2.4-4,4-7.3,7.3-10.5c4.8-6.5,11.3-11.3,19.4-15.4
			l1.6-0.8c0.8,0,0.8-0.8,1.6-0.8l1.6-0.8h0.8l0,0l0,0l1.6-0.8h0.8h0.8c0.8,0,1.6-0.8,3.2-0.8c4-1.6,8.1-1.6,12.1-2.4h0.8h0.8h1.6
			h3.2c1.6,0,4,0,6.5,0h1.6h1.6h0.8h0.8c0.8,0,0.8,0,1.6,0c1.6,0.8,4,0.8,5.7,1.6c8.1,2.4,15.4,6.5,21,11.3c1.6,1.6,3.2,2.4,4.8,4
			c1.6,1.6,2.4,3.2,4,4.8c1.6,1.6,2.4,3.2,3.2,4.8s1.6,3.2,2.4,4.8c-0.8-1.6-2.4-3.2-4-4.8l-4-4c-1.6-1.6-3.2-2.4-4.8-3.2
			c-1.6-1.6-3.2-2.4-4.8-3.2c-6.5-4-12.9-7.3-20.2-8.9c-1.6-0.8-3.2-0.8-5.7-0.8c-0.8,0-0.8,0-1.6,0h-0.8h-1.6h-1.6h-1.6
			c-1.6,0-3.2,0-5.7,0h-2.4h-1.6h-0.8h-0.8h-1.6h-0.8h0.8h-1.6h-0.8h-0.8l-2.4,0.8l-3.2,0.8l-2.4,0.8h-0.8h-0.8l-0.8,0.8l0,0l0,0
			h-0.8l-0.8,0.8c-0.8,0-0.8,0.8-0.8,0.8l-0.8,0.8c-6.5,3.2-12.1,8.1-17,13.7c-4.8,5.7-8.9,11.3-11.3,18.6
			c-1.6,3.2-2.4,7.3-3.2,10.5v1.6v0.8v0.8c0,0.8,0,1.6,0,2.4v2.4c0,0.8,0,1.6,0,2.4c0,4,0,7.3,0.8,11.3
			C1374.5,727.5,1375.4,731.6,1377,734.8L1377,734.8z"/>
	</g>
	<g id="bubble-22">
		<circle class="st0" fill="#946EB5" cx="1431.1" cy="706.5" r="62.2"/>
		<path class="st1" fill="#BF7AB3" d="M1377,734.8c-1.6-3.2-3.2-7.3-4.8-10.5c-0.8-1.6-0.8-4-1.6-5.7s-0.8-4-0.8-5.7c0-0.8,0-0.8,0-1.6v-1.6v-3.2
			v-3.2c0-0.8,0-1.6,0-3.2c0.8-4,0.8-8.1,2.4-12.1c0.8-4,2.4-7.3,4.8-11.3c2.4-4,4-7.3,7.3-10.5c4.8-6.5,11.3-11.3,19.4-15.4
			l1.6-0.8c0.8,0,0.8-0.8,1.6-0.8l1.6-0.8h0.8l0,0l0,0l1.6-0.8h0.8h0.8c0.8,0,1.6-0.8,3.2-0.8c4-1.6,8.1-1.6,12.1-2.4h0.8h0.8h1.6
			h3.2c1.6,0,4,0,6.5,0h1.6h1.6h0.8h0.8c0.8,0,0.8,0,1.6,0c1.6,0.8,4,0.8,5.7,1.6c8.1,2.4,15.4,6.5,21,11.3c1.6,1.6,3.2,2.4,4.8,4
			c1.6,1.6,2.4,3.2,4,4.8c1.6,1.6,2.4,3.2,3.2,4.8s1.6,3.2,2.4,4.8c-0.8-1.6-2.4-3.2-4-4.8l-4-4c-1.6-1.6-3.2-2.4-4.8-3.2
			c-1.6-1.6-3.2-2.4-4.8-3.2c-6.5-4-12.9-7.3-20.2-8.9c-1.6-0.8-3.2-0.8-5.7-0.8c-0.8,0-0.8,0-1.6,0h-0.8h-1.6h-1.6h-1.6
			c-1.6,0-3.2,0-5.7,0h-2.4h-1.6h-0.8h-0.8h-1.6h-0.8h0.8h-1.6h-0.8h-0.8l-2.4,0.8l-3.2,0.8l-2.4,0.8h-0.8h-0.8l-0.8,0.8l0,0l0,0
			h-0.8l-0.8,0.8c-0.8,0-0.8,0.8-0.8,0.8l-0.8,0.8c-6.5,3.2-12.1,8.1-17,13.7c-4.8,5.7-8.9,11.3-11.3,18.6
			c-1.6,3.2-2.4,7.3-3.2,10.5v1.6v0.8v0.8c0,0.8,0,1.6,0,2.4v2.4c0,0.8,0,1.6,0,2.4c0,4,0,7.3,0.8,11.3
			C1374.5,727.5,1375.4,731.6,1377,734.8L1377,734.8z"/>
	</g>
	<g id="bubble-23">
		<circle class="st0" fill="#946EB5" cx="1431.1" cy="706.5" r="62.2"/>
		<path class="st1" fill="#BF7AB3" d="M1377,734.8c-1.6-3.2-3.2-7.3-4.8-10.5c-0.8-1.6-0.8-4-1.6-5.7s-0.8-4-0.8-5.7c0-0.8,0-0.8,0-1.6v-1.6v-3.2
			v-3.2c0-0.8,0-1.6,0-3.2c0.8-4,0.8-8.1,2.4-12.1c0.8-4,2.4-7.3,4.8-11.3c2.4-4,4-7.3,7.3-10.5c4.8-6.5,11.3-11.3,19.4-15.4
			l1.6-0.8c0.8,0,0.8-0.8,1.6-0.8l1.6-0.8h0.8l0,0l0,0l1.6-0.8h0.8h0.8c0.8,0,1.6-0.8,3.2-0.8c4-1.6,8.1-1.6,12.1-2.4h0.8h0.8h1.6
			h3.2c1.6,0,4,0,6.5,0h1.6h1.6h0.8h0.8c0.8,0,0.8,0,1.6,0c1.6,0.8,4,0.8,5.7,1.6c8.1,2.4,15.4,6.5,21,11.3c1.6,1.6,3.2,2.4,4.8,4
			c1.6,1.6,2.4,3.2,4,4.8c1.6,1.6,2.4,3.2,3.2,4.8s1.6,3.2,2.4,4.8c-0.8-1.6-2.4-3.2-4-4.8l-4-4c-1.6-1.6-3.2-2.4-4.8-3.2
			c-1.6-1.6-3.2-2.4-4.8-3.2c-6.5-4-12.9-7.3-20.2-8.9c-1.6-0.8-3.2-0.8-5.7-0.8c-0.8,0-0.8,0-1.6,0h-0.8h-1.6h-1.6h-1.6
			c-1.6,0-3.2,0-5.7,0h-2.4h-1.6h-0.8h-0.8h-1.6h-0.8h0.8h-1.6h-0.8h-0.8l-2.4,0.8l-3.2,0.8l-2.4,0.8h-0.8h-0.8l-0.8,0.8l0,0l0,0
			h-0.8l-0.8,0.8c-0.8,0-0.8,0.8-0.8,0.8l-0.8,0.8c-6.5,3.2-12.1,8.1-17,13.7c-4.8,5.7-8.9,11.3-11.3,18.6
			c-1.6,3.2-2.4,7.3-3.2,10.5v1.6v0.8v0.8c0,0.8,0,1.6,0,2.4v2.4c0,0.8,0,1.6,0,2.4c0,4,0,7.3,0.8,11.3
			C1374.5,727.5,1375.4,731.6,1377,734.8L1377,734.8z"/>
	</g>
	<g id="bubble-24">
		<circle class="st0" fill="#946EB5" cx="1431.1" cy="706.5" r="62.2"/>
		<path class="st1" fill="#BF7AB3" d="M1377,734.8c-1.6-3.2-3.2-7.3-4.8-10.5c-0.8-1.6-0.8-4-1.6-5.7s-0.8-4-0.8-5.7c0-0.8,0-0.8,0-1.6v-1.6v-3.2
			v-3.2c0-0.8,0-1.6,0-3.2c0.8-4,0.8-8.1,2.4-12.1c0.8-4,2.4-7.3,4.8-11.3c2.4-4,4-7.3,7.3-10.5c4.8-6.5,11.3-11.3,19.4-15.4
			l1.6-0.8c0.8,0,0.8-0.8,1.6-0.8l1.6-0.8h0.8l0,0l0,0l1.6-0.8h0.8h0.8c0.8,0,1.6-0.8,3.2-0.8c4-1.6,8.1-1.6,12.1-2.4h0.8h0.8h1.6
			h3.2c1.6,0,4,0,6.5,0h1.6h1.6h0.8h0.8c0.8,0,0.8,0,1.6,0c1.6,0.8,4,0.8,5.7,1.6c8.1,2.4,15.4,6.5,21,11.3c1.6,1.6,3.2,2.4,4.8,4
			c1.6,1.6,2.4,3.2,4,4.8c1.6,1.6,2.4,3.2,3.2,4.8s1.6,3.2,2.4,4.8c-0.8-1.6-2.4-3.2-4-4.8l-4-4c-1.6-1.6-3.2-2.4-4.8-3.2
			c-1.6-1.6-3.2-2.4-4.8-3.2c-6.5-4-12.9-7.3-20.2-8.9c-1.6-0.8-3.2-0.8-5.7-0.8c-0.8,0-0.8,0-1.6,0h-0.8h-1.6h-1.6h-1.6
			c-1.6,0-3.2,0-5.7,0h-2.4h-1.6h-0.8h-0.8h-1.6h-0.8h0.8h-1.6h-0.8h-0.8l-2.4,0.8l-3.2,0.8l-2.4,0.8h-0.8h-0.8l-0.8,0.8l0,0l0,0
			h-0.8l-0.8,0.8c-0.8,0-0.8,0.8-0.8,0.8l-0.8,0.8c-6.5,3.2-12.1,8.1-17,13.7c-4.8,5.7-8.9,11.3-11.3,18.6
			c-1.6,3.2-2.4,7.3-3.2,10.5v1.6v0.8v0.8c0,0.8,0,1.6,0,2.4v2.4c0,0.8,0,1.6,0,2.4c0,4,0,7.3,0.8,11.3
			C1374.5,727.5,1375.4,731.6,1377,734.8L1377,734.8z"/>
	</g>
	<g id="bubble-25">
		<circle class="st0" fill="#946EB5" cx="1431.1" cy="706.5" r="62.2"/>
		<path class="st1" fill="#BF7AB3" d="M1377,734.8c-1.6-3.2-3.2-7.3-4.8-10.5c-0.8-1.6-0.8-4-1.6-5.7s-0.8-4-0.8-5.7c0-0.8,0-0.8,0-1.6v-1.6v-3.2
			v-3.2c0-0.8,0-1.6,0-3.2c0.8-4,0.8-8.1,2.4-12.1c0.8-4,2.4-7.3,4.8-11.3c2.4-4,4-7.3,7.3-10.5c4.8-6.5,11.3-11.3,19.4-15.4
			l1.6-0.8c0.8,0,0.8-0.8,1.6-0.8l1.6-0.8h0.8l0,0l0,0l1.6-0.8h0.8h0.8c0.8,0,1.6-0.8,3.2-0.8c4-1.6,8.1-1.6,12.1-2.4h0.8h0.8h1.6
			h3.2c1.6,0,4,0,6.5,0h1.6h1.6h0.8h0.8c0.8,0,0.8,0,1.6,0c1.6,0.8,4,0.8,5.7,1.6c8.1,2.4,15.4,6.5,21,11.3c1.6,1.6,3.2,2.4,4.8,4
			c1.6,1.6,2.4,3.2,4,4.8c1.6,1.6,2.4,3.2,3.2,4.8s1.6,3.2,2.4,4.8c-0.8-1.6-2.4-3.2-4-4.8l-4-4c-1.6-1.6-3.2-2.4-4.8-3.2
			c-1.6-1.6-3.2-2.4-4.8-3.2c-6.5-4-12.9-7.3-20.2-8.9c-1.6-0.8-3.2-0.8-5.7-0.8c-0.8,0-0.8,0-1.6,0h-0.8h-1.6h-1.6h-1.6
			c-1.6,0-3.2,0-5.7,0h-2.4h-1.6h-0.8h-0.8h-1.6h-0.8h0.8h-1.6h-0.8h-0.8l-2.4,0.8l-3.2,0.8l-2.4,0.8h-0.8h-0.8l-0.8,0.8l0,0l0,0
			h-0.8l-0.8,0.8c-0.8,0-0.8,0.8-0.8,0.8l-0.8,0.8c-6.5,3.2-12.1,8.1-17,13.7c-4.8,5.7-8.9,11.3-11.3,18.6
			c-1.6,3.2-2.4,7.3-3.2,10.5v1.6v0.8v0.8c0,0.8,0,1.6,0,2.4v2.4c0,0.8,0,1.6,0,2.4c0,4,0,7.3,0.8,11.3
			C1374.5,727.5,1375.4,731.6,1377,734.8L1377,734.8z"/>
	</g>
	<g id="bubble-26">
		<circle class="st0" fill="#946EB5" cx="1431.1" cy="706.5" r="62.2"/>
		<path class="st1" fill="#BF7AB3" d="M1377,734.8c-1.6-3.2-3.2-7.3-4.8-10.5c-0.8-1.6-0.8-4-1.6-5.7s-0.8-4-0.8-5.7c0-0.8,0-0.8,0-1.6v-1.6v-3.2
			v-3.2c0-0.8,0-1.6,0-3.2c0.8-4,0.8-8.1,2.4-12.1c0.8-4,2.4-7.3,4.8-11.3c2.4-4,4-7.3,7.3-10.5c4.8-6.5,11.3-11.3,19.4-15.4
			l1.6-0.8c0.8,0,0.8-0.8,1.6-0.8l1.6-0.8h0.8l0,0l0,0l1.6-0.8h0.8h0.8c0.8,0,1.6-0.8,3.2-0.8c4-1.6,8.1-1.6,12.1-2.4h0.8h0.8h1.6
			h3.2c1.6,0,4,0,6.5,0h1.6h1.6h0.8h0.8c0.8,0,0.8,0,1.6,0c1.6,0.8,4,0.8,5.7,1.6c8.1,2.4,15.4,6.5,21,11.3c1.6,1.6,3.2,2.4,4.8,4
			c1.6,1.6,2.4,3.2,4,4.8c1.6,1.6,2.4,3.2,3.2,4.8s1.6,3.2,2.4,4.8c-0.8-1.6-2.4-3.2-4-4.8l-4-4c-1.6-1.6-3.2-2.4-4.8-3.2
			c-1.6-1.6-3.2-2.4-4.8-3.2c-6.5-4-12.9-7.3-20.2-8.9c-1.6-0.8-3.2-0.8-5.7-0.8c-0.8,0-0.8,0-1.6,0h-0.8h-1.6h-1.6h-1.6
			c-1.6,0-3.2,0-5.7,0h-2.4h-1.6h-0.8h-0.8h-1.6h-0.8h0.8h-1.6h-0.8h-0.8l-2.4,0.8l-3.2,0.8l-2.4,0.8h-0.8h-0.8l-0.8,0.8l0,0l0,0
			h-0.8l-0.8,0.8c-0.8,0-0.8,0.8-0.8,0.8l-0.8,0.8c-6.5,3.2-12.1,8.1-17,13.7c-4.8,5.7-8.9,11.3-11.3,18.6
			c-1.6,3.2-2.4,7.3-3.2,10.5v1.6v0.8v0.8c0,0.8,0,1.6,0,2.4v2.4c0,0.8,0,1.6,0,2.4c0,4,0,7.3,0.8,11.3
			C1374.5,727.5,1375.4,731.6,1377,734.8L1377,734.8z"/>
	</g>
	<g id="bubble-27">
		<circle class="st0" fill="#946EB5" cx="1431.1" cy="706.5" r="62.2"/>
		<path class="st1" fill="#BF7AB3" d="M1377,734.8c-1.6-3.2-3.2-7.3-4.8-10.5c-0.8-1.6-0.8-4-1.6-5.7s-0.8-4-0.8-5.7c0-0.8,0-0.8,0-1.6v-1.6v-3.2
			v-3.2c0-0.8,0-1.6,0-3.2c0.8-4,0.8-8.1,2.4-12.1c0.8-4,2.4-7.3,4.8-11.3c2.4-4,4-7.3,7.3-10.5c4.8-6.5,11.3-11.3,19.4-15.4
			l1.6-0.8c0.8,0,0.8-0.8,1.6-0.8l1.6-0.8h0.8l0,0l0,0l1.6-0.8h0.8h0.8c0.8,0,1.6-0.8,3.2-0.8c4-1.6,8.1-1.6,12.1-2.4h0.8h0.8h1.6
			h3.2c1.6,0,4,0,6.5,0h1.6h1.6h0.8h0.8c0.8,0,0.8,0,1.6,0c1.6,0.8,4,0.8,5.7,1.6c8.1,2.4,15.4,6.5,21,11.3c1.6,1.6,3.2,2.4,4.8,4
			c1.6,1.6,2.4,3.2,4,4.8c1.6,1.6,2.4,3.2,3.2,4.8s1.6,3.2,2.4,4.8c-0.8-1.6-2.4-3.2-4-4.8l-4-4c-1.6-1.6-3.2-2.4-4.8-3.2
			c-1.6-1.6-3.2-2.4-4.8-3.2c-6.5-4-12.9-7.3-20.2-8.9c-1.6-0.8-3.2-0.8-5.7-0.8c-0.8,0-0.8,0-1.6,0h-0.8h-1.6h-1.6h-1.6
			c-1.6,0-3.2,0-5.7,0h-2.4h-1.6h-0.8h-0.8h-1.6h-0.8h0.8h-1.6h-0.8h-0.8l-2.4,0.8l-3.2,0.8l-2.4,0.8h-0.8h-0.8l-0.8,0.8l0,0l0,0
			h-0.8l-0.8,0.8c-0.8,0-0.8,0.8-0.8,0.8l-0.8,0.8c-6.5,3.2-12.1,8.1-17,13.7c-4.8,5.7-8.9,11.3-11.3,18.6
			c-1.6,3.2-2.4,7.3-3.2,10.5v1.6v0.8v0.8c0,0.8,0,1.6,0,2.4v2.4c0,0.8,0,1.6,0,2.4c0,4,0,7.3,0.8,11.3
			C1374.5,727.5,1375.4,731.6,1377,734.8L1377,734.8z"/>
	</g>
	<g id="bubble-28">
		<circle class="st0" fill="#946EB5" cx="1431.1" cy="706.5" r="62.2"/>
		<path class="st1" fill="#BF7AB3" d="M1377,734.8c-1.6-3.2-3.2-7.3-4.8-10.5c-0.8-1.6-0.8-4-1.6-5.7s-0.8-4-0.8-5.7c0-0.8,0-0.8,0-1.6v-1.6v-3.2
			v-3.2c0-0.8,0-1.6,0-3.2c0.8-4,0.8-8.1,2.4-12.1c0.8-4,2.4-7.3,4.8-11.3c2.4-4,4-7.3,7.3-10.5c4.8-6.5,11.3-11.3,19.4-15.4
			l1.6-0.8c0.8,0,0.8-0.8,1.6-0.8l1.6-0.8h0.8l0,0l0,0l1.6-0.8h0.8h0.8c0.8,0,1.6-0.8,3.2-0.8c4-1.6,8.1-1.6,12.1-2.4h0.8h0.8h1.6
			h3.2c1.6,0,4,0,6.5,0h1.6h1.6h0.8h0.8c0.8,0,0.8,0,1.6,0c1.6,0.8,4,0.8,5.7,1.6c8.1,2.4,15.4,6.5,21,11.3c1.6,1.6,3.2,2.4,4.8,4
			c1.6,1.6,2.4,3.2,4,4.8c1.6,1.6,2.4,3.2,3.2,4.8s1.6,3.2,2.4,4.8c-0.8-1.6-2.4-3.2-4-4.8l-4-4c-1.6-1.6-3.2-2.4-4.8-3.2
			c-1.6-1.6-3.2-2.4-4.8-3.2c-6.5-4-12.9-7.3-20.2-8.9c-1.6-0.8-3.2-0.8-5.7-0.8c-0.8,0-0.8,0-1.6,0h-0.8h-1.6h-1.6h-1.6
			c-1.6,0-3.2,0-5.7,0h-2.4h-1.6h-0.8h-0.8h-1.6h-0.8h0.8h-1.6h-0.8h-0.8l-2.4,0.8l-3.2,0.8l-2.4,0.8h-0.8h-0.8l-0.8,0.8l0,0l0,0
			h-0.8l-0.8,0.8c-0.8,0-0.8,0.8-0.8,0.8l-0.8,0.8c-6.5,3.2-12.1,8.1-17,13.7c-4.8,5.7-8.9,11.3-11.3,18.6
			c-1.6,3.2-2.4,7.3-3.2,10.5v1.6v0.8v0.8c0,0.8,0,1.6,0,2.4v2.4c0,0.8,0,1.6,0,2.4c0,4,0,7.3,0.8,11.3
			C1374.5,727.5,1375.4,731.6,1377,734.8L1377,734.8z"/>
	</g>
	<g id="bubble-29">
		<circle class="st0" fill="#946EB5" cx="1431.1" cy="706.5" r="62.2"/>
		<path class="st1" fill="#BF7AB3" d="M1377,734.8c-1.6-3.2-3.2-7.3-4.8-10.5c-0.8-1.6-0.8-4-1.6-5.7s-0.8-4-0.8-5.7c0-0.8,0-0.8,0-1.6v-1.6v-3.2
			v-3.2c0-0.8,0-1.6,0-3.2c0.8-4,0.8-8.1,2.4-12.1c0.8-4,2.4-7.3,4.8-11.3c2.4-4,4-7.3,7.3-10.5c4.8-6.5,11.3-11.3,19.4-15.4
			l1.6-0.8c0.8,0,0.8-0.8,1.6-0.8l1.6-0.8h0.8l0,0l0,0l1.6-0.8h0.8h0.8c0.8,0,1.6-0.8,3.2-0.8c4-1.6,8.1-1.6,12.1-2.4h0.8h0.8h1.6
			h3.2c1.6,0,4,0,6.5,0h1.6h1.6h0.8h0.8c0.8,0,0.8,0,1.6,0c1.6,0.8,4,0.8,5.7,1.6c8.1,2.4,15.4,6.5,21,11.3c1.6,1.6,3.2,2.4,4.8,4
			c1.6,1.6,2.4,3.2,4,4.8c1.6,1.6,2.4,3.2,3.2,4.8s1.6,3.2,2.4,4.8c-0.8-1.6-2.4-3.2-4-4.8l-4-4c-1.6-1.6-3.2-2.4-4.8-3.2
			c-1.6-1.6-3.2-2.4-4.8-3.2c-6.5-4-12.9-7.3-20.2-8.9c-1.6-0.8-3.2-0.8-5.7-0.8c-0.8,0-0.8,0-1.6,0h-0.8h-1.6h-1.6h-1.6
			c-1.6,0-3.2,0-5.7,0h-2.4h-1.6h-0.8h-0.8h-1.6h-0.8h0.8h-1.6h-0.8h-0.8l-2.4,0.8l-3.2,0.8l-2.4,0.8h-0.8h-0.8l-0.8,0.8l0,0l0,0
			h-0.8l-0.8,0.8c-0.8,0-0.8,0.8-0.8,0.8l-0.8,0.8c-6.5,3.2-12.1,8.1-17,13.7c-4.8,5.7-8.9,11.3-11.3,18.6
			c-1.6,3.2-2.4,7.3-3.2,10.5v1.6v0.8v0.8c0,0.8,0,1.6,0,2.4v2.4c0,0.8,0,1.6,0,2.4c0,4,0,7.3,0.8,11.3
			C1374.5,727.5,1375.4,731.6,1377,734.8L1377,734.8z"/>
	</g>
	<g id="bubble-30">
		<circle class="st0" fill="#946EB5" cx="1431.1" cy="706.5" r="62.2"/>
		<path class="st1" fill="#BF7AB3" d="M1377,734.8c-1.6-3.2-3.2-7.3-4.8-10.5c-0.8-1.6-0.8-4-1.6-5.7s-0.8-4-0.8-5.7c0-0.8,0-0.8,0-1.6v-1.6v-3.2
			v-3.2c0-0.8,0-1.6,0-3.2c0.8-4,0.8-8.1,2.4-12.1c0.8-4,2.4-7.3,4.8-11.3c2.4-4,4-7.3,7.3-10.5c4.8-6.5,11.3-11.3,19.4-15.4
			l1.6-0.8c0.8,0,0.8-0.8,1.6-0.8l1.6-0.8h0.8l0,0l0,0l1.6-0.8h0.8h0.8c0.8,0,1.6-0.8,3.2-0.8c4-1.6,8.1-1.6,12.1-2.4h0.8h0.8h1.6
			h3.2c1.6,0,4,0,6.5,0h1.6h1.6h0.8h0.8c0.8,0,0.8,0,1.6,0c1.6,0.8,4,0.8,5.7,1.6c8.1,2.4,15.4,6.5,21,11.3c1.6,1.6,3.2,2.4,4.8,4
			c1.6,1.6,2.4,3.2,4,4.8c1.6,1.6,2.4,3.2,3.2,4.8s1.6,3.2,2.4,4.8c-0.8-1.6-2.4-3.2-4-4.8l-4-4c-1.6-1.6-3.2-2.4-4.8-3.2
			c-1.6-1.6-3.2-2.4-4.8-3.2c-6.5-4-12.9-7.3-20.2-8.9c-1.6-0.8-3.2-0.8-5.7-0.8c-0.8,0-0.8,0-1.6,0h-0.8h-1.6h-1.6h-1.6
			c-1.6,0-3.2,0-5.7,0h-2.4h-1.6h-0.8h-0.8h-1.6h-0.8h0.8h-1.6h-0.8h-0.8l-2.4,0.8l-3.2,0.8l-2.4,0.8h-0.8h-0.8l-0.8,0.8l0,0l0,0
			h-0.8l-0.8,0.8c-0.8,0-0.8,0.8-0.8,0.8l-0.8,0.8c-6.5,3.2-12.1,8.1-17,13.7c-4.8,5.7-8.9,11.3-11.3,18.6
			c-1.6,3.2-2.4,7.3-3.2,10.5v1.6v0.8v0.8c0,0.8,0,1.6,0,2.4v2.4c0,0.8,0,1.6,0,2.4c0,4,0,7.3,0.8,11.3
			C1374.5,727.5,1375.4,731.6,1377,734.8L1377,734.8z"/>
	</g>
	<g id="bubble-31">
		<circle class="st0" fill="#946EB5" cx="1431.1" cy="706.5" r="62.2"/>
		<path class="st1" fill="#BF7AB3" d="M1377,734.8c-1.6-3.2-3.2-7.3-4.8-10.5c-0.8-1.6-0.8-4-1.6-5.7s-0.8-4-0.8-5.7c0-0.8,0-0.8,0-1.6v-1.6v-3.2
			v-3.2c0-0.8,0-1.6,0-3.2c0.8-4,0.8-8.1,2.4-12.1c0.8-4,2.4-7.3,4.8-11.3c2.4-4,4-7.3,7.3-10.5c4.8-6.5,11.3-11.3,19.4-15.4
			l1.6-0.8c0.8,0,0.8-0.8,1.6-0.8l1.6-0.8h0.8l0,0l0,0l1.6-0.8h0.8h0.8c0.8,0,1.6-0.8,3.2-0.8c4-1.6,8.1-1.6,12.1-2.4h0.8h0.8h1.6
			h3.2c1.6,0,4,0,6.5,0h1.6h1.6h0.8h0.8c0.8,0,0.8,0,1.6,0c1.6,0.8,4,0.8,5.7,1.6c8.1,2.4,15.4,6.5,21,11.3c1.6,1.6,3.2,2.4,4.8,4
			c1.6,1.6,2.4,3.2,4,4.8c1.6,1.6,2.4,3.2,3.2,4.8s1.6,3.2,2.4,4.8c-0.8-1.6-2.4-3.2-4-4.8l-4-4c-1.6-1.6-3.2-2.4-4.8-3.2
			c-1.6-1.6-3.2-2.4-4.8-3.2c-6.5-4-12.9-7.3-20.2-8.9c-1.6-0.8-3.2-0.8-5.7-0.8c-0.8,0-0.8,0-1.6,0h-0.8h-1.6h-1.6h-1.6
			c-1.6,0-3.2,0-5.7,0h-2.4h-1.6h-0.8h-0.8h-1.6h-0.8h0.8h-1.6h-0.8h-0.8l-2.4,0.8l-3.2,0.8l-2.4,0.8h-0.8h-0.8l-0.8,0.8l0,0l0,0
			h-0.8l-0.8,0.8c-0.8,0-0.8,0.8-0.8,0.8l-0.8,0.8c-6.5,3.2-12.1,8.1-17,13.7c-4.8,5.7-8.9,11.3-11.3,18.6
			c-1.6,3.2-2.4,7.3-3.2,10.5v1.6v0.8v0.8c0,0.8,0,1.6,0,2.4v2.4c0,0.8,0,1.6,0,2.4c0,4,0,7.3,0.8,11.3
			C1374.5,727.5,1375.4,731.6,1377,734.8L1377,734.8z"/>
	</g>
	<g id="bubble-32">
		<circle class="st0" fill="#946EB5" cx="1431.1" cy="706.5" r="62.2"/>
		<path class="st1" fill="#BF7AB3" d="M1377,734.8c-1.6-3.2-3.2-7.3-4.8-10.5c-0.8-1.6-0.8-4-1.6-5.7s-0.8-4-0.8-5.7c0-0.8,0-0.8,0-1.6v-1.6v-3.2
			v-3.2c0-0.8,0-1.6,0-3.2c0.8-4,0.8-8.1,2.4-12.1c0.8-4,2.4-7.3,4.8-11.3c2.4-4,4-7.3,7.3-10.5c4.8-6.5,11.3-11.3,19.4-15.4
			l1.6-0.8c0.8,0,0.8-0.8,1.6-0.8l1.6-0.8h0.8l0,0l0,0l1.6-0.8h0.8h0.8c0.8,0,1.6-0.8,3.2-0.8c4-1.6,8.1-1.6,12.1-2.4h0.8h0.8h1.6
			h3.2c1.6,0,4,0,6.5,0h1.6h1.6h0.8h0.8c0.8,0,0.8,0,1.6,0c1.6,0.8,4,0.8,5.7,1.6c8.1,2.4,15.4,6.5,21,11.3c1.6,1.6,3.2,2.4,4.8,4
			c1.6,1.6,2.4,3.2,4,4.8c1.6,1.6,2.4,3.2,3.2,4.8s1.6,3.2,2.4,4.8c-0.8-1.6-2.4-3.2-4-4.8l-4-4c-1.6-1.6-3.2-2.4-4.8-3.2
			c-1.6-1.6-3.2-2.4-4.8-3.2c-6.5-4-12.9-7.3-20.2-8.9c-1.6-0.8-3.2-0.8-5.7-0.8c-0.8,0-0.8,0-1.6,0h-0.8h-1.6h-1.6h-1.6
			c-1.6,0-3.2,0-5.7,0h-2.4h-1.6h-0.8h-0.8h-1.6h-0.8h0.8h-1.6h-0.8h-0.8l-2.4,0.8l-3.2,0.8l-2.4,0.8h-0.8h-0.8l-0.8,0.8l0,0l0,0
			h-0.8l-0.8,0.8c-0.8,0-0.8,0.8-0.8,0.8l-0.8,0.8c-6.5,3.2-12.1,8.1-17,13.7c-4.8,5.7-8.9,11.3-11.3,18.6
			c-1.6,3.2-2.4,7.3-3.2,10.5v1.6v0.8v0.8c0,0.8,0,1.6,0,2.4v2.4c0,0.8,0,1.6,0,2.4c0,4,0,7.3,0.8,11.3
			C1374.5,727.5,1375.4,731.6,1377,734.8L1377,734.8z"/>
	</g>
	<g id="bubble-33">
		<circle class="st0" fill="#946EB5" cx="1431.1" cy="706.5" r="62.2"/>
		<path class="st1" fill="#BF7AB3" d="M1377,734.8c-1.6-3.2-3.2-7.3-4.8-10.5c-0.8-1.6-0.8-4-1.6-5.7s-0.8-4-0.8-5.7c0-0.8,0-0.8,0-1.6v-1.6v-3.2
			v-3.2c0-0.8,0-1.6,0-3.2c0.8-4,0.8-8.1,2.4-12.1c0.8-4,2.4-7.3,4.8-11.3c2.4-4,4-7.3,7.3-10.5c4.8-6.5,11.3-11.3,19.4-15.4
			l1.6-0.8c0.8,0,0.8-0.8,1.6-0.8l1.6-0.8h0.8l0,0l0,0l1.6-0.8h0.8h0.8c0.8,0,1.6-0.8,3.2-0.8c4-1.6,8.1-1.6,12.1-2.4h0.8h0.8h1.6
			h3.2c1.6,0,4,0,6.5,0h1.6h1.6h0.8h0.8c0.8,0,0.8,0,1.6,0c1.6,0.8,4,0.8,5.7,1.6c8.1,2.4,15.4,6.5,21,11.3c1.6,1.6,3.2,2.4,4.8,4
			c1.6,1.6,2.4,3.2,4,4.8c1.6,1.6,2.4,3.2,3.2,4.8s1.6,3.2,2.4,4.8c-0.8-1.6-2.4-3.2-4-4.8l-4-4c-1.6-1.6-3.2-2.4-4.8-3.2
			c-1.6-1.6-3.2-2.4-4.8-3.2c-6.5-4-12.9-7.3-20.2-8.9c-1.6-0.8-3.2-0.8-5.7-0.8c-0.8,0-0.8,0-1.6,0h-0.8h-1.6h-1.6h-1.6
			c-1.6,0-3.2,0-5.7,0h-2.4h-1.6h-0.8h-0.8h-1.6h-0.8h0.8h-1.6h-0.8h-0.8l-2.4,0.8l-3.2,0.8l-2.4,0.8h-0.8h-0.8l-0.8,0.8l0,0l0,0
			h-0.8l-0.8,0.8c-0.8,0-0.8,0.8-0.8,0.8l-0.8,0.8c-6.5,3.2-12.1,8.1-17,13.7c-4.8,5.7-8.9,11.3-11.3,18.6
			c-1.6,3.2-2.4,7.3-3.2,10.5v1.6v0.8v0.8c0,0.8,0,1.6,0,2.4v2.4c0,0.8,0,1.6,0,2.4c0,4,0,7.3,0.8,11.3
			C1374.5,727.5,1375.4,731.6,1377,734.8L1377,734.8z"/>
	</g>
	<g id="bubble-34">
		<circle class="st0" fill="#946EB5" cx="1431.1" cy="706.5" r="62.2"/>
		<path class="st1" fill="#BF7AB3" d="M1377,734.8c-1.6-3.2-3.2-7.3-4.8-10.5c-0.8-1.6-0.8-4-1.6-5.7s-0.8-4-0.8-5.7c0-0.8,0-0.8,0-1.6v-1.6v-3.2
			v-3.2c0-0.8,0-1.6,0-3.2c0.8-4,0.8-8.1,2.4-12.1c0.8-4,2.4-7.3,4.8-11.3c2.4-4,4-7.3,7.3-10.5c4.8-6.5,11.3-11.3,19.4-15.4
			l1.6-0.8c0.8,0,0.8-0.8,1.6-0.8l1.6-0.8h0.8l0,0l0,0l1.6-0.8h0.8h0.8c0.8,0,1.6-0.8,3.2-0.8c4-1.6,8.1-1.6,12.1-2.4h0.8h0.8h1.6
			h3.2c1.6,0,4,0,6.5,0h1.6h1.6h0.8h0.8c0.8,0,0.8,0,1.6,0c1.6,0.8,4,0.8,5.7,1.6c8.1,2.4,15.4,6.5,21,11.3c1.6,1.6,3.2,2.4,4.8,4
			c1.6,1.6,2.4,3.2,4,4.8c1.6,1.6,2.4,3.2,3.2,4.8s1.6,3.2,2.4,4.8c-0.8-1.6-2.4-3.2-4-4.8l-4-4c-1.6-1.6-3.2-2.4-4.8-3.2
			c-1.6-1.6-3.2-2.4-4.8-3.2c-6.5-4-12.9-7.3-20.2-8.9c-1.6-0.8-3.2-0.8-5.7-0.8c-0.8,0-0.8,0-1.6,0h-0.8h-1.6h-1.6h-1.6
			c-1.6,0-3.2,0-5.7,0h-2.4h-1.6h-0.8h-0.8h-1.6h-0.8h0.8h-1.6h-0.8h-0.8l-2.4,0.8l-3.2,0.8l-2.4,0.8h-0.8h-0.8l-0.8,0.8l0,0l0,0
			h-0.8l-0.8,0.8c-0.8,0-0.8,0.8-0.8,0.8l-0.8,0.8c-6.5,3.2-12.1,8.1-17,13.7c-4.8,5.7-8.9,11.3-11.3,18.6
			c-1.6,3.2-2.4,7.3-3.2,10.5v1.6v0.8v0.8c0,0.8,0,1.6,0,2.4v2.4c0,0.8,0,1.6,0,2.4c0,4,0,7.3,0.8,11.3
			C1374.5,727.5,1375.4,731.6,1377,734.8L1377,734.8z"/>
	</g>
	<g id="bubble-35">
		<circle class="st0" fill="#946EB5" cx="1431.1" cy="706.5" r="62.2"/>
		<path class="st1" fill="#BF7AB3" d="M1377,734.8c-1.6-3.2-3.2-7.3-4.8-10.5c-0.8-1.6-0.8-4-1.6-5.7s-0.8-4-0.8-5.7c0-0.8,0-0.8,0-1.6v-1.6v-3.2
			v-3.2c0-0.8,0-1.6,0-3.2c0.8-4,0.8-8.1,2.4-12.1c0.8-4,2.4-7.3,4.8-11.3c2.4-4,4-7.3,7.3-10.5c4.8-6.5,11.3-11.3,19.4-15.4
			l1.6-0.8c0.8,0,0.8-0.8,1.6-0.8l1.6-0.8h0.8l0,0l0,0l1.6-0.8h0.8h0.8c0.8,0,1.6-0.8,3.2-0.8c4-1.6,8.1-1.6,12.1-2.4h0.8h0.8h1.6
			h3.2c1.6,0,4,0,6.5,0h1.6h1.6h0.8h0.8c0.8,0,0.8,0,1.6,0c1.6,0.8,4,0.8,5.7,1.6c8.1,2.4,15.4,6.5,21,11.3c1.6,1.6,3.2,2.4,4.8,4
			c1.6,1.6,2.4,3.2,4,4.8c1.6,1.6,2.4,3.2,3.2,4.8s1.6,3.2,2.4,4.8c-0.8-1.6-2.4-3.2-4-4.8l-4-4c-1.6-1.6-3.2-2.4-4.8-3.2
			c-1.6-1.6-3.2-2.4-4.8-3.2c-6.5-4-12.9-7.3-20.2-8.9c-1.6-0.8-3.2-0.8-5.7-0.8c-0.8,0-0.8,0-1.6,0h-0.8h-1.6h-1.6h-1.6
			c-1.6,0-3.2,0-5.7,0h-2.4h-1.6h-0.8h-0.8h-1.6h-0.8h0.8h-1.6h-0.8h-0.8l-2.4,0.8l-3.2,0.8l-2.4,0.8h-0.8h-0.8l-0.8,0.8l0,0l0,0
			h-0.8l-0.8,0.8c-0.8,0-0.8,0.8-0.8,0.8l-0.8,0.8c-6.5,3.2-12.1,8.1-17,13.7c-4.8,5.7-8.9,11.3-11.3,18.6
			c-1.6,3.2-2.4,7.3-3.2,10.5v1.6v0.8v0.8c0,0.8,0,1.6,0,2.4v2.4c0,0.8,0,1.6,0,2.4c0,4,0,7.3,0.8,11.3
			C1374.5,727.5,1375.4,731.6,1377,734.8L1377,734.8z"/>
	</g>
	<g id="bubble-36">
		<circle class="st0" fill="#946EB5" cx="1431.1" cy="706.5" r="62.2"/>
		<path class="st1" fill="#BF7AB3" d="M1377,734.8c-1.6-3.2-3.2-7.3-4.8-10.5c-0.8-1.6-0.8-4-1.6-5.7s-0.8-4-0.8-5.7c0-0.8,0-0.8,0-1.6v-1.6v-3.2
			v-3.2c0-0.8,0-1.6,0-3.2c0.8-4,0.8-8.1,2.4-12.1c0.8-4,2.4-7.3,4.8-11.3c2.4-4,4-7.3,7.3-10.5c4.8-6.5,11.3-11.3,19.4-15.4
			l1.6-0.8c0.8,0,0.8-0.8,1.6-0.8l1.6-0.8h0.8l0,0l0,0l1.6-0.8h0.8h0.8c0.8,0,1.6-0.8,3.2-0.8c4-1.6,8.1-1.6,12.1-2.4h0.8h0.8h1.6
			h3.2c1.6,0,4,0,6.5,0h1.6h1.6h0.8h0.8c0.8,0,0.8,0,1.6,0c1.6,0.8,4,0.8,5.7,1.6c8.1,2.4,15.4,6.5,21,11.3c1.6,1.6,3.2,2.4,4.8,4
			c1.6,1.6,2.4,3.2,4,4.8c1.6,1.6,2.4,3.2,3.2,4.8s1.6,3.2,2.4,4.8c-0.8-1.6-2.4-3.2-4-4.8l-4-4c-1.6-1.6-3.2-2.4-4.8-3.2
			c-1.6-1.6-3.2-2.4-4.8-3.2c-6.5-4-12.9-7.3-20.2-8.9c-1.6-0.8-3.2-0.8-5.7-0.8c-0.8,0-0.8,0-1.6,0h-0.8h-1.6h-1.6h-1.6
			c-1.6,0-3.2,0-5.7,0h-2.4h-1.6h-0.8h-0.8h-1.6h-0.8h0.8h-1.6h-0.8h-0.8l-2.4,0.8l-3.2,0.8l-2.4,0.8h-0.8h-0.8l-0.8,0.8l0,0l0,0
			h-0.8l-0.8,0.8c-0.8,0-0.8,0.8-0.8,0.8l-0.8,0.8c-6.5,3.2-12.1,8.1-17,13.7c-4.8,5.7-8.9,11.3-11.3,18.6
			c-1.6,3.2-2.4,7.3-3.2,10.5v1.6v0.8v0.8c0,0.8,0,1.6,0,2.4v2.4c0,0.8,0,1.6,0,2.4c0,4,0,7.3,0.8,11.3
			C1374.5,727.5,1375.4,731.6,1377,734.8L1377,734.8z"/>
	</g>
	<g id="bubble-37">
		<circle class="st0" fill="#946EB5" cx="1431.1" cy="706.5" r="62.2"/>
		<path class="st1" fill="#BF7AB3" d="M1377,734.8c-1.6-3.2-3.2-7.3-4.8-10.5c-0.8-1.6-0.8-4-1.6-5.7s-0.8-4-0.8-5.7c0-0.8,0-0.8,0-1.6v-1.6v-3.2
			v-3.2c0-0.8,0-1.6,0-3.2c0.8-4,0.8-8.1,2.4-12.1c0.8-4,2.4-7.3,4.8-11.3c2.4-4,4-7.3,7.3-10.5c4.8-6.5,11.3-11.3,19.4-15.4
			l1.6-0.8c0.8,0,0.8-0.8,1.6-0.8l1.6-0.8h0.8l0,0l0,0l1.6-0.8h0.8h0.8c0.8,0,1.6-0.8,3.2-0.8c4-1.6,8.1-1.6,12.1-2.4h0.8h0.8h1.6
			h3.2c1.6,0,4,0,6.5,0h1.6h1.6h0.8h0.8c0.8,0,0.8,0,1.6,0c1.6,0.8,4,0.8,5.7,1.6c8.1,2.4,15.4,6.5,21,11.3c1.6,1.6,3.2,2.4,4.8,4
			c1.6,1.6,2.4,3.2,4,4.8c1.6,1.6,2.4,3.2,3.2,4.8s1.6,3.2,2.4,4.8c-0.8-1.6-2.4-3.2-4-4.8l-4-4c-1.6-1.6-3.2-2.4-4.8-3.2
			c-1.6-1.6-3.2-2.4-4.8-3.2c-6.5-4-12.9-7.3-20.2-8.9c-1.6-0.8-3.2-0.8-5.7-0.8c-0.8,0-0.8,0-1.6,0h-0.8h-1.6h-1.6h-1.6
			c-1.6,0-3.2,0-5.7,0h-2.4h-1.6h-0.8h-0.8h-1.6h-0.8h0.8h-1.6h-0.8h-0.8l-2.4,0.8l-3.2,0.8l-2.4,0.8h-0.8h-0.8l-0.8,0.8l0,0l0,0
			h-0.8l-0.8,0.8c-0.8,0-0.8,0.8-0.8,0.8l-0.8,0.8c-6.5,3.2-12.1,8.1-17,13.7c-4.8,5.7-8.9,11.3-11.3,18.6
			c-1.6,3.2-2.4,7.3-3.2,10.5v1.6v0.8v0.8c0,0.8,0,1.6,0,2.4v2.4c0,0.8,0,1.6,0,2.4c0,4,0,7.3,0.8,11.3
			C1374.5,727.5,1375.4,731.6,1377,734.8L1377,734.8z"/>
	</g>
	<g id="bubble-38">
		<circle class="st0" fill="#946EB5" cx="1431.1" cy="706.5" r="62.2"/>
		<path class="st1" fill="#BF7AB3" d="M1377,734.8c-1.6-3.2-3.2-7.3-4.8-10.5c-0.8-1.6-0.8-4-1.6-5.7s-0.8-4-0.8-5.7c0-0.8,0-0.8,0-1.6v-1.6v-3.2
			v-3.2c0-0.8,0-1.6,0-3.2c0.8-4,0.8-8.1,2.4-12.1c0.8-4,2.4-7.3,4.8-11.3c2.4-4,4-7.3,7.3-10.5c4.8-6.5,11.3-11.3,19.4-15.4
			l1.6-0.8c0.8,0,0.8-0.8,1.6-0.8l1.6-0.8h0.8l0,0l0,0l1.6-0.8h0.8h0.8c0.8,0,1.6-0.8,3.2-0.8c4-1.6,8.1-1.6,12.1-2.4h0.8h0.8h1.6
			h3.2c1.6,0,4,0,6.5,0h1.6h1.6h0.8h0.8c0.8,0,0.8,0,1.6,0c1.6,0.8,4,0.8,5.7,1.6c8.1,2.4,15.4,6.5,21,11.3c1.6,1.6,3.2,2.4,4.8,4
			c1.6,1.6,2.4,3.2,4,4.8c1.6,1.6,2.4,3.2,3.2,4.8s1.6,3.2,2.4,4.8c-0.8-1.6-2.4-3.2-4-4.8l-4-4c-1.6-1.6-3.2-2.4-4.8-3.2
			c-1.6-1.6-3.2-2.4-4.8-3.2c-6.5-4-12.9-7.3-20.2-8.9c-1.6-0.8-3.2-0.8-5.7-0.8c-0.8,0-0.8,0-1.6,0h-0.8h-1.6h-1.6h-1.6
			c-1.6,0-3.2,0-5.7,0h-2.4h-1.6h-0.8h-0.8h-1.6h-0.8h0.8h-1.6h-0.8h-0.8l-2.4,0.8l-3.2,0.8l-2.4,0.8h-0.8h-0.8l-0.8,0.8l0,0l0,0
			h-0.8l-0.8,0.8c-0.8,0-0.8,0.8-0.8,0.8l-0.8,0.8c-6.5,3.2-12.1,8.1-17,13.7c-4.8,5.7-8.9,11.3-11.3,18.6
			c-1.6,3.2-2.4,7.3-3.2,10.5v1.6v0.8v0.8c0,0.8,0,1.6,0,2.4v2.4c0,0.8,0,1.6,0,2.4c0,4,0,7.3,0.8,11.3
			C1374.5,727.5,1375.4,731.6,1377,734.8L1377,734.8z"/>
	</g>
	<g id="bubble-39">
		<circle class="st0" fill="#946EB5" cx="1431.1" cy="706.5" r="62.2"/>
		<path class="st1" fill="#BF7AB3" d="M1377,734.8c-1.6-3.2-3.2-7.3-4.8-10.5c-0.8-1.6-0.8-4-1.6-5.7s-0.8-4-0.8-5.7c0-0.8,0-0.8,0-1.6v-1.6v-3.2
			v-3.2c0-0.8,0-1.6,0-3.2c0.8-4,0.8-8.1,2.4-12.1c0.8-4,2.4-7.3,4.8-11.3c2.4-4,4-7.3,7.3-10.5c4.8-6.5,11.3-11.3,19.4-15.4
			l1.6-0.8c0.8,0,0.8-0.8,1.6-0.8l1.6-0.8h0.8l0,0l0,0l1.6-0.8h0.8h0.8c0.8,0,1.6-0.8,3.2-0.8c4-1.6,8.1-1.6,12.1-2.4h0.8h0.8h1.6
			h3.2c1.6,0,4,0,6.5,0h1.6h1.6h0.8h0.8c0.8,0,0.8,0,1.6,0c1.6,0.8,4,0.8,5.7,1.6c8.1,2.4,15.4,6.5,21,11.3c1.6,1.6,3.2,2.4,4.8,4
			c1.6,1.6,2.4,3.2,4,4.8c1.6,1.6,2.4,3.2,3.2,4.8s1.6,3.2,2.4,4.8c-0.8-1.6-2.4-3.2-4-4.8l-4-4c-1.6-1.6-3.2-2.4-4.8-3.2
			c-1.6-1.6-3.2-2.4-4.8-3.2c-6.5-4-12.9-7.3-20.2-8.9c-1.6-0.8-3.2-0.8-5.7-0.8c-0.8,0-0.8,0-1.6,0h-0.8h-1.6h-1.6h-1.6
			c-1.6,0-3.2,0-5.7,0h-2.4h-1.6h-0.8h-0.8h-1.6h-0.8h0.8h-1.6h-0.8h-0.8l-2.4,0.8l-3.2,0.8l-2.4,0.8h-0.8h-0.8l-0.8,0.8l0,0l0,0
			h-0.8l-0.8,0.8c-0.8,0-0.8,0.8-0.8,0.8l-0.8,0.8c-6.5,3.2-12.1,8.1-17,13.7c-4.8,5.7-8.9,11.3-11.3,18.6
			c-1.6,3.2-2.4,7.3-3.2,10.5v1.6v0.8v0.8c0,0.8,0,1.6,0,2.4v2.4c0,0.8,0,1.6,0,2.4c0,4,0,7.3,0.8,11.3
			C1374.5,727.5,1375.4,731.6,1377,734.8L1377,734.8z"/>
	</g>
	<g id="bubble-40">
		<circle class="st0" fill="#946EB5" cx="1431.1" cy="706.5" r="62.2"/>
		<path class="st1" fill="#BF7AB3" d="M1377,734.8c-1.6-3.2-3.2-7.3-4.8-10.5c-0.8-1.6-0.8-4-1.6-5.7s-0.8-4-0.8-5.7c0-0.8,0-0.8,0-1.6v-1.6v-3.2
			v-3.2c0-0.8,0-1.6,0-3.2c0.8-4,0.8-8.1,2.4-12.1c0.8-4,2.4-7.3,4.8-11.3c2.4-4,4-7.3,7.3-10.5c4.8-6.5,11.3-11.3,19.4-15.4
			l1.6-0.8c0.8,0,0.8-0.8,1.6-0.8l1.6-0.8h0.8l0,0l0,0l1.6-0.8h0.8h0.8c0.8,0,1.6-0.8,3.2-0.8c4-1.6,8.1-1.6,12.1-2.4h0.8h0.8h1.6
			h3.2c1.6,0,4,0,6.5,0h1.6h1.6h0.8h0.8c0.8,0,0.8,0,1.6,0c1.6,0.8,4,0.8,5.7,1.6c8.1,2.4,15.4,6.5,21,11.3c1.6,1.6,3.2,2.4,4.8,4
			c1.6,1.6,2.4,3.2,4,4.8c1.6,1.6,2.4,3.2,3.2,4.8s1.6,3.2,2.4,4.8c-0.8-1.6-2.4-3.2-4-4.8l-4-4c-1.6-1.6-3.2-2.4-4.8-3.2
			c-1.6-1.6-3.2-2.4-4.8-3.2c-6.5-4-12.9-7.3-20.2-8.9c-1.6-0.8-3.2-0.8-5.7-0.8c-0.8,0-0.8,0-1.6,0h-0.8h-1.6h-1.6h-1.6
			c-1.6,0-3.2,0-5.7,0h-2.4h-1.6h-0.8h-0.8h-1.6h-0.8h0.8h-1.6h-0.8h-0.8l-2.4,0.8l-3.2,0.8l-2.4,0.8h-0.8h-0.8l-0.8,0.8l0,0l0,0
			h-0.8l-0.8,0.8c-0.8,0-0.8,0.8-0.8,0.8l-0.8,0.8c-6.5,3.2-12.1,8.1-17,13.7c-4.8,5.7-8.9,11.3-11.3,18.6
			c-1.6,3.2-2.4,7.3-3.2,10.5v1.6v0.8v0.8c0,0.8,0,1.6,0,2.4v2.4c0,0.8,0,1.6,0,2.4c0,4,0,7.3,0.8,11.3
			C1374.5,727.5,1375.4,731.6,1377,734.8L1377,734.8z"/>
	</g>
	<g id="bubble-41">
		<circle class="st0" fill="#946EB5" cx="1431.1" cy="706.5" r="62.2"/>
		<path class="st1" fill="#BF7AB3" d="M1377,734.8c-1.6-3.2-3.2-7.3-4.8-10.5c-0.8-1.6-0.8-4-1.6-5.7s-0.8-4-0.8-5.7c0-0.8,0-0.8,0-1.6v-1.6v-3.2
			v-3.2c0-0.8,0-1.6,0-3.2c0.8-4,0.8-8.1,2.4-12.1c0.8-4,2.4-7.3,4.8-11.3c2.4-4,4-7.3,7.3-10.5c4.8-6.5,11.3-11.3,19.4-15.4
			l1.6-0.8c0.8,0,0.8-0.8,1.6-0.8l1.6-0.8h0.8l0,0l0,0l1.6-0.8h0.8h0.8c0.8,0,1.6-0.8,3.2-0.8c4-1.6,8.1-1.6,12.1-2.4h0.8h0.8h1.6
			h3.2c1.6,0,4,0,6.5,0h1.6h1.6h0.8h0.8c0.8,0,0.8,0,1.6,0c1.6,0.8,4,0.8,5.7,1.6c8.1,2.4,15.4,6.5,21,11.3c1.6,1.6,3.2,2.4,4.8,4
			c1.6,1.6,2.4,3.2,4,4.8c1.6,1.6,2.4,3.2,3.2,4.8s1.6,3.2,2.4,4.8c-0.8-1.6-2.4-3.2-4-4.8l-4-4c-1.6-1.6-3.2-2.4-4.8-3.2
			c-1.6-1.6-3.2-2.4-4.8-3.2c-6.5-4-12.9-7.3-20.2-8.9c-1.6-0.8-3.2-0.8-5.7-0.8c-0.8,0-0.8,0-1.6,0h-0.8h-1.6h-1.6h-1.6
			c-1.6,0-3.2,0-5.7,0h-2.4h-1.6h-0.8h-0.8h-1.6h-0.8h0.8h-1.6h-0.8h-0.8l-2.4,0.8l-3.2,0.8l-2.4,0.8h-0.8h-0.8l-0.8,0.8l0,0l0,0
			h-0.8l-0.8,0.8c-0.8,0-0.8,0.8-0.8,0.8l-0.8,0.8c-6.5,3.2-12.1,8.1-17,13.7c-4.8,5.7-8.9,11.3-11.3,18.6
			c-1.6,3.2-2.4,7.3-3.2,10.5v1.6v0.8v0.8c0,0.8,0,1.6,0,2.4v2.4c0,0.8,0,1.6,0,2.4c0,4,0,7.3,0.8,11.3
			C1374.5,727.5,1375.4,731.6,1377,734.8L1377,734.8z"/>
	</g>
	<g id="bubble-42">
		<circle class="st0" fill="#946EB5" cx="1431.1" cy="706.5" r="62.2"/>
		<path class="st1" fill="#BF7AB3" d="M1377,734.8c-1.6-3.2-3.2-7.3-4.8-10.5c-0.8-1.6-0.8-4-1.6-5.7s-0.8-4-0.8-5.7c0-0.8,0-0.8,0-1.6v-1.6v-3.2
			v-3.2c0-0.8,0-1.6,0-3.2c0.8-4,0.8-8.1,2.4-12.1c0.8-4,2.4-7.3,4.8-11.3c2.4-4,4-7.3,7.3-10.5c4.8-6.5,11.3-11.3,19.4-15.4
			l1.6-0.8c0.8,0,0.8-0.8,1.6-0.8l1.6-0.8h0.8l0,0l0,0l1.6-0.8h0.8h0.8c0.8,0,1.6-0.8,3.2-0.8c4-1.6,8.1-1.6,12.1-2.4h0.8h0.8h1.6
			h3.2c1.6,0,4,0,6.5,0h1.6h1.6h0.8h0.8c0.8,0,0.8,0,1.6,0c1.6,0.8,4,0.8,5.7,1.6c8.1,2.4,15.4,6.5,21,11.3c1.6,1.6,3.2,2.4,4.8,4
			c1.6,1.6,2.4,3.2,4,4.8c1.6,1.6,2.4,3.2,3.2,4.8s1.6,3.2,2.4,4.8c-0.8-1.6-2.4-3.2-4-4.8l-4-4c-1.6-1.6-3.2-2.4-4.8-3.2
			c-1.6-1.6-3.2-2.4-4.8-3.2c-6.5-4-12.9-7.3-20.2-8.9c-1.6-0.8-3.2-0.8-5.7-0.8c-0.8,0-0.8,0-1.6,0h-0.8h-1.6h-1.6h-1.6
			c-1.6,0-3.2,0-5.7,0h-2.4h-1.6h-0.8h-0.8h-1.6h-0.8h0.8h-1.6h-0.8h-0.8l-2.4,0.8l-3.2,0.8l-2.4,0.8h-0.8h-0.8l-0.8,0.8l0,0l0,0
			h-0.8l-0.8,0.8c-0.8,0-0.8,0.8-0.8,0.8l-0.8,0.8c-6.5,3.2-12.1,8.1-17,13.7c-4.8,5.7-8.9,11.3-11.3,18.6
			c-1.6,3.2-2.4,7.3-3.2,10.5v1.6v0.8v0.8c0,0.8,0,1.6,0,2.4v2.4c0,0.8,0,1.6,0,2.4c0,4,0,7.3,0.8,11.3
			C1374.5,727.5,1375.4,731.6,1377,734.8L1377,734.8z"/>
	</g>
	<g id="bubble-43">
		<circle class="st0" fill="#946EB5" cx="1431.1" cy="706.5" r="62.2"/>
		<path class="st1" fill="#BF7AB3" d="M1377,734.8c-1.6-3.2-3.2-7.3-4.8-10.5c-0.8-1.6-0.8-4-1.6-5.7s-0.8-4-0.8-5.7c0-0.8,0-0.8,0-1.6v-1.6v-3.2
			v-3.2c0-0.8,0-1.6,0-3.2c0.8-4,0.8-8.1,2.4-12.1c0.8-4,2.4-7.3,4.8-11.3c2.4-4,4-7.3,7.3-10.5c4.8-6.5,11.3-11.3,19.4-15.4
			l1.6-0.8c0.8,0,0.8-0.8,1.6-0.8l1.6-0.8h0.8l0,0l0,0l1.6-0.8h0.8h0.8c0.8,0,1.6-0.8,3.2-0.8c4-1.6,8.1-1.6,12.1-2.4h0.8h0.8h1.6
			h3.2c1.6,0,4,0,6.5,0h1.6h1.6h0.8h0.8c0.8,0,0.8,0,1.6,0c1.6,0.8,4,0.8,5.7,1.6c8.1,2.4,15.4,6.5,21,11.3c1.6,1.6,3.2,2.4,4.8,4
			c1.6,1.6,2.4,3.2,4,4.8c1.6,1.6,2.4,3.2,3.2,4.8s1.6,3.2,2.4,4.8c-0.8-1.6-2.4-3.2-4-4.8l-4-4c-1.6-1.6-3.2-2.4-4.8-3.2
			c-1.6-1.6-3.2-2.4-4.8-3.2c-6.5-4-12.9-7.3-20.2-8.9c-1.6-0.8-3.2-0.8-5.7-0.8c-0.8,0-0.8,0-1.6,0h-0.8h-1.6h-1.6h-1.6
			c-1.6,0-3.2,0-5.7,0h-2.4h-1.6h-0.8h-0.8h-1.6h-0.8h0.8h-1.6h-0.8h-0.8l-2.4,0.8l-3.2,0.8l-2.4,0.8h-0.8h-0.8l-0.8,0.8l0,0l0,0
			h-0.8l-0.8,0.8c-0.8,0-0.8,0.8-0.8,0.8l-0.8,0.8c-6.5,3.2-12.1,8.1-17,13.7c-4.8,5.7-8.9,11.3-11.3,18.6
			c-1.6,3.2-2.4,7.3-3.2,10.5v1.6v0.8v0.8c0,0.8,0,1.6,0,2.4v2.4c0,0.8,0,1.6,0,2.4c0,4,0,7.3,0.8,11.3
			C1374.5,727.5,1375.4,731.6,1377,734.8L1377,734.8z"/>
	</g>
	<g id="bubble-44">
		<circle class="st0" fill="#946EB5" cx="1431.1" cy="706.5" r="62.2"/>
		<path class="st1" fill="#BF7AB3" d="M1377,734.8c-1.6-3.2-3.2-7.3-4.8-10.5c-0.8-1.6-0.8-4-1.6-5.7s-0.8-4-0.8-5.7c0-0.8,0-0.8,0-1.6v-1.6v-3.2
			v-3.2c0-0.8,0-1.6,0-3.2c0.8-4,0.8-8.1,2.4-12.1c0.8-4,2.4-7.3,4.8-11.3c2.4-4,4-7.3,7.3-10.5c4.8-6.5,11.3-11.3,19.4-15.4
			l1.6-0.8c0.8,0,0.8-0.8,1.6-0.8l1.6-0.8h0.8l0,0l0,0l1.6-0.8h0.8h0.8c0.8,0,1.6-0.8,3.2-0.8c4-1.6,8.1-1.6,12.1-2.4h0.8h0.8h1.6
			h3.2c1.6,0,4,0,6.5,0h1.6h1.6h0.8h0.8c0.8,0,0.8,0,1.6,0c1.6,0.8,4,0.8,5.7,1.6c8.1,2.4,15.4,6.5,21,11.3c1.6,1.6,3.2,2.4,4.8,4
			c1.6,1.6,2.4,3.2,4,4.8c1.6,1.6,2.4,3.2,3.2,4.8s1.6,3.2,2.4,4.8c-0.8-1.6-2.4-3.2-4-4.8l-4-4c-1.6-1.6-3.2-2.4-4.8-3.2
			c-1.6-1.6-3.2-2.4-4.8-3.2c-6.5-4-12.9-7.3-20.2-8.9c-1.6-0.8-3.2-0.8-5.7-0.8c-0.8,0-0.8,0-1.6,0h-0.8h-1.6h-1.6h-1.6
			c-1.6,0-3.2,0-5.7,0h-2.4h-1.6h-0.8h-0.8h-1.6h-0.8h0.8h-1.6h-0.8h-0.8l-2.4,0.8l-3.2,0.8l-2.4,0.8h-0.8h-0.8l-0.8,0.8l0,0l0,0
			h-0.8l-0.8,0.8c-0.8,0-0.8,0.8-0.8,0.8l-0.8,0.8c-6.5,3.2-12.1,8.1-17,13.7c-4.8,5.7-8.9,11.3-11.3,18.6
			c-1.6,3.2-2.4,7.3-3.2,10.5v1.6v0.8v0.8c0,0.8,0,1.6,0,2.4v2.4c0,0.8,0,1.6,0,2.4c0,4,0,7.3,0.8,11.3
			C1374.5,727.5,1375.4,731.6,1377,734.8L1377,734.8z"/>
	</g>
	<g id="bubble-45">
		<circle class="st0" fill="#946EB5" cx="1431.1" cy="706.5" r="62.2"/>
		<path class="st1" fill="#BF7AB3" d="M1377,734.8c-1.6-3.2-3.2-7.3-4.8-10.5c-0.8-1.6-0.8-4-1.6-5.7s-0.8-4-0.8-5.7c0-0.8,0-0.8,0-1.6v-1.6v-3.2
			v-3.2c0-0.8,0-1.6,0-3.2c0.8-4,0.8-8.1,2.4-12.1c0.8-4,2.4-7.3,4.8-11.3c2.4-4,4-7.3,7.3-10.5c4.8-6.5,11.3-11.3,19.4-15.4
			l1.6-0.8c0.8,0,0.8-0.8,1.6-0.8l1.6-0.8h0.8l0,0l0,0l1.6-0.8h0.8h0.8c0.8,0,1.6-0.8,3.2-0.8c4-1.6,8.1-1.6,12.1-2.4h0.8h0.8h1.6
			h3.2c1.6,0,4,0,6.5,0h1.6h1.6h0.8h0.8c0.8,0,0.8,0,1.6,0c1.6,0.8,4,0.8,5.7,1.6c8.1,2.4,15.4,6.5,21,11.3c1.6,1.6,3.2,2.4,4.8,4
			c1.6,1.6,2.4,3.2,4,4.8c1.6,1.6,2.4,3.2,3.2,4.8s1.6,3.2,2.4,4.8c-0.8-1.6-2.4-3.2-4-4.8l-4-4c-1.6-1.6-3.2-2.4-4.8-3.2
			c-1.6-1.6-3.2-2.4-4.8-3.2c-6.5-4-12.9-7.3-20.2-8.9c-1.6-0.8-3.2-0.8-5.7-0.8c-0.8,0-0.8,0-1.6,0h-0.8h-1.6h-1.6h-1.6
			c-1.6,0-3.2,0-5.7,0h-2.4h-1.6h-0.8h-0.8h-1.6h-0.8h0.8h-1.6h-0.8h-0.8l-2.4,0.8l-3.2,0.8l-2.4,0.8h-0.8h-0.8l-0.8,0.8l0,0l0,0
			h-0.8l-0.8,0.8c-0.8,0-0.8,0.8-0.8,0.8l-0.8,0.8c-6.5,3.2-12.1,8.1-17,13.7c-4.8,5.7-8.9,11.3-11.3,18.6
			c-1.6,3.2-2.4,7.3-3.2,10.5v1.6v0.8v0.8c0,0.8,0,1.6,0,2.4v2.4c0,0.8,0,1.6,0,2.4c0,4,0,7.3,0.8,11.3
			C1374.5,727.5,1375.4,731.6,1377,734.8L1377,734.8z"/>
	</g>
	<g id="bubble-46">
		<circle class="st0" fill="#946EB5" cx="1431.1" cy="706.5" r="62.2"/>
		<path class="st1" fill="#BF7AB3" d="M1377,734.8c-1.6-3.2-3.2-7.3-4.8-10.5c-0.8-1.6-0.8-4-1.6-5.7s-0.8-4-0.8-5.7c0-0.8,0-0.8,0-1.6v-1.6v-3.2
			v-3.2c0-0.8,0-1.6,0-3.2c0.8-4,0.8-8.1,2.4-12.1c0.8-4,2.4-7.3,4.8-11.3c2.4-4,4-7.3,7.3-10.5c4.8-6.5,11.3-11.3,19.4-15.4
			l1.6-0.8c0.8,0,0.8-0.8,1.6-0.8l1.6-0.8h0.8l0,0l0,0l1.6-0.8h0.8h0.8c0.8,0,1.6-0.8,3.2-0.8c4-1.6,8.1-1.6,12.1-2.4h0.8h0.8h1.6
			h3.2c1.6,0,4,0,6.5,0h1.6h1.6h0.8h0.8c0.8,0,0.8,0,1.6,0c1.6,0.8,4,0.8,5.7,1.6c8.1,2.4,15.4,6.5,21,11.3c1.6,1.6,3.2,2.4,4.8,4
			c1.6,1.6,2.4,3.2,4,4.8c1.6,1.6,2.4,3.2,3.2,4.8s1.6,3.2,2.4,4.8c-0.8-1.6-2.4-3.2-4-4.8l-4-4c-1.6-1.6-3.2-2.4-4.8-3.2
			c-1.6-1.6-3.2-2.4-4.8-3.2c-6.5-4-12.9-7.3-20.2-8.9c-1.6-0.8-3.2-0.8-5.7-0.8c-0.8,0-0.8,0-1.6,0h-0.8h-1.6h-1.6h-1.6
			c-1.6,0-3.2,0-5.7,0h-2.4h-1.6h-0.8h-0.8h-1.6h-0.8h0.8h-1.6h-0.8h-0.8l-2.4,0.8l-3.2,0.8l-2.4,0.8h-0.8h-0.8l-0.8,0.8l0,0l0,0
			h-0.8l-0.8,0.8c-0.8,0-0.8,0.8-0.8,0.8l-0.8,0.8c-6.5,3.2-12.1,8.1-17,13.7c-4.8,5.7-8.9,11.3-11.3,18.6
			c-1.6,3.2-2.4,7.3-3.2,10.5v1.6v0.8v0.8c0,0.8,0,1.6,0,2.4v2.4c0,0.8,0,1.6,0,2.4c0,4,0,7.3,0.8,11.3
			C1374.5,727.5,1375.4,731.6,1377,734.8L1377,734.8z"/>
	</g>
	<g id="bubble-47">
		<circle class="st0" fill="#946EB5" cx="1431.1" cy="706.5" r="62.2"/>
		<path class="st1" fill="#BF7AB3" d="M1377,734.8c-1.6-3.2-3.2-7.3-4.8-10.5c-0.8-1.6-0.8-4-1.6-5.7s-0.8-4-0.8-5.7c0-0.8,0-0.8,0-1.6v-1.6v-3.2
			v-3.2c0-0.8,0-1.6,0-3.2c0.8-4,0.8-8.1,2.4-12.1c0.8-4,2.4-7.3,4.8-11.3c2.4-4,4-7.3,7.3-10.5c4.8-6.5,11.3-11.3,19.4-15.4
			l1.6-0.8c0.8,0,0.8-0.8,1.6-0.8l1.6-0.8h0.8l0,0l0,0l1.6-0.8h0.8h0.8c0.8,0,1.6-0.8,3.2-0.8c4-1.6,8.1-1.6,12.1-2.4h0.8h0.8h1.6
			h3.2c1.6,0,4,0,6.5,0h1.6h1.6h0.8h0.8c0.8,0,0.8,0,1.6,0c1.6,0.8,4,0.8,5.7,1.6c8.1,2.4,15.4,6.5,21,11.3c1.6,1.6,3.2,2.4,4.8,4
			c1.6,1.6,2.4,3.2,4,4.8c1.6,1.6,2.4,3.2,3.2,4.8s1.6,3.2,2.4,4.8c-0.8-1.6-2.4-3.2-4-4.8l-4-4c-1.6-1.6-3.2-2.4-4.8-3.2
			c-1.6-1.6-3.2-2.4-4.8-3.2c-6.5-4-12.9-7.3-20.2-8.9c-1.6-0.8-3.2-0.8-5.7-0.8c-0.8,0-0.8,0-1.6,0h-0.8h-1.6h-1.6h-1.6
			c-1.6,0-3.2,0-5.7,0h-2.4h-1.6h-0.8h-0.8h-1.6h-0.8h0.8h-1.6h-0.8h-0.8l-2.4,0.8l-3.2,0.8l-2.4,0.8h-0.8h-0.8l-0.8,0.8l0,0l0,0
			h-0.8l-0.8,0.8c-0.8,0-0.8,0.8-0.8,0.8l-0.8,0.8c-6.5,3.2-12.1,8.1-17,13.7c-4.8,5.7-8.9,11.3-11.3,18.6
			c-1.6,3.2-2.4,7.3-3.2,10.5v1.6v0.8v0.8c0,0.8,0,1.6,0,2.4v2.4c0,0.8,0,1.6,0,2.4c0,4,0,7.3,0.8,11.3
			C1374.5,727.5,1375.4,731.6,1377,734.8L1377,734.8z"/>
	</g>
	<g id="bubble-48">
		<circle class="st0" fill="#946EB5" cx="1431.1" cy="706.5" r="62.2"/>
		<path class="st1" fill="#BF7AB3" d="M1377,734.8c-1.6-3.2-3.2-7.3-4.8-10.5c-0.8-1.6-0.8-4-1.6-5.7s-0.8-4-0.8-5.7c0-0.8,0-0.8,0-1.6v-1.6v-3.2
			v-3.2c0-0.8,0-1.6,0-3.2c0.8-4,0.8-8.1,2.4-12.1c0.8-4,2.4-7.3,4.8-11.3c2.4-4,4-7.3,7.3-10.5c4.8-6.5,11.3-11.3,19.4-15.4
			l1.6-0.8c0.8,0,0.8-0.8,1.6-0.8l1.6-0.8h0.8l0,0l0,0l1.6-0.8h0.8h0.8c0.8,0,1.6-0.8,3.2-0.8c4-1.6,8.1-1.6,12.1-2.4h0.8h0.8h1.6
			h3.2c1.6,0,4,0,6.5,0h1.6h1.6h0.8h0.8c0.8,0,0.8,0,1.6,0c1.6,0.8,4,0.8,5.7,1.6c8.1,2.4,15.4,6.5,21,11.3c1.6,1.6,3.2,2.4,4.8,4
			c1.6,1.6,2.4,3.2,4,4.8c1.6,1.6,2.4,3.2,3.2,4.8s1.6,3.2,2.4,4.8c-0.8-1.6-2.4-3.2-4-4.8l-4-4c-1.6-1.6-3.2-2.4-4.8-3.2
			c-1.6-1.6-3.2-2.4-4.8-3.2c-6.5-4-12.9-7.3-20.2-8.9c-1.6-0.8-3.2-0.8-5.7-0.8c-0.8,0-0.8,0-1.6,0h-0.8h-1.6h-1.6h-1.6
			c-1.6,0-3.2,0-5.7,0h-2.4h-1.6h-0.8h-0.8h-1.6h-0.8h0.8h-1.6h-0.8h-0.8l-2.4,0.8l-3.2,0.8l-2.4,0.8h-0.8h-0.8l-0.8,0.8l0,0l0,0
			h-0.8l-0.8,0.8c-0.8,0-0.8,0.8-0.8,0.8l-0.8,0.8c-6.5,3.2-12.1,8.1-17,13.7c-4.8,5.7-8.9,11.3-11.3,18.6
			c-1.6,3.2-2.4,7.3-3.2,10.5v1.6v0.8v0.8c0,0.8,0,1.6,0,2.4v2.4c0,0.8,0,1.6,0,2.4c0,4,0,7.3,0.8,11.3
			C1374.5,727.5,1375.4,731.6,1377,734.8L1377,734.8z"/>
	</g>
	<g id="bubble-49">
		<circle class="st0" fill="#946EB5" cx="1431.1" cy="706.5" r="62.2"/>
		<path class="st1" fill="#BF7AB3" d="M1377,734.8c-1.6-3.2-3.2-7.3-4.8-10.5c-0.8-1.6-0.8-4-1.6-5.7s-0.8-4-0.8-5.7c0-0.8,0-0.8,0-1.6v-1.6v-3.2
			v-3.2c0-0.8,0-1.6,0-3.2c0.8-4,0.8-8.1,2.4-12.1c0.8-4,2.4-7.3,4.8-11.3c2.4-4,4-7.3,7.3-10.5c4.8-6.5,11.3-11.3,19.4-15.4
			l1.6-0.8c0.8,0,0.8-0.8,1.6-0.8l1.6-0.8h0.8l0,0l0,0l1.6-0.8h0.8h0.8c0.8,0,1.6-0.8,3.2-0.8c4-1.6,8.1-1.6,12.1-2.4h0.8h0.8h1.6
			h3.2c1.6,0,4,0,6.5,0h1.6h1.6h0.8h0.8c0.8,0,0.8,0,1.6,0c1.6,0.8,4,0.8,5.7,1.6c8.1,2.4,15.4,6.5,21,11.3c1.6,1.6,3.2,2.4,4.8,4
			c1.6,1.6,2.4,3.2,4,4.8c1.6,1.6,2.4,3.2,3.2,4.8s1.6,3.2,2.4,4.8c-0.8-1.6-2.4-3.2-4-4.8l-4-4c-1.6-1.6-3.2-2.4-4.8-3.2
			c-1.6-1.6-3.2-2.4-4.8-3.2c-6.5-4-12.9-7.3-20.2-8.9c-1.6-0.8-3.2-0.8-5.7-0.8c-0.8,0-0.8,0-1.6,0h-0.8h-1.6h-1.6h-1.6
			c-1.6,0-3.2,0-5.7,0h-2.4h-1.6h-0.8h-0.8h-1.6h-0.8h0.8h-1.6h-0.8h-0.8l-2.4,0.8l-3.2,0.8l-2.4,0.8h-0.8h-0.8l-0.8,0.8l0,0l0,0
			h-0.8l-0.8,0.8c-0.8,0-0.8,0.8-0.8,0.8l-0.8,0.8c-6.5,3.2-12.1,8.1-17,13.7c-4.8,5.7-8.9,11.3-11.3,18.6
			c-1.6,3.2-2.4,7.3-3.2,10.5v1.6v0.8v0.8c0,0.8,0,1.6,0,2.4v2.4c0,0.8,0,1.6,0,2.4c0,4,0,7.3,0.8,11.3
			C1374.5,727.5,1375.4,731.6,1377,734.8L1377,734.8z"/>
	</g>
	<g id="bubble-50">
		<circle class="st0" fill="#946EB5" cx="1431.1" cy="706.5" r="62.2"/>
		<path class="st1" fill="#BF7AB3" d="M1377,734.8c-1.6-3.2-3.2-7.3-4.8-10.5c-0.8-1.6-0.8-4-1.6-5.7s-0.8-4-0.8-5.7c0-0.8,0-0.8,0-1.6v-1.6v-3.2
			v-3.2c0-0.8,0-1.6,0-3.2c0.8-4,0.8-8.1,2.4-12.1c0.8-4,2.4-7.3,4.8-11.3c2.4-4,4-7.3,7.3-10.5c4.8-6.5,11.3-11.3,19.4-15.4
			l1.6-0.8c0.8,0,0.8-0.8,1.6-0.8l1.6-0.8h0.8l0,0l0,0l1.6-0.8h0.8h0.8c0.8,0,1.6-0.8,3.2-0.8c4-1.6,8.1-1.6,12.1-2.4h0.8h0.8h1.6
			h3.2c1.6,0,4,0,6.5,0h1.6h1.6h0.8h0.8c0.8,0,0.8,0,1.6,0c1.6,0.8,4,0.8,5.7,1.6c8.1,2.4,15.4,6.5,21,11.3c1.6,1.6,3.2,2.4,4.8,4
			c1.6,1.6,2.4,3.2,4,4.8c1.6,1.6,2.4,3.2,3.2,4.8s1.6,3.2,2.4,4.8c-0.8-1.6-2.4-3.2-4-4.8l-4-4c-1.6-1.6-3.2-2.4-4.8-3.2
			c-1.6-1.6-3.2-2.4-4.8-3.2c-6.5-4-12.9-7.3-20.2-8.9c-1.6-0.8-3.2-0.8-5.7-0.8c-0.8,0-0.8,0-1.6,0h-0.8h-1.6h-1.6h-1.6
			c-1.6,0-3.2,0-5.7,0h-2.4h-1.6h-0.8h-0.8h-1.6h-0.8h0.8h-1.6h-0.8h-0.8l-2.4,0.8l-3.2,0.8l-2.4,0.8h-0.8h-0.8l-0.8,0.8l0,0l0,0
			h-0.8l-0.8,0.8c-0.8,0-0.8,0.8-0.8,0.8l-0.8,0.8c-6.5,3.2-12.1,8.1-17,13.7c-4.8,5.7-8.9,11.3-11.3,18.6
			c-1.6,3.2-2.4,7.3-3.2,10.5v1.6v0.8v0.8c0,0.8,0,1.6,0,2.4v2.4c0,0.8,0,1.6,0,2.4c0,4,0,7.3,0.8,11.3
			C1374.5,727.5,1375.4,731.6,1377,734.8L1377,734.8z"/>
	</g>
	<g id="bubble-51">
		<circle class="st0" fill="#946EB5" cx="1431.1" cy="706.5" r="62.2"/>
		<path class="st1" fill="#BF7AB3" d="M1377,734.8c-1.6-3.2-3.2-7.3-4.8-10.5c-0.8-1.6-0.8-4-1.6-5.7s-0.8-4-0.8-5.7c0-0.8,0-0.8,0-1.6v-1.6v-3.2
			v-3.2c0-0.8,0-1.6,0-3.2c0.8-4,0.8-8.1,2.4-12.1c0.8-4,2.4-7.3,4.8-11.3c2.4-4,4-7.3,7.3-10.5c4.8-6.5,11.3-11.3,19.4-15.4
			l1.6-0.8c0.8,0,0.8-0.8,1.6-0.8l1.6-0.8h0.8l0,0l0,0l1.6-0.8h0.8h0.8c0.8,0,1.6-0.8,3.2-0.8c4-1.6,8.1-1.6,12.1-2.4h0.8h0.8h1.6
			h3.2c1.6,0,4,0,6.5,0h1.6h1.6h0.8h0.8c0.8,0,0.8,0,1.6,0c1.6,0.8,4,0.8,5.7,1.6c8.1,2.4,15.4,6.5,21,11.3c1.6,1.6,3.2,2.4,4.8,4
			c1.6,1.6,2.4,3.2,4,4.8c1.6,1.6,2.4,3.2,3.2,4.8s1.6,3.2,2.4,4.8c-0.8-1.6-2.4-3.2-4-4.8l-4-4c-1.6-1.6-3.2-2.4-4.8-3.2
			c-1.6-1.6-3.2-2.4-4.8-3.2c-6.5-4-12.9-7.3-20.2-8.9c-1.6-0.8-3.2-0.8-5.7-0.8c-0.8,0-0.8,0-1.6,0h-0.8h-1.6h-1.6h-1.6
			c-1.6,0-3.2,0-5.7,0h-2.4h-1.6h-0.8h-0.8h-1.6h-0.8h0.8h-1.6h-0.8h-0.8l-2.4,0.8l-3.2,0.8l-2.4,0.8h-0.8h-0.8l-0.8,0.8l0,0l0,0
			h-0.8l-0.8,0.8c-0.8,0-0.8,0.8-0.8,0.8l-0.8,0.8c-6.5,3.2-12.1,8.1-17,13.7c-4.8,5.7-8.9,11.3-11.3,18.6
			c-1.6,3.2-2.4,7.3-3.2,10.5v1.6v0.8v0.8c0,0.8,0,1.6,0,2.4v2.4c0,0.8,0,1.6,0,2.4c0,4,0,7.3,0.8,11.3
			C1374.5,727.5,1375.4,731.6,1377,734.8L1377,734.8z"/>
	</g>
	<g id="bubble-52">
		<circle class="st0" fill="#946EB5" cx="1431.1" cy="706.5" r="62.2"/>
		<path class="st1" fill="#BF7AB3" d="M1377,734.8c-1.6-3.2-3.2-7.3-4.8-10.5c-0.8-1.6-0.8-4-1.6-5.7s-0.8-4-0.8-5.7c0-0.8,0-0.8,0-1.6v-1.6v-3.2
			v-3.2c0-0.8,0-1.6,0-3.2c0.8-4,0.8-8.1,2.4-12.1c0.8-4,2.4-7.3,4.8-11.3c2.4-4,4-7.3,7.3-10.5c4.8-6.5,11.3-11.3,19.4-15.4
			l1.6-0.8c0.8,0,0.8-0.8,1.6-0.8l1.6-0.8h0.8l0,0l0,0l1.6-0.8h0.8h0.8c0.8,0,1.6-0.8,3.2-0.8c4-1.6,8.1-1.6,12.1-2.4h0.8h0.8h1.6
			h3.2c1.6,0,4,0,6.5,0h1.6h1.6h0.8h0.8c0.8,0,0.8,0,1.6,0c1.6,0.8,4,0.8,5.7,1.6c8.1,2.4,15.4,6.5,21,11.3c1.6,1.6,3.2,2.4,4.8,4
			c1.6,1.6,2.4,3.2,4,4.8c1.6,1.6,2.4,3.2,3.2,4.8s1.6,3.2,2.4,4.8c-0.8-1.6-2.4-3.2-4-4.8l-4-4c-1.6-1.6-3.2-2.4-4.8-3.2
			c-1.6-1.6-3.2-2.4-4.8-3.2c-6.5-4-12.9-7.3-20.2-8.9c-1.6-0.8-3.2-0.8-5.7-0.8c-0.8,0-0.8,0-1.6,0h-0.8h-1.6h-1.6h-1.6
			c-1.6,0-3.2,0-5.7,0h-2.4h-1.6h-0.8h-0.8h-1.6h-0.8h0.8h-1.6h-0.8h-0.8l-2.4,0.8l-3.2,0.8l-2.4,0.8h-0.8h-0.8l-0.8,0.8l0,0l0,0
			h-0.8l-0.8,0.8c-0.8,0-0.8,0.8-0.8,0.8l-0.8,0.8c-6.5,3.2-12.1,8.1-17,13.7c-4.8,5.7-8.9,11.3-11.3,18.6
			c-1.6,3.2-2.4,7.3-3.2,10.5v1.6v0.8v0.8c0,0.8,0,1.6,0,2.4v2.4c0,0.8,0,1.6,0,2.4c0,4,0,7.3,0.8,11.3
			C1374.5,727.5,1375.4,731.6,1377,734.8L1377,734.8z"/>
	</g>
	<g id="bubble-53">
		<circle class="st0" fill="#946EB5" cx="1431.1" cy="706.5" r="62.2"/>
		<path class="st1" fill="#BF7AB3" d="M1377,734.8c-1.6-3.2-3.2-7.3-4.8-10.5c-0.8-1.6-0.8-4-1.6-5.7s-0.8-4-0.8-5.7c0-0.8,0-0.8,0-1.6v-1.6v-3.2
			v-3.2c0-0.8,0-1.6,0-3.2c0.8-4,0.8-8.1,2.4-12.1c0.8-4,2.4-7.3,4.8-11.3c2.4-4,4-7.3,7.3-10.5c4.8-6.5,11.3-11.3,19.4-15.4
			l1.6-0.8c0.8,0,0.8-0.8,1.6-0.8l1.6-0.8h0.8l0,0l0,0l1.6-0.8h0.8h0.8c0.8,0,1.6-0.8,3.2-0.8c4-1.6,8.1-1.6,12.1-2.4h0.8h0.8h1.6
			h3.2c1.6,0,4,0,6.5,0h1.6h1.6h0.8h0.8c0.8,0,0.8,0,1.6,0c1.6,0.8,4,0.8,5.7,1.6c8.1,2.4,15.4,6.5,21,11.3c1.6,1.6,3.2,2.4,4.8,4
			c1.6,1.6,2.4,3.2,4,4.8c1.6,1.6,2.4,3.2,3.2,4.8s1.6,3.2,2.4,4.8c-0.8-1.6-2.4-3.2-4-4.8l-4-4c-1.6-1.6-3.2-2.4-4.8-3.2
			c-1.6-1.6-3.2-2.4-4.8-3.2c-6.5-4-12.9-7.3-20.2-8.9c-1.6-0.8-3.2-0.8-5.7-0.8c-0.8,0-0.8,0-1.6,0h-0.8h-1.6h-1.6h-1.6
			c-1.6,0-3.2,0-5.7,0h-2.4h-1.6h-0.8h-0.8h-1.6h-0.8h0.8h-1.6h-0.8h-0.8l-2.4,0.8l-3.2,0.8l-2.4,0.8h-0.8h-0.8l-0.8,0.8l0,0l0,0
			h-0.8l-0.8,0.8c-0.8,0-0.8,0.8-0.8,0.8l-0.8,0.8c-6.5,3.2-12.1,8.1-17,13.7c-4.8,5.7-8.9,11.3-11.3,18.6
			c-1.6,3.2-2.4,7.3-3.2,10.5v1.6v0.8v0.8c0,0.8,0,1.6,0,2.4v2.4c0,0.8,0,1.6,0,2.4c0,4,0,7.3,0.8,11.3
			C1374.5,727.5,1375.4,731.6,1377,734.8L1377,734.8z"/>
	</g>
	<g id="bubble-54">
		<circle class="st0" fill="#946EB5" cx="1431.1" cy="706.5" r="62.2"/>
		<path class="st1" fill="#BF7AB3" d="M1377,734.8c-1.6-3.2-3.2-7.3-4.8-10.5c-0.8-1.6-0.8-4-1.6-5.7s-0.8-4-0.8-5.7c0-0.8,0-0.8,0-1.6v-1.6v-3.2
			v-3.2c0-0.8,0-1.6,0-3.2c0.8-4,0.8-8.1,2.4-12.1c0.8-4,2.4-7.3,4.8-11.3c2.4-4,4-7.3,7.3-10.5c4.8-6.5,11.3-11.3,19.4-15.4
			l1.6-0.8c0.8,0,0.8-0.8,1.6-0.8l1.6-0.8h0.8l0,0l0,0l1.6-0.8h0.8h0.8c0.8,0,1.6-0.8,3.2-0.8c4-1.6,8.1-1.6,12.1-2.4h0.8h0.8h1.6
			h3.2c1.6,0,4,0,6.5,0h1.6h1.6h0.8h0.8c0.8,0,0.8,0,1.6,0c1.6,0.8,4,0.8,5.7,1.6c8.1,2.4,15.4,6.5,21,11.3c1.6,1.6,3.2,2.4,4.8,4
			c1.6,1.6,2.4,3.2,4,4.8c1.6,1.6,2.4,3.2,3.2,4.8s1.6,3.2,2.4,4.8c-0.8-1.6-2.4-3.2-4-4.8l-4-4c-1.6-1.6-3.2-2.4-4.8-3.2
			c-1.6-1.6-3.2-2.4-4.8-3.2c-6.5-4-12.9-7.3-20.2-8.9c-1.6-0.8-3.2-0.8-5.7-0.8c-0.8,0-0.8,0-1.6,0h-0.8h-1.6h-1.6h-1.6
			c-1.6,0-3.2,0-5.7,0h-2.4h-1.6h-0.8h-0.8h-1.6h-0.8h0.8h-1.6h-0.8h-0.8l-2.4,0.8l-3.2,0.8l-2.4,0.8h-0.8h-0.8l-0.8,0.8l0,0l0,0
			h-0.8l-0.8,0.8c-0.8,0-0.8,0.8-0.8,0.8l-0.8,0.8c-6.5,3.2-12.1,8.1-17,13.7c-4.8,5.7-8.9,11.3-11.3,18.6
			c-1.6,3.2-2.4,7.3-3.2,10.5v1.6v0.8v0.8c0,0.8,0,1.6,0,2.4v2.4c0,0.8,0,1.6,0,2.4c0,4,0,7.3,0.8,11.3
			C1374.5,727.5,1375.4,731.6,1377,734.8L1377,734.8z"/>
	</g>
	<g id="bubble-55">
		<circle class="st0" fill="#946EB5" cx="1431.1" cy="706.5" r="62.2"/>
		<path class="st1" fill="#BF7AB3" d="M1377,734.8c-1.6-3.2-3.2-7.3-4.8-10.5c-0.8-1.6-0.8-4-1.6-5.7s-0.8-4-0.8-5.7c0-0.8,0-0.8,0-1.6v-1.6v-3.2
			v-3.2c0-0.8,0-1.6,0-3.2c0.8-4,0.8-8.1,2.4-12.1c0.8-4,2.4-7.3,4.8-11.3c2.4-4,4-7.3,7.3-10.5c4.8-6.5,11.3-11.3,19.4-15.4
			l1.6-0.8c0.8,0,0.8-0.8,1.6-0.8l1.6-0.8h0.8l0,0l0,0l1.6-0.8h0.8h0.8c0.8,0,1.6-0.8,3.2-0.8c4-1.6,8.1-1.6,12.1-2.4h0.8h0.8h1.6
			h3.2c1.6,0,4,0,6.5,0h1.6h1.6h0.8h0.8c0.8,0,0.8,0,1.6,0c1.6,0.8,4,0.8,5.7,1.6c8.1,2.4,15.4,6.5,21,11.3c1.6,1.6,3.2,2.4,4.8,4
			c1.6,1.6,2.4,3.2,4,4.8c1.6,1.6,2.4,3.2,3.2,4.8s1.6,3.2,2.4,4.8c-0.8-1.6-2.4-3.2-4-4.8l-4-4c-1.6-1.6-3.2-2.4-4.8-3.2
			c-1.6-1.6-3.2-2.4-4.8-3.2c-6.5-4-12.9-7.3-20.2-8.9c-1.6-0.8-3.2-0.8-5.7-0.8c-0.8,0-0.8,0-1.6,0h-0.8h-1.6h-1.6h-1.6
			c-1.6,0-3.2,0-5.7,0h-2.4h-1.6h-0.8h-0.8h-1.6h-0.8h0.8h-1.6h-0.8h-0.8l-2.4,0.8l-3.2,0.8l-2.4,0.8h-0.8h-0.8l-0.8,0.8l0,0l0,0
			h-0.8l-0.8,0.8c-0.8,0-0.8,0.8-0.8,0.8l-0.8,0.8c-6.5,3.2-12.1,8.1-17,13.7c-4.8,5.7-8.9,11.3-11.3,18.6
			c-1.6,3.2-2.4,7.3-3.2,10.5v1.6v0.8v0.8c0,0.8,0,1.6,0,2.4v2.4c0,0.8,0,1.6,0,2.4c0,4,0,7.3,0.8,11.3
			C1374.5,727.5,1375.4,731.6,1377,734.8L1377,734.8z"/>
	</g>
	<g id="bubble-56">
		<circle class="st0" fill="#946EB5" cx="1431.1" cy="706.5" r="62.2"/>
		<path class="st1" fill="#BF7AB3" d="M1377,734.8c-1.6-3.2-3.2-7.3-4.8-10.5c-0.8-1.6-0.8-4-1.6-5.7s-0.8-4-0.8-5.7c0-0.8,0-0.8,0-1.6v-1.6v-3.2
			v-3.2c0-0.8,0-1.6,0-3.2c0.8-4,0.8-8.1,2.4-12.1c0.8-4,2.4-7.3,4.8-11.3c2.4-4,4-7.3,7.3-10.5c4.8-6.5,11.3-11.3,19.4-15.4
			l1.6-0.8c0.8,0,0.8-0.8,1.6-0.8l1.6-0.8h0.8l0,0l0,0l1.6-0.8h0.8h0.8c0.8,0,1.6-0.8,3.2-0.8c4-1.6,8.1-1.6,12.1-2.4h0.8h0.8h1.6
			h3.2c1.6,0,4,0,6.5,0h1.6h1.6h0.8h0.8c0.8,0,0.8,0,1.6,0c1.6,0.8,4,0.8,5.7,1.6c8.1,2.4,15.4,6.5,21,11.3c1.6,1.6,3.2,2.4,4.8,4
			c1.6,1.6,2.4,3.2,4,4.8c1.6,1.6,2.4,3.2,3.2,4.8s1.6,3.2,2.4,4.8c-0.8-1.6-2.4-3.2-4-4.8l-4-4c-1.6-1.6-3.2-2.4-4.8-3.2
			c-1.6-1.6-3.2-2.4-4.8-3.2c-6.5-4-12.9-7.3-20.2-8.9c-1.6-0.8-3.2-0.8-5.7-0.8c-0.8,0-0.8,0-1.6,0h-0.8h-1.6h-1.6h-1.6
			c-1.6,0-3.2,0-5.7,0h-2.4h-1.6h-0.8h-0.8h-1.6h-0.8h0.8h-1.6h-0.8h-0.8l-2.4,0.8l-3.2,0.8l-2.4,0.8h-0.8h-0.8l-0.8,0.8l0,0l0,0
			h-0.8l-0.8,0.8c-0.8,0-0.8,0.8-0.8,0.8l-0.8,0.8c-6.5,3.2-12.1,8.1-17,13.7c-4.8,5.7-8.9,11.3-11.3,18.6
			c-1.6,3.2-2.4,7.3-3.2,10.5v1.6v0.8v0.8c0,0.8,0,1.6,0,2.4v2.4c0,0.8,0,1.6,0,2.4c0,4,0,7.3,0.8,11.3
			C1374.5,727.5,1375.4,731.6,1377,734.8L1377,734.8z"/>
	</g>
	<g id="bubble-57">
		<circle class="st0" fill="#946EB5" cx="1431.1" cy="706.5" r="62.2"/>
		<path class="st1" fill="#BF7AB3" d="M1377,734.8c-1.6-3.2-3.2-7.3-4.8-10.5c-0.8-1.6-0.8-4-1.6-5.7s-0.8-4-0.8-5.7c0-0.8,0-0.8,0-1.6v-1.6v-3.2
			v-3.2c0-0.8,0-1.6,0-3.2c0.8-4,0.8-8.1,2.4-12.1c0.8-4,2.4-7.3,4.8-11.3c2.4-4,4-7.3,7.3-10.5c4.8-6.5,11.3-11.3,19.4-15.4
			l1.6-0.8c0.8,0,0.8-0.8,1.6-0.8l1.6-0.8h0.8l0,0l0,0l1.6-0.8h0.8h0.8c0.8,0,1.6-0.8,3.2-0.8c4-1.6,8.1-1.6,12.1-2.4h0.8h0.8h1.6
			h3.2c1.6,0,4,0,6.5,0h1.6h1.6h0.8h0.8c0.8,0,0.8,0,1.6,0c1.6,0.8,4,0.8,5.7,1.6c8.1,2.4,15.4,6.5,21,11.3c1.6,1.6,3.2,2.4,4.8,4
			c1.6,1.6,2.4,3.2,4,4.8c1.6,1.6,2.4,3.2,3.2,4.8s1.6,3.2,2.4,4.8c-0.8-1.6-2.4-3.2-4-4.8l-4-4c-1.6-1.6-3.2-2.4-4.8-3.2
			c-1.6-1.6-3.2-2.4-4.8-3.2c-6.5-4-12.9-7.3-20.2-8.9c-1.6-0.8-3.2-0.8-5.7-0.8c-0.8,0-0.8,0-1.6,0h-0.8h-1.6h-1.6h-1.6
			c-1.6,0-3.2,0-5.7,0h-2.4h-1.6h-0.8h-0.8h-1.6h-0.8h0.8h-1.6h-0.8h-0.8l-2.4,0.8l-3.2,0.8l-2.4,0.8h-0.8h-0.8l-0.8,0.8l0,0l0,0
			h-0.8l-0.8,0.8c-0.8,0-0.8,0.8-0.8,0.8l-0.8,0.8c-6.5,3.2-12.1,8.1-17,13.7c-4.8,5.7-8.9,11.3-11.3,18.6
			c-1.6,3.2-2.4,7.3-3.2,10.5v1.6v0.8v0.8c0,0.8,0,1.6,0,2.4v2.4c0,0.8,0,1.6,0,2.4c0,4,0,7.3,0.8,11.3
			C1374.5,727.5,1375.4,731.6,1377,734.8L1377,734.8z"/>
	</g>
	<g id="bubble-58">
		<circle class="st0" fill="#946EB5" cx="1431.1" cy="706.5" r="62.2"/>
		<path class="st1" fill="#BF7AB3" d="M1377,734.8c-1.6-3.2-3.2-7.3-4.8-10.5c-0.8-1.6-0.8-4-1.6-5.7s-0.8-4-0.8-5.7c0-0.8,0-0.8,0-1.6v-1.6v-3.2
			v-3.2c0-0.8,0-1.6,0-3.2c0.8-4,0.8-8.1,2.4-12.1c0.8-4,2.4-7.3,4.8-11.3c2.4-4,4-7.3,7.3-10.5c4.8-6.5,11.3-11.3,19.4-15.4
			l1.6-0.8c0.8,0,0.8-0.8,1.6-0.8l1.6-0.8h0.8l0,0l0,0l1.6-0.8h0.8h0.8c0.8,0,1.6-0.8,3.2-0.8c4-1.6,8.1-1.6,12.1-2.4h0.8h0.8h1.6
			h3.2c1.6,0,4,0,6.5,0h1.6h1.6h0.8h0.8c0.8,0,0.8,0,1.6,0c1.6,0.8,4,0.8,5.7,1.6c8.1,2.4,15.4,6.5,21,11.3c1.6,1.6,3.2,2.4,4.8,4
			c1.6,1.6,2.4,3.2,4,4.8c1.6,1.6,2.4,3.2,3.2,4.8s1.6,3.2,2.4,4.8c-0.8-1.6-2.4-3.2-4-4.8l-4-4c-1.6-1.6-3.2-2.4-4.8-3.2
			c-1.6-1.6-3.2-2.4-4.8-3.2c-6.5-4-12.9-7.3-20.2-8.9c-1.6-0.8-3.2-0.8-5.7-0.8c-0.8,0-0.8,0-1.6,0h-0.8h-1.6h-1.6h-1.6
			c-1.6,0-3.2,0-5.7,0h-2.4h-1.6h-0.8h-0.8h-1.6h-0.8h0.8h-1.6h-0.8h-0.8l-2.4,0.8l-3.2,0.8l-2.4,0.8h-0.8h-0.8l-0.8,0.8l0,0l0,0
			h-0.8l-0.8,0.8c-0.8,0-0.8,0.8-0.8,0.8l-0.8,0.8c-6.5,3.2-12.1,8.1-17,13.7c-4.8,5.7-8.9,11.3-11.3,18.6
			c-1.6,3.2-2.4,7.3-3.2,10.5v1.6v0.8v0.8c0,0.8,0,1.6,0,2.4v2.4c0,0.8,0,1.6,0,2.4c0,4,0,7.3,0.8,11.3
			C1374.5,727.5,1375.4,731.6,1377,734.8L1377,734.8z"/>
	</g>
	<g id="bubble-59">
		<circle class="st0" fill="#946EB5" cx="1431.1" cy="706.5" r="62.2"/>
		<path class="st1" fill="#BF7AB3" d="M1377,734.8c-1.6-3.2-3.2-7.3-4.8-10.5c-0.8-1.6-0.8-4-1.6-5.7s-0.8-4-0.8-5.7c0-0.8,0-0.8,0-1.6v-1.6v-3.2
			v-3.2c0-0.8,0-1.6,0-3.2c0.8-4,0.8-8.1,2.4-12.1c0.8-4,2.4-7.3,4.8-11.3c2.4-4,4-7.3,7.3-10.5c4.8-6.5,11.3-11.3,19.4-15.4
			l1.6-0.8c0.8,0,0.8-0.8,1.6-0.8l1.6-0.8h0.8l0,0l0,0l1.6-0.8h0.8h0.8c0.8,0,1.6-0.8,3.2-0.8c4-1.6,8.1-1.6,12.1-2.4h0.8h0.8h1.6
			h3.2c1.6,0,4,0,6.5,0h1.6h1.6h0.8h0.8c0.8,0,0.8,0,1.6,0c1.6,0.8,4,0.8,5.7,1.6c8.1,2.4,15.4,6.5,21,11.3c1.6,1.6,3.2,2.4,4.8,4
			c1.6,1.6,2.4,3.2,4,4.8c1.6,1.6,2.4,3.2,3.2,4.8s1.6,3.2,2.4,4.8c-0.8-1.6-2.4-3.2-4-4.8l-4-4c-1.6-1.6-3.2-2.4-4.8-3.2
			c-1.6-1.6-3.2-2.4-4.8-3.2c-6.5-4-12.9-7.3-20.2-8.9c-1.6-0.8-3.2-0.8-5.7-0.8c-0.8,0-0.8,0-1.6,0h-0.8h-1.6h-1.6h-1.6
			c-1.6,0-3.2,0-5.7,0h-2.4h-1.6h-0.8h-0.8h-1.6h-0.8h0.8h-1.6h-0.8h-0.8l-2.4,0.8l-3.2,0.8l-2.4,0.8h-0.8h-0.8l-0.8,0.8l0,0l0,0
			h-0.8l-0.8,0.8c-0.8,0-0.8,0.8-0.8,0.8l-0.8,0.8c-6.5,3.2-12.1,8.1-17,13.7c-4.8,5.7-8.9,11.3-11.3,18.6
			c-1.6,3.2-2.4,7.3-3.2,10.5v1.6v0.8v0.8c0,0.8,0,1.6,0,2.4v2.4c0,0.8,0,1.6,0,2.4c0,4,0,7.3,0.8,11.3
			C1374.5,727.5,1375.4,731.6,1377,734.8L1377,734.8z"/>
	</g>
	<g id="bubble-60">
		<circle class="st0" fill="#946EB5" cx="1431.1" cy="706.5" r="62.2"/>
		<path class="st1" fill="#BF7AB3" d="M1377,734.8c-1.6-3.2-3.2-7.3-4.8-10.5c-0.8-1.6-0.8-4-1.6-5.7s-0.8-4-0.8-5.7c0-0.8,0-0.8,0-1.6v-1.6v-3.2
			v-3.2c0-0.8,0-1.6,0-3.2c0.8-4,0.8-8.1,2.4-12.1c0.8-4,2.4-7.3,4.8-11.3c2.4-4,4-7.3,7.3-10.5c4.8-6.5,11.3-11.3,19.4-15.4
			l1.6-0.8c0.8,0,0.8-0.8,1.6-0.8l1.6-0.8h0.8l0,0l0,0l1.6-0.8h0.8h0.8c0.8,0,1.6-0.8,3.2-0.8c4-1.6,8.1-1.6,12.1-2.4h0.8h0.8h1.6
			h3.2c1.6,0,4,0,6.5,0h1.6h1.6h0.8h0.8c0.8,0,0.8,0,1.6,0c1.6,0.8,4,0.8,5.7,1.6c8.1,2.4,15.4,6.5,21,11.3c1.6,1.6,3.2,2.4,4.8,4
			c1.6,1.6,2.4,3.2,4,4.8c1.6,1.6,2.4,3.2,3.2,4.8s1.6,3.2,2.4,4.8c-0.8-1.6-2.4-3.2-4-4.8l-4-4c-1.6-1.6-3.2-2.4-4.8-3.2
			c-1.6-1.6-3.2-2.4-4.8-3.2c-6.5-4-12.9-7.3-20.2-8.9c-1.6-0.8-3.2-0.8-5.7-0.8c-0.8,0-0.8,0-1.6,0h-0.8h-1.6h-1.6h-1.6
			c-1.6,0-3.2,0-5.7,0h-2.4h-1.6h-0.8h-0.8h-1.6h-0.8h0.8h-1.6h-0.8h-0.8l-2.4,0.8l-3.2,0.8l-2.4,0.8h-0.8h-0.8l-0.8,0.8l0,0l0,0
			h-0.8l-0.8,0.8c-0.8,0-0.8,0.8-0.8,0.8l-0.8,0.8c-6.5,3.2-12.1,8.1-17,13.7c-4.8,5.7-8.9,11.3-11.3,18.6
			c-1.6,3.2-2.4,7.3-3.2,10.5v1.6v0.8v0.8c0,0.8,0,1.6,0,2.4v2.4c0,0.8,0,1.6,0,2.4c0,4,0,7.3,0.8,11.3
			C1374.5,727.5,1375.4,731.6,1377,734.8L1377,734.8z"/>
	</g>
	<g id="bubble-61">
		<circle class="st0" fill="#946EB5" cx="1431.1" cy="706.5" r="62.2"/>
		<path class="st1" fill="#BF7AB3" d="M1377,734.8c-1.6-3.2-3.2-7.3-4.8-10.5c-0.8-1.6-0.8-4-1.6-5.7s-0.8-4-0.8-5.7c0-0.8,0-0.8,0-1.6v-1.6v-3.2
			v-3.2c0-0.8,0-1.6,0-3.2c0.8-4,0.8-8.1,2.4-12.1c0.8-4,2.4-7.3,4.8-11.3c2.4-4,4-7.3,7.3-10.5c4.8-6.5,11.3-11.3,19.4-15.4
			l1.6-0.8c0.8,0,0.8-0.8,1.6-0.8l1.6-0.8h0.8l0,0l0,0l1.6-0.8h0.8h0.8c0.8,0,1.6-0.8,3.2-0.8c4-1.6,8.1-1.6,12.1-2.4h0.8h0.8h1.6
			h3.2c1.6,0,4,0,6.5,0h1.6h1.6h0.8h0.8c0.8,0,0.8,0,1.6,0c1.6,0.8,4,0.8,5.7,1.6c8.1,2.4,15.4,6.5,21,11.3c1.6,1.6,3.2,2.4,4.8,4
			c1.6,1.6,2.4,3.2,4,4.8c1.6,1.6,2.4,3.2,3.2,4.8s1.6,3.2,2.4,4.8c-0.8-1.6-2.4-3.2-4-4.8l-4-4c-1.6-1.6-3.2-2.4-4.8-3.2
			c-1.6-1.6-3.2-2.4-4.8-3.2c-6.5-4-12.9-7.3-20.2-8.9c-1.6-0.8-3.2-0.8-5.7-0.8c-0.8,0-0.8,0-1.6,0h-0.8h-1.6h-1.6h-1.6
			c-1.6,0-3.2,0-5.7,0h-2.4h-1.6h-0.8h-0.8h-1.6h-0.8h0.8h-1.6h-0.8h-0.8l-2.4,0.8l-3.2,0.8l-2.4,0.8h-0.8h-0.8l-0.8,0.8l0,0l0,0
			h-0.8l-0.8,0.8c-0.8,0-0.8,0.8-0.8,0.8l-0.8,0.8c-6.5,3.2-12.1,8.1-17,13.7c-4.8,5.7-8.9,11.3-11.3,18.6
			c-1.6,3.2-2.4,7.3-3.2,10.5v1.6v0.8v0.8c0,0.8,0,1.6,0,2.4v2.4c0,0.8,0,1.6,0,2.4c0,4,0,7.3,0.8,11.3
			C1374.5,727.5,1375.4,731.6,1377,734.8L1377,734.8z"/>
	</g>
	<g id="bubble-62">
		<circle class="st0" fill="#946EB5" cx="1431.1" cy="706.5" r="62.2"/>
		<path class="st1" fill="#BF7AB3" d="M1377,734.8c-1.6-3.2-3.2-7.3-4.8-10.5c-0.8-1.6-0.8-4-1.6-5.7s-0.8-4-0.8-5.7c0-0.8,0-0.8,0-1.6v-1.6v-3.2
			v-3.2c0-0.8,0-1.6,0-3.2c0.8-4,0.8-8.1,2.4-12.1c0.8-4,2.4-7.3,4.8-11.3c2.4-4,4-7.3,7.3-10.5c4.8-6.5,11.3-11.3,19.4-15.4
			l1.6-0.8c0.8,0,0.8-0.8,1.6-0.8l1.6-0.8h0.8l0,0l0,0l1.6-0.8h0.8h0.8c0.8,0,1.6-0.8,3.2-0.8c4-1.6,8.1-1.6,12.1-2.4h0.8h0.8h1.6
			h3.2c1.6,0,4,0,6.5,0h1.6h1.6h0.8h0.8c0.8,0,0.8,0,1.6,0c1.6,0.8,4,0.8,5.7,1.6c8.1,2.4,15.4,6.5,21,11.3c1.6,1.6,3.2,2.4,4.8,4
			c1.6,1.6,2.4,3.2,4,4.8c1.6,1.6,2.4,3.2,3.2,4.8s1.6,3.2,2.4,4.8c-0.8-1.6-2.4-3.2-4-4.8l-4-4c-1.6-1.6-3.2-2.4-4.8-3.2
			c-1.6-1.6-3.2-2.4-4.8-3.2c-6.5-4-12.9-7.3-20.2-8.9c-1.6-0.8-3.2-0.8-5.7-0.8c-0.8,0-0.8,0-1.6,0h-0.8h-1.6h-1.6h-1.6
			c-1.6,0-3.2,0-5.7,0h-2.4h-1.6h-0.8h-0.8h-1.6h-0.8h0.8h-1.6h-0.8h-0.8l-2.4,0.8l-3.2,0.8l-2.4,0.8h-0.8h-0.8l-0.8,0.8l0,0l0,0
			h-0.8l-0.8,0.8c-0.8,0-0.8,0.8-0.8,0.8l-0.8,0.8c-6.5,3.2-12.1,8.1-17,13.7c-4.8,5.7-8.9,11.3-11.3,18.6
			c-1.6,3.2-2.4,7.3-3.2,10.5v1.6v0.8v0.8c0,0.8,0,1.6,0,2.4v2.4c0,0.8,0,1.6,0,2.4c0,4,0,7.3,0.8,11.3
			C1374.5,727.5,1375.4,731.6,1377,734.8L1377,734.8z"/>
	</g>
	<g id="bubble-63">
		<circle class="st0" fill="#946EB5" cx="1431.1" cy="706.5" r="62.2"/>
		<path class="st1" fill="#BF7AB3" d="M1377,734.8c-1.6-3.2-3.2-7.3-4.8-10.5c-0.8-1.6-0.8-4-1.6-5.7s-0.8-4-0.8-5.7c0-0.8,0-0.8,0-1.6v-1.6v-3.2
			v-3.2c0-0.8,0-1.6,0-3.2c0.8-4,0.8-8.1,2.4-12.1c0.8-4,2.4-7.3,4.8-11.3c2.4-4,4-7.3,7.3-10.5c4.8-6.5,11.3-11.3,19.4-15.4
			l1.6-0.8c0.8,0,0.8-0.8,1.6-0.8l1.6-0.8h0.8l0,0l0,0l1.6-0.8h0.8h0.8c0.8,0,1.6-0.8,3.2-0.8c4-1.6,8.1-1.6,12.1-2.4h0.8h0.8h1.6
			h3.2c1.6,0,4,0,6.5,0h1.6h1.6h0.8h0.8c0.8,0,0.8,0,1.6,0c1.6,0.8,4,0.8,5.7,1.6c8.1,2.4,15.4,6.5,21,11.3c1.6,1.6,3.2,2.4,4.8,4
			c1.6,1.6,2.4,3.2,4,4.8c1.6,1.6,2.4,3.2,3.2,4.8s1.6,3.2,2.4,4.8c-0.8-1.6-2.4-3.2-4-4.8l-4-4c-1.6-1.6-3.2-2.4-4.8-3.2
			c-1.6-1.6-3.2-2.4-4.8-3.2c-6.5-4-12.9-7.3-20.2-8.9c-1.6-0.8-3.2-0.8-5.7-0.8c-0.8,0-0.8,0-1.6,0h-0.8h-1.6h-1.6h-1.6
			c-1.6,0-3.2,0-5.7,0h-2.4h-1.6h-0.8h-0.8h-1.6h-0.8h0.8h-1.6h-0.8h-0.8l-2.4,0.8l-3.2,0.8l-2.4,0.8h-0.8h-0.8l-0.8,0.8l0,0l0,0
			h-0.8l-0.8,0.8c-0.8,0-0.8,0.8-0.8,0.8l-0.8,0.8c-6.5,3.2-12.1,8.1-17,13.7c-4.8,5.7-8.9,11.3-11.3,18.6
			c-1.6,3.2-2.4,7.3-3.2,10.5v1.6v0.8v0.8c0,0.8,0,1.6,0,2.4v2.4c0,0.8,0,1.6,0,2.4c0,4,0,7.3,0.8,11.3
			C1374.5,727.5,1375.4,731.6,1377,734.8L1377,734.8z"/>
	</g>
	<g id="bubble-64">
		<circle class="st0" fill="#946EB5" cx="1431.1" cy="706.5" r="62.2"/>
		<path class="st1" fill="#BF7AB3" d="M1377,734.8c-1.6-3.2-3.2-7.3-4.8-10.5c-0.8-1.6-0.8-4-1.6-5.7s-0.8-4-0.8-5.7c0-0.8,0-0.8,0-1.6v-1.6v-3.2
			v-3.2c0-0.8,0-1.6,0-3.2c0.8-4,0.8-8.1,2.4-12.1c0.8-4,2.4-7.3,4.8-11.3c2.4-4,4-7.3,7.3-10.5c4.8-6.5,11.3-11.3,19.4-15.4
			l1.6-0.8c0.8,0,0.8-0.8,1.6-0.8l1.6-0.8h0.8l0,0l0,0l1.6-0.8h0.8h0.8c0.8,0,1.6-0.8,3.2-0.8c4-1.6,8.1-1.6,12.1-2.4h0.8h0.8h1.6
			h3.2c1.6,0,4,0,6.5,0h1.6h1.6h0.8h0.8c0.8,0,0.8,0,1.6,0c1.6,0.8,4,0.8,5.7,1.6c8.1,2.4,15.4,6.5,21,11.3c1.6,1.6,3.2,2.4,4.8,4
			c1.6,1.6,2.4,3.2,4,4.8c1.6,1.6,2.4,3.2,3.2,4.8s1.6,3.2,2.4,4.8c-0.8-1.6-2.4-3.2-4-4.8l-4-4c-1.6-1.6-3.2-2.4-4.8-3.2
			c-1.6-1.6-3.2-2.4-4.8-3.2c-6.5-4-12.9-7.3-20.2-8.9c-1.6-0.8-3.2-0.8-5.7-0.8c-0.8,0-0.8,0-1.6,0h-0.8h-1.6h-1.6h-1.6
			c-1.6,0-3.2,0-5.7,0h-2.4h-1.6h-0.8h-0.8h-1.6h-0.8h0.8h-1.6h-0.8h-0.8l-2.4,0.8l-3.2,0.8l-2.4,0.8h-0.8h-0.8l-0.8,0.8l0,0l0,0
			h-0.8l-0.8,0.8c-0.8,0-0.8,0.8-0.8,0.8l-0.8,0.8c-6.5,3.2-12.1,8.1-17,13.7c-4.8,5.7-8.9,11.3-11.3,18.6
			c-1.6,3.2-2.4,7.3-3.2,10.5v1.6v0.8v0.8c0,0.8,0,1.6,0,2.4v2.4c0,0.8,0,1.6,0,2.4c0,4,0,7.3,0.8,11.3
			C1374.5,727.5,1375.4,731.6,1377,734.8L1377,734.8z"/>
	</g>
</g>
<g id="nuclear-reactor">
	<path class="st2" d="M1920,1080.2H627.8c-41.2-42.8-65.5-95.4-65.5-151.1c0-147.9,167.3-267.5,373.3-267.5
		c165.7,0,305.5,77.6,354.7,184.2c43.6-33.1,101.8-52.5,165.7-52.5c89.7,0,168.1,38.8,210.1,97c17.8-4.8,36.4-8.1,55.8-8.1
		C1831.1,882.2,1919.1,970.3,1920,1080.2L1920,1080.2z"/>
	<path class="st3" d="M819.4,978.4c0,36.4-11.3,71.1-30.7,101.8H0c0-113.9,82.4-206.9,184.2-206.9c25.9,0,50.1,5.7,71.9,16.2
		c44.4-81.6,148.7-139,270.7-139C687.6,751.3,819.4,853.1,819.4,978.4L819.4,978.4z"/>
	<polygon class="st4" points="1823,938.8 1823,1080.2 1128,1080.2 1128,892.7 1213.7,841.8 1242,939.6 1242.8,942 1247.6,939.6 
		1409.2,841.8 1437.5,939.6 1438.3,942 1444,939.6 1602.4,842.6 1630.7,939.6 1632.3,942.8 1637.9,939.6 1795.5,844.2 	"/>
	<path class="st4" d="M1111.9,607.5H698.9c0-42.8,92.1-77.6,206.1-77.6S1111.9,564.6,1111.9,607.5z"/>
	<rect x="412.9" y="859.6" class="st5" width="715.2" height="221.4"/>
	<rect x="412.9" y="859.6" class="st6" width="33.9" height="33.9"/>
	<rect x="1094.1" y="859.6" class="st6" width="33.9" height="33.9"/>
	<rect x="1048.8" y="859.6" class="st6" width="33.9" height="33.9"/>
	<rect x="458.1" y="859.6" class="st6" width="33.9" height="33.9"/>
	<rect x="504.2" y="859.6" class="st6" width="33.9" height="33.9"/>
	<rect x="549.5" y="859.6" class="st6" width="33.9" height="33.9"/>
	<rect x="594.7" y="859.6" class="st6" width="33.9" height="33.9"/>
	<rect x="640" y="859.6" class="st6" width="33.9" height="33.9"/>
	<rect x="685.2" y="859.6" class="st6" width="33.9" height="33.9"/>
	<rect x="731.3" y="859.6" class="st6" width="33.9" height="33.9"/>
	<rect x="776.5" y="859.6" class="st6" width="33.9" height="33.9"/>
	<rect x="821.8" y="859.6" class="st6" width="33.9" height="33.9"/>
	<rect x="867" y="859.6" class="st6" width="33.9" height="33.9"/>
	<rect x="912.3" y="859.6" class="st6" width="33.9" height="33.9"/>
	<rect x="1003.6" y="859.6" class="st6" width="33.9" height="33.9"/>
	<rect x="958.3" y="859.6" class="st6" width="33.9" height="33.9"/>
	<rect x="412.9" y="816.8" class="st4" width="715.2" height="42.8"/>
	<rect x="698.1" y="620.4" class="st7" width="412.9" height="50.9"/>
	<rect x="698.1" y="671.3" class="st5" width="412.9" height="145.5"/>
	<path class="st8" d="M784.6,631.7h80c5.7,0,10.5,4.8,10.5,10.5v126.1c0,5.7-4.8,10.5-10.5,10.5h-80c-5.7,0-10.5-4.8-10.5-10.5
		V642.2C774.1,636.6,778.9,631.7,784.6,631.7z"/>
	<path class="st9" d="M806.4,652.7L806.4,652.7c4,0,7.3,3.2,7.3,7.3v91.3c0,4-3.2,7.3-7.3,7.3l0,0c-4,0-7.3-3.2-7.3-7.3V660
		C800,656,803.2,652.7,806.4,652.7z"/>
	<path class="st9" d="M839.6,652.7L839.6,652.7c4,0,7.3,3.2,7.3,7.3v91.3c0,4-3.2,7.3-7.3,7.3l0,0c-4,0-7.3-3.2-7.3-7.3V660
		C832.3,656,835.5,652.7,839.6,652.7z"/>
	<path class="st10" d="M1034.3,816.8H854.9c-1.6-25.9,8.1-50.1,25.1-67.1v-60.6c0-4,2.4-6.5,6.5-8.1c9.7-3.2,17-15.4,17-25.9v-0.8
		c0.8-4.8,7.3-16.2,7.3-16.2c7.3-11.3,20.2-18.6,33.9-18.6h0.8c14.5,0,26.7,7.3,33.9,18.6c0,0,7.3,11.3,7.3,16.2v0.8
		c0,11.3,7.3,23.4,17,25.9c3.2,0.8,6.5,4,6.5,8.1v60.6C1026.2,766.7,1035.9,790.1,1034.3,816.8z"/>
	<path class="st9" d="M912.3,698.8L912.3,698.8c4,0,7.3,3.2,7.3,7.3v91.3c0,4-3.2,7.3-7.3,7.3l0,0c-4,0-7.3-3.2-7.3-7.3v-91.3
		C905,702,908.2,698.8,912.3,698.8z"/>
	<path class="st9" d="M943.8,698.8L943.8,698.8c4,0,7.3,3.2,7.3,7.3v91.3c0,4-3.2,7.3-7.3,7.3l0,0c-4,0-7.3-3.2-7.3-7.3v-91.3
		C937.3,702,940.6,698.8,943.8,698.8z"/>
	<path class="st9" d="M976.1,698.8L976.1,698.8c4,0,7.3,3.2,7.3,7.3v91.3c0,4-3.2,7.3-7.3,7.3l0,0c-4,0-7.3-3.2-7.3-7.3v-91.3
		C968.8,702,972.1,698.8,976.1,698.8z"/>
	<path class="st7" d="M1621,1080.2H1246c4.8-4.8,9.7-10.5,13.7-17c4-5.7,8.9-12.1,12.9-19.4c33.9-58.2,59.8-153.5,67.1-262.6
		c4-58.2,2.4-113.1-4-160.8c-0.8-8.1-2.4-15.4-3.2-22.6V597h202.8c-1.6,7.3-2.4,16.2-3.2,23.4c-6.5,47.7-8.1,102.6-4,160.8
		c7.3,106.7,32.3,200.4,65.5,258.6c4,7.3,8.1,13.7,12.9,20.2C1610.5,1068.1,1615.3,1074.5,1621,1080.2L1621,1080.2L1621,1080.2z"/>
	<rect x="1344.6" y="597" class="st11" width="12.1" height="23.4"/>
	<rect x="1368" y="597" class="st11" width="14.5" height="23.4"/>
	<rect x="1400.4" y="597" class="st11" width="22.6" height="23.4"/>
	<rect x="1443.2" y="597" class="st12" width="22.6" height="23.4"/>
	<rect x="1483.6" y="597" class="st13" width="13.7" height="23.4"/>
	<rect x="1511.1" y="597" class="st13" width="10.5" height="23.4"/>
	<path class="st13" d="M1535.3,597L1535.3,597c-1.6,8.1-2.4,16.2-3.2,23.4h-1.6V597H1535.3L1535.3,597z"/>
	<path class="st11" d="M1338.1,597v23.4h-2.4c-0.8-8.1-2.4-15.4-3.2-22.6V597C1332.5,597,1338.1,597,1338.1,597z"/>
	<rect x="1364.8" y="1033.3" class="st14" width="31.5" height="47.7"/>
	<rect x="1411.7" y="1033.3" class="st15" width="41.2" height="51.7"/>
	<rect x="1468.2" y="1033.3" class="st15" width="31.5" height="50.1"/>
	<rect x="1515.1" y="1033.3" class="st15" width="25.1" height="50.1"/>
	<rect x="1323.6" y="1033.3" class="st14" width="25.1" height="49.3"/>
	<rect x="1556.3" y="1033.3" class="st15" width="21" height="50.9"/>
	<rect x="1288" y="1033.3" class="st14" width="21" height="49.3"/>
	<path class="st15" d="M1604.8,1057.6v23.4h-12.9v-43.6C1595.9,1043.8,1600.8,1051.9,1604.8,1057.6z"/>
	<path class="st14" d="M1272.7,1043.8v37.2h-12.9v-17.8C1263.8,1058.4,1268.6,1051.9,1272.7,1043.8L1272.7,1043.8L1272.7,1043.8z"/>
	<polygon class="st7" points="656.1,816.8 596.3,816.8 606,284.2 606.8,244.6 606.8,209.9 607.6,170.3 608.4,134.7 609.2,95.1 
		648.8,95.1 649.7,134.7 649.7,170.3 650.5,209.9 650.5,244.6 651.3,284.2 	"/>
	<polygon class="st16" points="649.7,134.7 608.4,134.7 609.2,95.1 648.8,95.1 	"/>
	<polygon class="st16" points="650.5,209.9 606.8,209.9 607.6,170.3 649.7,170.3 	"/>
	<polygon class="st16" points="651.3,284.2 606,284.2 606.8,244.6 650.5,244.6 	"/>
	<rect x="698.1" y="609.1" class="st17" width="412.1" height="11.3"/>
</g>
</svg>
